<ttFont>
    <TTGlyph name="A" xMin="-46" yMin="0" xMax="1109" yMax="1456">
      <contour>
        <pt x="953" y="435" on="1"/>
        <pt x="240" y="435" on="1"/>
        <pt x="13" y="0" on="1"/>
        <pt x="-46" y="0" on="1"/>
        <pt x="716" y="1456" on="1"/>
        <pt x="782" y="1456" on="1"/>
        <pt x="1109" y="0" on="1"/>
        <pt x="1050" y="0" on="1"/>
      </contour>
      <contour>
        <pt x="268" y="489" on="1"/>
        <pt x="941" y="489" on="1"/>
        <pt x="758" y="1309" on="1"/>
        <pt x="743" y="1391" on="1"/>
        <pt x="737" y="1391" on="1"/>
        <pt x="697" y="1309" on="1"/>
      </contour>
    </TTGlyph>
    <TTGlyph name="A.smcp" xMin="-14" yMin="0" xMax="996" yMax="1165">
      <contour>
        <pt x="852" y="336" on="1"/>
        <pt x="230" y="336" on="1"/>
        <pt x="44" y="0" on="1"/>
        <pt x="-14" y="0" on="1"/>
        <pt x="637" y="1165" on="1"/>
        <pt x="697" y="1165" on="1"/>
        <pt x="996" y="0" on="1"/>
        <pt x="938" y="0" on="1"/>
      </contour>
      <contour>
        <pt x="260" y="390" on="1"/>
        <pt x="839" y="390" on="1"/>
        <pt x="671" y="1054" on="1"/>
        <pt x="661" y="1105" on="1"/>
        <pt x="655" y="1106" on="1"/>
        <pt x="628" y="1052" on="1"/>
      </contour>
    </TTGlyph>
    <TTGlyph name="AE" xMin="-30" yMin="0" xMax="1845" yMax="1456">
      <contour>
        <pt x="1688" y="0" on="1"/>
        <pt x="936" y="0" on="1"/>
        <pt x="982" y="425" on="1"/>
        <pt x="354" y="425" on="1"/>
        <pt x="35" y="0" on="1"/>
        <pt x="-30" y="0" on="1"/>
        <pt x="1069" y="1456" on="1"/>
        <pt x="1845" y="1456" on="1"/>
        <pt x="1837" y="1402" on="1"/>
        <pt x="1141" y="1402" on="1"/>
        <pt x="1075" y="786" on="1"/>
        <pt x="1663" y="786" on="1"/>
        <pt x="1655" y="732" on="1"/>
        <pt x="1069" y="732" on="1"/>
        <pt x="996" y="54" on="1"/>
        <pt x="1696" y="54" on="1"/>
      </contour>
      <contour>
        <pt x="394" y="478" on="1"/>
        <pt x="987" y="478" on="1"/>
        <pt x="1087" y="1400" on="1"/>
        <pt x="1081" y="1402" on="1"/>
        <pt x="1010" y="1298" on="1"/>
      </contour>
    </TTGlyph>
    <TTGlyph name="AEacute" xMin="-30" yMin="0" xMax="1845" yMax="1822">
      <component glyphName="AE" x="0" y="0" flags="0x204"/>
      <component glyphName="acute" x="857" y="344" flags="0x4"/>
    </TTGlyph>
    <TTGlyph name="Aacute" xMin="-46" yMin="0" xMax="1109" yMax="1822">
      <component glyphName="A" x="0" y="0" flags="0x204"/>
      <component glyphName="acute" x="498" y="344" flags="0x4"/>
    </TTGlyph>
    <TTGlyph name="Aacute.smcp" xMin="-14" yMin="0" xMax="996" yMax="1499">
      <component glyphName="A.smcp" x="0" y="0" flags="0x204"/>
      <component glyphName="acute" x="404" y="21" flags="0x4"/>
    </TTGlyph>
    <TTGlyph name="Abreve" xMin="-46" yMin="0" xMax="1109" yMax="1839">
      <component glyphName="A" x="0" y="0" flags="0x204"/>
      <component glyphName="breve" x="242" y="383" flags="0x4"/>
    </TTGlyph>
    <TTGlyph name="Abreve.smcp" xMin="-14" yMin="0" xMax="996" yMax="1516">
      <component glyphName="A.smcp" x="0" y="0" flags="0x204"/>
      <component glyphName="breve" x="149" y="60" flags="0x4"/>
    </TTGlyph>
    <TTGlyph name="Acircumflex" xMin="-46" yMin="0" xMax="1109" yMax="1824">
      <component glyphName="A" x="0" y="0" flags="0x204"/>
      <component glyphName="circumflex" x="262" y="349" flags="0x4"/>
    </TTGlyph>
    <TTGlyph name="Acircumflex.smcp" xMin="-14" yMin="0" xMax="996" yMax="1501">
      <component glyphName="A.smcp" x="0" y="0" flags="0x204"/>
      <component glyphName="circumflex" x="169" y="26" flags="0x4"/>
    </TTGlyph>
    <TTGlyph name="Adieresis" xMin="-46" yMin="0" xMax="1109" yMax="1791">
      <component glyphName="A" x="0" y="0" flags="0x204"/>
      <component glyphName="dieresis" x="212" y="335" flags="0x4"/>
    </TTGlyph>
    <TTGlyph name="Adieresis.smcp" xMin="-14" yMin="0" xMax="1009" yMax="1468">
      <component glyphName="A.smcp" x="0" y="0" flags="0x204"/>
      <component glyphName="dieresis" x="119" y="12" flags="0x4"/>
    </TTGlyph>
    <TTGlyph name="Agrave" xMin="-46" yMin="0" xMax="1109" yMax="1828">
      <component glyphName="A" x="0" y="0" flags="0x204"/>
      <component glyphName="grave" x="305" y="352" flags="0x4"/>
    </TTGlyph>
    <TTGlyph name="Agrave.smcp" xMin="-14" yMin="0" xMax="996" yMax="1505">
      <component glyphName="A.smcp" x="0" y="0" flags="0x204"/>
      <component glyphName="grave" x="211" y="29" flags="0x4"/>
    </TTGlyph>
    <TTGlyph name="Alpha" xMin="-46" yMin="0" xMax="1109" yMax="1456">
      <component glyphName="A" x="0" y="0" flags="0x204"/>
    </TTGlyph>
    <TTGlyph name="Alphatonos" xMin="-46" yMin="0" xMax="1109" yMax="1567">
      <component glyphName="A" x="0" y="0" flags="0x204"/>
      <component glyphName="tonos" x="-37" y="-1" flags="0x4"/>
    </TTGlyph>
    <TTGlyph name="Amacron" xMin="-46" yMin="0" xMax="1109" yMax="1786">
      <component glyphName="A" x="0" y="0" flags="0x204"/>
      <component glyphName="macron" x="249" y="330" flags="0x4"/>
    </TTGlyph>
    <TTGlyph name="Amacron.smcp" xMin="-14" yMin="0" xMax="1003" yMax="1463">
      <component glyphName="A.smcp" x="0" y="0" flags="0x204"/>
      <component glyphName="macron" x="155" y="7" flags="0x4"/>
    </TTGlyph>
    <TTGlyph name="Aogonek" xMin="-46" yMin="-357" xMax="1114" yMax="1456">
      <component glyphName="A" x="0" y="0" flags="0x204"/>
      <component glyphName="ogonek" x="866" y="0" flags="0x4"/>
    </TTGlyph>
    <TTGlyph name="Aogonek.smcp" xMin="-14" yMin="-357" xMax="996" yMax="1165">
      <component glyphName="A.smcp" x="0" y="0" flags="0x204"/>
      <component glyphName="ogonek" x="748" y="0" flags="0x4"/>
    </TTGlyph>
    <TTGlyph name="Aring" xMin="-46" yMin="0" xMax="1109" yMax="1865">
      <component glyphName="A" x="0" y="0" flags="0x204"/>
      <component glyphName="ring" x="328" y="388" flags="0x4"/>
    </TTGlyph>
    <TTGlyph name="Aring.smcp" xMin="-14" yMin="0" xMax="996" yMax="1542">
      <component glyphName="A.smcp" x="0" y="0" flags="0x204"/>
      <component glyphName="ring" x="235" y="65" flags="0x4"/>
    </TTGlyph>
    <TTGlyph name="Aringacute" xMin="-46" yMin="0" xMax="1109" yMax="2080">
      <component glyphName="A" x="0" y="0" flags="0x204"/>
      <component glyphName="ringacute" x="332" y="352" flags="0x4"/>
    </TTGlyph>
    <TTGlyph name="Aringacute.smcp" xMin="-14" yMin="0" xMax="996" yMax="1757">
      <component glyphName="A.smcp" x="0" y="0" flags="0x204"/>
      <component glyphName="ringacute" x="238" y="29" flags="0x4"/>
    </TTGlyph>
    <TTGlyph name="Atilde" xMin="-46" yMin="0" xMax="1109" yMax="1811">
      <component glyphName="A" x="0" y="0" flags="0x204"/>
      <component glyphName="tilde" x="244" y="329" flags="0x4"/>
    </TTGlyph>
    <TTGlyph name="Atilde.smcp" xMin="-14" yMin="0" xMax="996" yMax="1488">
      <component glyphName="A.smcp" x="0" y="0" flags="0x204"/>
      <component glyphName="tilde" x="151" y="6" flags="0x4"/>
    </TTGlyph>
    <TTGlyph name="B" xMin="120" yMin="0" xMax="1169" yMax="1456">
      <contour>
        <pt x="120" y="0" on="1"/>
        <pt x="338" y="1456" on="1"/>
        <pt x="721" y="1456" on="1"/>
        <pt x="939" y="1456" on="0"/>
        <pt x="1169" y="1268" on="0"/>
        <pt x="1141" y="1083" on="1"/>
        <pt x="1120" y="948" on="0"/>
        <pt x="962" y="775" on="0"/>
        <pt x="836" y="753" on="1"/>
        <pt x="970" y="735" on="0"/>
        <pt x="1125" y="533" on="0"/>
        <pt x="1105" y="401" on="1"/>
        <pt x="1075" y="203" on="0"/>
        <pt x="801" y="0" on="0"/>
        <pt x="595" y="0" on="1"/>
      </contour>
      <contour>
        <pt x="281" y="719" on="1"/>
        <pt x="182" y="54" on="1"/>
        <pt x="603" y="54" on="1"/>
        <pt x="780" y="54" on="0"/>
        <pt x="1026" y="238" on="0"/>
        <pt x="1051" y="399" on="1"/>
        <pt x="1071" y="537" on="0"/>
        <pt x="898" y="719" on="0"/>
        <pt x="713" y="719" on="1"/>
      </contour>
      <contour>
        <pt x="289" y="773" on="1"/>
        <pt x="657" y="773" on="1"/>
        <pt x="841" y="776" on="0"/>
        <pt x="1064" y="933" on="0"/>
        <pt x="1087" y="1087" on="1"/>
        <pt x="1111" y="1249" on="0"/>
        <pt x="923" y="1402" on="0"/>
        <pt x="713" y="1402" on="1"/>
        <pt x="384" y="1402" on="1"/>
      </contour>
    </TTGlyph>
    <TTGlyph name="B.smcp" xMin="101" yMin="0" xMax="1010" yMax="1165">
      <contour>
        <pt x="101" y="0" on="1"/>
        <pt x="276" y="1165" on="1"/>
        <pt x="627" y="1165" on="1"/>
        <pt x="813" y="1165" on="0"/>
        <pt x="1010" y="1013" on="0"/>
        <pt x="988" y="864" on="1"/>
        <pt x="971" y="761" on="0"/>
        <pt x="840" y="620" on="0"/>
        <pt x="736" y="598" on="1"/>
        <pt x="844" y="582" on="0"/>
        <pt x="968" y="421" on="0"/>
        <pt x="952" y="314" on="1"/>
        <pt x="928" y="156" on="0"/>
        <pt x="699" y="0" on="0"/>
        <pt x="522" y="0" on="1"/>
      </contour>
      <contour>
        <pt x="239" y="563" on="1"/>
        <pt x="163" y="54" on="1"/>
        <pt x="530" y="54" on="1"/>
        <pt x="679" y="54" on="0"/>
        <pt x="880" y="189" on="0"/>
        <pt x="899" y="313" on="1"/>
        <pt x="915" y="426" on="0"/>
        <pt x="766" y="559" on="0"/>
        <pt x="621" y="563" on="1"/>
        <pt x="606" y="563" on="1"/>
      </contour>
      <contour>
        <pt x="247" y="617" on="1"/>
        <pt x="561" y="617" on="1"/>
        <pt x="720" y="620" on="0"/>
        <pt x="915" y="748" on="0"/>
        <pt x="934" y="867" on="1"/>
        <pt x="953" y="997" on="0"/>
        <pt x="797" y="1112" on="0"/>
        <pt x="619" y="1112" on="1"/>
        <pt x="322" y="1112" on="1"/>
      </contour>
    </TTGlyph>
    <TTGlyph name="Beta" xMin="120" yMin="0" xMax="1169" yMax="1456">
      <component glyphName="B" x="0" y="0" flags="0x204"/>
    </TTGlyph>
    <TTGlyph name="C" xMin="114" yMin="-21" xMax="1283" yMax="1477">
      <contour>
        <pt x="1158" y="446" on="1"/>
        <pt x="1160" y="440" on="1"/>
        <pt x="1129" y="207" on="0"/>
        <pt x="820" y="-21" on="0"/>
        <pt x="588" y="-21" on="1"/>
        <pt x="358" y="-21" on="0"/>
        <pt x="114" y="335" on="0"/>
        <pt x="157" y="619" on="1"/>
        <pt x="190" y="837" on="1"/>
        <pt x="233" y="1134" on="0"/>
        <pt x="571" y="1477" on="0"/>
        <pt x="813" y="1477" on="1"/>
        <pt x="1032" y="1477" on="0"/>
        <pt x="1283" y="1237" on="0"/>
        <pt x="1247" y="1018" on="1"/>
        <pt x="1244" y="1012" on="1"/>
        <pt x="1198" y="1012" on="1"/>
        <pt x="1228" y="1216" on="0"/>
        <pt x="1017" y="1423" on="0"/>
        <pt x="804" y="1423" on="1"/>
        <pt x="599" y="1423" on="0"/>
        <pt x="283" y="1099" on="0"/>
        <pt x="244" y="839" on="1"/>
        <pt x="211" y="619" on="1"/>
        <pt x="169" y="344" on="0"/>
        <pt x="380" y="33" on="0"/>
        <pt x="596" y="33" on="1"/>
        <pt x="799" y="33" on="0"/>
        <pt x="1082" y="241" on="0"/>
        <pt x="1113" y="446" on="1"/>
      </contour>
    </TTGlyph>
    <TTGlyph name="C.smcp" xMin="97" yMin="-17" xMax="1081" yMax="1181">
      <contour>
        <pt x="979" y="359" on="1"/>
        <pt x="981" y="353" on="1"/>
        <pt x="956" y="165" on="0"/>
        <pt x="706" y="-17" on="0"/>
        <pt x="501" y="-17" on="1"/>
        <pt x="304" y="-17" on="0"/>
        <pt x="97" y="248" on="0"/>
        <pt x="129" y="461" on="1"/>
        <pt x="166" y="704" on="1"/>
        <pt x="198" y="926" on="0"/>
        <pt x="473" y="1181" on="0"/>
        <pt x="681" y="1181" on="1"/>
        <pt x="876" y="1181" on="0"/>
        <pt x="1081" y="990" on="0"/>
        <pt x="1049" y="813" on="1"/>
        <pt x="1047" y="807" on="1"/>
        <pt x="1001" y="807" on="1"/>
        <pt x="1025" y="970" on="0"/>
        <pt x="858" y="1127" on="0"/>
        <pt x="673" y="1127" on="1"/>
        <pt x="500" y="1127" on="0"/>
        <pt x="248" y="893" on="0"/>
        <pt x="220" y="705" on="1"/>
        <pt x="183" y="461" on="1"/>
        <pt x="153" y="261" on="0"/>
        <pt x="328" y="38" on="0"/>
        <pt x="510" y="38" on="1"/>
        <pt x="687" y="38" on="0"/>
        <pt x="909" y="196" on="0"/>
        <pt x="934" y="359" on="1"/>
      </contour>
    </TTGlyph>
    <TTGlyph name="Cacute" xMin="114" yMin="-21" xMax="1283" yMax="1843">
      <component glyphName="C" x="0" y="0" flags="0x204"/>
      <component glyphName="acute" x="567" y="365" flags="0x4"/>
    </TTGlyph>
    <TTGlyph name="Cacute.smcp" xMin="97" yMin="-17" xMax="1081" yMax="1515">
      <component glyphName="C.smcp" x="0" y="0" flags="0x204"/>
      <component glyphName="acute" x="407" y="37" flags="0x4"/>
    </TTGlyph>
    <TTGlyph name="Ccaron" xMin="114" yMin="-21" xMax="1283" yMax="1848">
      <component glyphName="C" x="0" y="0" flags="0x204"/>
      <component glyphName="caron" x="347" y="373" flags="0x4"/>
    </TTGlyph>
    <TTGlyph name="Ccaron.smcp" xMin="97" yMin="-17" xMax="1081" yMax="1520">
      <component glyphName="C.smcp" x="0" y="0" flags="0x204"/>
      <component glyphName="caron" x="187" y="45" flags="0x4"/>
    </TTGlyph>
    <TTGlyph name="Ccedilla" xMin="114" yMin="-444" xMax="1283" yMax="1477">
      <component glyphName="C" x="0" y="0" flags="0x204"/>
      <component glyphName="cedilla" x="471" y="-9" flags="0x4"/>
    </TTGlyph>
    <TTGlyph name="Ccedilla.smcp" xMin="97" yMin="-441" xMax="1081" yMax="1181">
      <component glyphName="C.smcp" x="0" y="0" flags="0x204"/>
      <component glyphName="cedilla" x="360" y="-6" flags="0x4"/>
    </TTGlyph>
    <TTGlyph name="Ccircumflex" xMin="114" yMin="-21" xMax="1283" yMax="1845">
      <component glyphName="C" x="0" y="0" flags="0x204"/>
      <component glyphName="circumflex" x="332" y="370" flags="0x4"/>
    </TTGlyph>
    <TTGlyph name="Ccircumflex.smcp" xMin="97" yMin="-17" xMax="1081" yMax="1517">
      <component glyphName="C.smcp" x="0" y="0" flags="0x204"/>
      <component glyphName="circumflex" x="171" y="42" flags="0x4"/>
    </TTGlyph>
    <TTGlyph name="Chi" xMin="-22" yMin="0" xMax="1281" yMax="1456">
      <component glyphName="X" x="0" y="0" flags="0x204"/>
    </TTGlyph>
    <TTGlyph name="D" xMin="120" yMin="0" xMax="1287" yMax="1456">
      <contour>
        <pt x="120" y="0" on="1"/>
        <pt x="338" y="1456" on="1"/>
        <pt x="741" y="1456" on="1"/>
        <pt x="983" y="1456" on="0"/>
        <pt x="1287" y="1093" on="0"/>
        <pt x="1247" y="817" on="1"/>
        <pt x="1220" y="639" on="1"/>
        <pt x="1176" y="348" on="0"/>
        <pt x="777" y="0" on="0"/>
        <pt x="523" y="0" on="1"/>
      </contour>
      <contour>
        <pt x="384" y="1402" on="1"/>
        <pt x="182" y="54" on="1"/>
        <pt x="531" y="54" on="1"/>
        <pt x="749" y="54" on="0"/>
        <pt x="1128" y="389" on="0"/>
        <pt x="1166" y="639" on="1"/>
        <pt x="1193" y="820" on="1"/>
        <pt x="1231" y="1080" on="0"/>
        <pt x="963" y="1402" on="0"/>
        <pt x="733" y="1402" on="1"/>
      </contour>
    </TTGlyph>
    <TTGlyph name="D.smcp" xMin="101" yMin="0" xMax="1072" yMax="1165">
      <contour>
        <pt x="101" y="0" on="1"/>
        <pt x="276" y="1165" on="1"/>
        <pt x="652" y="1165" on="1"/>
        <pt x="837" y="1165" on="0"/>
        <pt x="1072" y="893" on="0"/>
        <pt x="1041" y="687" on="1"/>
        <pt x="1010" y="477" on="1"/>
        <pt x="977" y="260" on="0"/>
        <pt x="672" y="0" on="0"/>
        <pt x="477" y="0" on="1"/>
      </contour>
      <contour>
        <pt x="322" y="1111" on="1"/>
        <pt x="163" y="54" on="1"/>
        <pt x="485" y="54" on="1"/>
        <pt x="648" y="54" on="0"/>
        <pt x="928" y="296" on="0"/>
        <pt x="956" y="477" on="1"/>
        <pt x="987" y="688" on="1"/>
        <pt x="1015" y="877" on="0"/>
        <pt x="815" y="1111" on="0"/>
        <pt x="644" y="1111" on="1"/>
      </contour>
    </TTGlyph>
    <TTGlyph name="Dcaron" xMin="120" yMin="0" xMax="1287" yMax="1827">
      <component glyphName="D" x="0" y="0" flags="0x204"/>
      <component glyphName="caron" x="256" y="352" flags="0x4"/>
    </TTGlyph>
    <TTGlyph name="Dcaron.smcp" xMin="101" yMin="0" xMax="1072" yMax="1504">
      <component glyphName="D.smcp" x="0" y="0" flags="0x204"/>
      <component glyphName="caron" x="96" y="29" flags="0x4"/>
    </TTGlyph>
    <TTGlyph name="Dcroat" xMin="117" yMin="0" xMax="1317" yMax="1456">
      <contour>
        <pt x="150" y="0" on="1"/>
        <pt x="257" y="713" on="1"/>
        <pt x="117" y="713" on="1"/>
        <pt x="125" y="767" on="1"/>
        <pt x="265" y="767" on="1"/>
        <pt x="368" y="1456" on="1"/>
        <pt x="771" y="1456" on="1"/>
        <pt x="1013" y="1456" on="0"/>
        <pt x="1317" y="1093" on="0"/>
        <pt x="1277" y="817" on="1"/>
        <pt x="1250" y="639" on="1"/>
        <pt x="1206" y="348" on="0"/>
        <pt x="807" y="0" on="0"/>
        <pt x="553" y="0" on="1"/>
      </contour>
      <contour>
        <pt x="704" y="713" on="1"/>
        <pt x="311" y="713" on="1"/>
        <pt x="212" y="54" on="1"/>
        <pt x="561" y="54" on="1"/>
        <pt x="779" y="54" on="0"/>
        <pt x="1158" y="389" on="0"/>
        <pt x="1196" y="639" on="1"/>
        <pt x="1223" y="820" on="1"/>
        <pt x="1261" y="1080" on="0"/>
        <pt x="993" y="1402" on="0"/>
        <pt x="763" y="1402" on="1"/>
        <pt x="414" y="1402" on="1"/>
        <pt x="319" y="767" on="1"/>
        <pt x="712" y="767" on="1"/>
      </contour>
    </TTGlyph>
    <TTGlyph name="Dcroat.smcp" xMin="-21" yMin="0" xMax="1072" yMax="1165">
      <component glyphName="D.smcp" x="0" y="0" flags="0x204"/>
      <component glyphName="crossbar" x="-157" y="-155" flags="0x4"/>
    </TTGlyph>
    <TTGlyph name="Delta" xMin="-22" yMin="0" xMax="1276" yMax="1456">
      <contour>
        <pt x="877" y="1456" on="1"/>
        <pt x="1276" y="0" on="1"/>
        <pt x="-22" y="0" on="1"/>
        <pt x="812" y="1456" on="1"/>
      </contour>
      <contour>
        <pt x="68" y="54" on="1"/>
        <pt x="1201" y="54" on="1"/>
        <pt x="855" y="1325" on="1"/>
        <pt x="838" y="1397" on="1"/>
        <pt x="832" y="1397" on="1"/>
        <pt x="795" y="1325" on="1"/>
      </contour>
    </TTGlyph>
    <TTGlyph name="E" xMin="120" yMin="0" xMax="1224" yMax="1456">
      <contour>
        <pt x="1014" y="732" on="1"/>
        <pt x="283" y="732" on="1"/>
        <pt x="182" y="54" on="1"/>
        <pt x="1014" y="54" on="1"/>
        <pt x="1006" y="0" on="1"/>
        <pt x="120" y="0" on="1"/>
        <pt x="338" y="1456" on="1"/>
        <pt x="1224" y="1456" on="1"/>
        <pt x="1216" y="1402" on="1"/>
        <pt x="384" y="1402" on="1"/>
        <pt x="291" y="786" on="1"/>
        <pt x="1022" y="786" on="1"/>
      </contour>
    </TTGlyph>
    <TTGlyph name="E.smcp" xMin="101" yMin="0" xMax="1046" yMax="1165">
      <contour>
        <pt x="871" y="579" on="1"/>
        <pt x="242" y="579" on="1"/>
        <pt x="163" y="54" on="1"/>
        <pt x="879" y="54" on="1"/>
        <pt x="871" y="0" on="1"/>
        <pt x="101" y="0" on="1"/>
        <pt x="276" y="1165" on="1"/>
        <pt x="1046" y="1165" on="1"/>
        <pt x="1038" y="1111" on="1"/>
        <pt x="322" y="1111" on="1"/>
        <pt x="250" y="633" on="1"/>
        <pt x="879" y="633" on="1"/>
      </contour>
    </TTGlyph>
    <TTGlyph name="Eacute" xMin="120" yMin="0" xMax="1224" yMax="1822">
      <component glyphName="E" x="0" y="0" flags="0x204"/>
      <component glyphName="acute" x="505" y="344" flags="0x4"/>
    </TTGlyph>
    <TTGlyph name="Eacute.smcp" xMin="101" yMin="0" xMax="1046" yMax="1499">
      <component glyphName="E.smcp" x="0" y="0" flags="0x204"/>
      <component glyphName="acute" x="375" y="21" flags="0x4"/>
    </TTGlyph>
    <TTGlyph name="Ebreve" xMin="120" yMin="0" xMax="1224" yMax="1839">
      <component glyphName="E" x="0" y="0" flags="0x204"/>
      <component glyphName="breve" x="249" y="383" flags="0x4"/>
    </TTGlyph>
    <TTGlyph name="Ebreve.smcp" xMin="101" yMin="0" xMax="1046" yMax="1516">
      <component glyphName="E.smcp" x="0" y="0" flags="0x204"/>
      <component glyphName="breve" x="120" y="60" flags="0x4"/>
    </TTGlyph>
    <TTGlyph name="Ecaron" xMin="120" yMin="0" xMax="1224" yMax="1827">
      <component glyphName="E" x="0" y="0" flags="0x204"/>
      <component glyphName="caron" x="285" y="352" flags="0x4"/>
    </TTGlyph>
    <TTGlyph name="Ecaron.smcp" xMin="101" yMin="0" xMax="1046" yMax="1504">
      <component glyphName="E.smcp" x="0" y="0" flags="0x204"/>
      <component glyphName="caron" x="155" y="29" flags="0x4"/>
    </TTGlyph>
    <TTGlyph name="Ecircumflex" xMin="120" yMin="0" xMax="1224" yMax="1824">
      <component glyphName="E" x="0" y="0" flags="0x204"/>
      <component glyphName="circumflex" x="269" y="349" flags="0x4"/>
    </TTGlyph>
    <TTGlyph name="Ecircumflex.smcp" xMin="101" yMin="0" xMax="1046" yMax="1501">
      <component glyphName="E.smcp" x="0" y="0" flags="0x204"/>
      <component glyphName="circumflex" x="140" y="26" flags="0x4"/>
    </TTGlyph>
    <TTGlyph name="Edieresis" xMin="120" yMin="0" xMax="1224" yMax="1791">
      <component glyphName="E" x="0" y="0" flags="0x204"/>
      <component glyphName="dieresis" x="219" y="335" flags="0x4"/>
    </TTGlyph>
    <TTGlyph name="Edieresis.smcp" xMin="101" yMin="0" xMax="1046" yMax="1468">
      <component glyphName="E.smcp" x="0" y="0" flags="0x204"/>
      <component glyphName="dieresis" x="90" y="12" flags="0x4"/>
    </TTGlyph>
    <TTGlyph name="Edotaccent" xMin="120" yMin="0" xMax="1224" yMax="1805">
      <component glyphName="E" x="0" y="0" flags="0x204"/>
      <component glyphName="dotaccent" x="467" y="349" flags="0x4"/>
    </TTGlyph>
    <TTGlyph name="Edotaccent.smcp" xMin="101" yMin="0" xMax="1046" yMax="1482">
      <component glyphName="E.smcp" x="0" y="0" flags="0x204"/>
      <component glyphName="dotaccent" x="338" y="26" flags="0x4"/>
    </TTGlyph>
    <TTGlyph name="Egrave" xMin="120" yMin="0" xMax="1224" yMax="1828">
      <component glyphName="E" x="0" y="0" flags="0x204"/>
      <component glyphName="grave" x="312" y="352" flags="0x4"/>
    </TTGlyph>
    <TTGlyph name="Egrave.smcp" xMin="101" yMin="0" xMax="1046" yMax="1505">
      <component glyphName="E.smcp" x="0" y="0" flags="0x204"/>
      <component glyphName="grave" x="182" y="29" flags="0x4"/>
    </TTGlyph>
    <TTGlyph name="Emacron" xMin="120" yMin="0" xMax="1224" yMax="1786">
      <component glyphName="E" x="0" y="0" flags="0x204"/>
      <component glyphName="macron" x="256" y="330" flags="0x4"/>
    </TTGlyph>
    <TTGlyph name="Emacron.smcp" xMin="101" yMin="0" xMax="1046" yMax="1463">
      <component glyphName="E.smcp" x="0" y="0" flags="0x204"/>
      <component glyphName="macron" x="126" y="7" flags="0x4"/>
    </TTGlyph>
    <TTGlyph name="Eng" xMin="120" yMin="-437" xMax="1388" yMax="1456">
      <contour>
        <pt x="1388" y="1456" on="1"/>
        <pt x="1157" y="-89" on="1"/>
        <pt x="1130" y="-262" on="0"/>
        <pt x="955" y="-437" on="0"/>
        <pt x="819" y="-437" on="1"/>
        <pt x="790" y="-437" on="0"/>
        <pt x="739" y="-427" on="0"/>
        <pt x="710" y="-417" on="1"/>
        <pt x="731" y="-365" on="1"/>
        <pt x="748" y="-372" on="0"/>
        <pt x="801" y="-383" on="0"/>
        <pt x="828" y="-383" on="1"/>
        <pt x="934" y="-383" on="0"/>
        <pt x="1081" y="-228" on="0"/>
        <pt x="1103" y="-89" on="1"/>
        <pt x="1116" y="0" on="1"/>
        <pt x="383" y="1356" on="1"/>
        <pt x="377" y="1355" on="1"/>
        <pt x="174" y="0" on="1"/>
        <pt x="120" y="0" on="1"/>
        <pt x="338" y="1456" on="1"/>
        <pt x="392" y="1456" on="1"/>
        <pt x="1125" y="101" on="1"/>
        <pt x="1131" y="102" on="1"/>
        <pt x="1334" y="1456" on="1"/>
      </contour>
    </TTGlyph>
    <TTGlyph name="Eogonek" xMin="120" yMin="-357" xMax="1224" yMax="1456">
      <component glyphName="E" x="0" y="0" flags="0x204"/>
      <component glyphName="ogonek" x="340" y="0" flags="0x4"/>
    </TTGlyph>
    <TTGlyph name="Eogonek.smcp" xMin="101" yMin="-357" xMax="1046" yMax="1165">
      <component glyphName="E.smcp" x="0" y="0" flags="0x204"/>
      <component glyphName="ogonek" x="278" y="0" flags="0x4"/>
    </TTGlyph>
    <TTGlyph name="Epsilon" xMin="120" yMin="0" xMax="1224" yMax="1456">
      <component glyphName="E" x="0" y="0" flags="0x204"/>
    </TTGlyph>
    <TTGlyph name="Epsilontonos" xMin="117" yMin="0" xMax="1324" yMax="1569">
      <component glyphName="E" x="100" y="0" flags="0x4"/>
      <component glyphName="tonos" x="-188" y="1" flags="0x4"/>
    </TTGlyph>
    <TTGlyph name="Eta" xMin="120" yMin="0" xMax="1376" yMax="1456">
      <component glyphName="H" x="0" y="0" flags="0x204"/>
    </TTGlyph>
    <TTGlyph name="Etatonos" xMin="129" yMin="0" xMax="1476" yMax="1569">
      <component glyphName="H" x="100" y="0" flags="0x4"/>
      <component glyphName="tonos" x="-176" y="1" flags="0x4"/>
    </TTGlyph>
    <TTGlyph name="Eth" xMin="117" yMin="0" xMax="1317" yMax="1456">
      <contour>
        <pt x="150" y="0" on="1"/>
        <pt x="257" y="713" on="1"/>
        <pt x="117" y="713" on="1"/>
        <pt x="125" y="767" on="1"/>
        <pt x="265" y="767" on="1"/>
        <pt x="368" y="1456" on="1"/>
        <pt x="771" y="1456" on="1"/>
        <pt x="1013" y="1456" on="0"/>
        <pt x="1317" y="1093" on="0"/>
        <pt x="1277" y="817" on="1"/>
        <pt x="1250" y="639" on="1"/>
        <pt x="1206" y="348" on="0"/>
        <pt x="807" y="0" on="0"/>
        <pt x="553" y="0" on="1"/>
      </contour>
      <contour>
        <pt x="704" y="713" on="1"/>
        <pt x="311" y="713" on="1"/>
        <pt x="212" y="54" on="1"/>
        <pt x="561" y="54" on="1"/>
        <pt x="779" y="54" on="0"/>
        <pt x="1158" y="389" on="0"/>
        <pt x="1196" y="639" on="1"/>
        <pt x="1223" y="820" on="1"/>
        <pt x="1261" y="1080" on="0"/>
        <pt x="993" y="1402" on="0"/>
        <pt x="763" y="1402" on="1"/>
        <pt x="414" y="1402" on="1"/>
        <pt x="319" y="767" on="1"/>
        <pt x="712" y="767" on="1"/>
      </contour>
    </TTGlyph>
    <TTGlyph name="Eth.smcp" xMin="-21" yMin="0" xMax="1072" yMax="1165">
      <component glyphName="D.smcp" x="0" y="0" flags="0x204"/>
      <component glyphName="crossbar" x="-157" y="-155" flags="0x4"/>
    </TTGlyph>
    <TTGlyph name="Euro" xMin="85" yMin="-21" xMax="1101" yMax="1477">
      <contour>
        <pt x="919" y="553" on="1"/>
        <pt x="326" y="553" on="1"/>
        <pt x="320" y="514" on="1"/>
        <pt x="285" y="286" on="0"/>
        <pt x="474" y="33" on="0"/>
        <pt x="669" y="33" on="1"/>
        <pt x="724" y="33" on="0"/>
        <pt x="841" y="50" on="0"/>
        <pt x="894" y="67" on="1"/>
        <pt x="886" y="10" on="1"/>
        <pt x="832" y="-5" on="0"/>
        <pt x="717" y="-21" on="0"/>
        <pt x="661" y="-21" on="1"/>
        <pt x="457" y="-21" on="0"/>
        <pt x="230" y="272" on="0"/>
        <pt x="266" y="514" on="1"/>
        <pt x="272" y="553" on="1"/>
        <pt x="85" y="553" on="1"/>
        <pt x="93" y="608" on="1"/>
        <pt x="280" y="608" on="1"/>
        <pt x="313" y="830" on="1"/>
        <pt x="127" y="830" on="1"/>
        <pt x="135" y="886" on="1"/>
        <pt x="321" y="886" on="1"/>
        <pt x="330" y="942" on="1"/>
        <pt x="368" y="1195" on="0"/>
        <pt x="669" y="1477" on="0"/>
        <pt x="884" y="1477" on="1"/>
        <pt x="936" y="1477" on="0"/>
        <pt x="1043" y="1461" on="0"/>
        <pt x="1101" y="1446" on="1"/>
        <pt x="1092" y="1388" on="1"/>
        <pt x="1041" y="1404" on="0"/>
        <pt x="931" y="1423" on="0"/>
        <pt x="875" y="1423" on="1"/>
        <pt x="689" y="1423" on="0"/>
        <pt x="417" y="1163" on="0"/>
        <pt x="385" y="944" on="1"/>
        <pt x="376" y="886" on="1"/>
        <pt x="969" y="886" on="1"/>
        <pt x="961" y="830" on="1"/>
        <pt x="368" y="830" on="1"/>
        <pt x="334" y="608" on="1"/>
        <pt x="927" y="608" on="1"/>
      </contour>
    </TTGlyph>
    <TTGlyph name="F" xMin="120" yMin="0" xMax="1240" yMax="1456">
      <contour>
        <pt x="1027" y="716" on="1"/>
        <pt x="281" y="716" on="1"/>
        <pt x="174" y="0" on="1"/>
        <pt x="120" y="0" on="1"/>
        <pt x="338" y="1456" on="1"/>
        <pt x="1240" y="1456" on="1"/>
        <pt x="1232" y="1402" on="1"/>
        <pt x="384" y="1402" on="1"/>
        <pt x="289" y="772" on="1"/>
        <pt x="1036" y="772" on="1"/>
      </contour>
    </TTGlyph>
    <TTGlyph name="F.smcp" xMin="101" yMin="0" xMax="1043" yMax="1165">
      <contour>
        <pt x="866" y="566" on="1"/>
        <pt x="240" y="566" on="1"/>
        <pt x="155" y="0" on="1"/>
        <pt x="101" y="0" on="1"/>
        <pt x="276" y="1165" on="1"/>
        <pt x="1043" y="1165" on="1"/>
        <pt x="1035" y="1111" on="1"/>
        <pt x="322" y="1111" on="1"/>
        <pt x="248" y="621" on="1"/>
        <pt x="874" y="621" on="1"/>
      </contour>
    </TTGlyph>
    <TTGlyph name="G" xMin="138" yMin="-21" xMax="1320" yMax="1477">
      <contour>
        <pt x="1169" y="156" on="1"/>
        <pt x="1115" y="92" on="0"/>
        <pt x="836" y="-21" on="0"/>
        <pt x="646" y="-21" on="1"/>
        <pt x="406" y="-21" on="0"/>
        <pt x="138" y="338" on="0"/>
        <pt x="181" y="620" on="1"/>
        <pt x="217" y="858" on="1"/>
        <pt x="259" y="1143" on="0"/>
        <pt x="609" y="1477" on="0"/>
        <pt x="854" y="1477" on="1"/>
        <pt x="1076" y="1477" on="0"/>
        <pt x="1320" y="1236" on="0"/>
        <pt x="1294" y="1049" on="1"/>
        <pt x="1292" y="1043" on="1"/>
        <pt x="1246" y="1043" on="1"/>
        <pt x="1264" y="1212" on="0"/>
        <pt x="1062" y="1423" on="0"/>
        <pt x="845" y="1423" on="1"/>
        <pt x="632" y="1423" on="0"/>
        <pt x="307" y="1105" on="0"/>
        <pt x="271" y="860" on="1"/>
        <pt x="235" y="620" on="1"/>
        <pt x="194" y="350" on="0"/>
        <pt x="422" y="33" on="0"/>
        <pt x="654" y="33" on="1"/>
        <pt x="808" y="33" on="0"/>
        <pt x="1071" y="128" on="0"/>
        <pt x="1119" y="181" on="1"/>
        <pt x="1183" y="605" on="1"/>
        <pt x="738" y="605" on="1"/>
        <pt x="746" y="660" on="1"/>
        <pt x="1245" y="660" on="1"/>
      </contour>
    </TTGlyph>
    <TTGlyph name="G.smcp" xMin="97" yMin="-17" xMax="1100" yMax="1181">
      <contour>
        <pt x="989" y="156" on="1"/>
        <pt x="939" y="94" on="0"/>
        <pt x="701" y="-17" on="0"/>
        <pt x="538" y="-17" on="1"/>
        <pt x="331" y="-17" on="0"/>
        <pt x="97" y="250" on="0"/>
        <pt x="129" y="461" on="1"/>
        <pt x="166" y="704" on="1"/>
        <pt x="198" y="924" on="0"/>
        <pt x="493" y="1181" on="0"/>
        <pt x="704" y="1181" on="1"/>
        <pt x="904" y="1181" on="0"/>
        <pt x="1100" y="1011" on="0"/>
        <pt x="1087" y="853" on="1"/>
        <pt x="1086" y="847" on="1"/>
        <pt x="1037" y="840" on="1"/>
        <pt x="1042" y="987" on="0"/>
        <pt x="890" y="1127" on="0"/>
        <pt x="696" y="1127" on="1"/>
        <pt x="516" y="1127" on="0"/>
        <pt x="247" y="888" on="0"/>
        <pt x="220" y="705" on="1"/>
        <pt x="183" y="461" on="1"/>
        <pt x="153" y="266" on="0"/>
        <pt x="351" y="38" on="0"/>
        <pt x="547" y="38" on="1"/>
        <pt x="687" y="38" on="0"/>
        <pt x="897" y="124" on="0"/>
        <pt x="938" y="177" on="1"/>
        <pt x="983" y="481" on="1"/>
        <pt x="653" y="481" on="1"/>
        <pt x="661" y="536" on="1"/>
        <pt x="1046" y="536" on="1"/>
      </contour>
    </TTGlyph>
    <TTGlyph name="Gamma" xMin="113" yMin="0" xMax="1193" yMax="1456">
      <contour>
        <pt x="1185" y="1402" on="1"/>
        <pt x="377" y="1402" on="1"/>
        <pt x="167" y="0" on="1"/>
        <pt x="113" y="0" on="1"/>
        <pt x="331" y="1456" on="1"/>
        <pt x="1193" y="1456" on="1"/>
      </contour>
    </TTGlyph>
    <TTGlyph name="Gbreve" xMin="138" yMin="-21" xMax="1320" yMax="1860">
      <component glyphName="G" x="0" y="0" flags="0x204"/>
      <component glyphName="breve" x="303" y="404" flags="0x4"/>
    </TTGlyph>
    <TTGlyph name="Gbreve.smcp" xMin="97" yMin="-17" xMax="1100" yMax="1532">
      <component glyphName="G.smcp" x="0" y="0" flags="0x204"/>
      <component glyphName="breve" x="128" y="76" flags="0x4"/>
    </TTGlyph>
    <TTGlyph name="Gcircumflex" xMin="138" yMin="-21" xMax="1320" yMax="1845">
      <component glyphName="G" x="0" y="0" flags="0x204"/>
      <component glyphName="circumflex" x="323" y="370" flags="0x4"/>
    </TTGlyph>
    <TTGlyph name="Gcircumflex.smcp" xMin="97" yMin="-17" xMax="1100" yMax="1517">
      <component glyphName="G.smcp" x="0" y="0" flags="0x204"/>
      <component glyphName="circumflex" x="148" y="42" flags="0x4"/>
    </TTGlyph>
    <TTGlyph name="Gcommaaccent" xMin="138" yMin="-446" xMax="1320" yMax="1477">
      <component glyphName="G" x="0" y="0" flags="0x204"/>
      <component glyphName="commaaccent" x="442" y="-271" flags="0x4"/>
    </TTGlyph>
    <TTGlyph name="Gcommaaccent.smcp" xMin="97" yMin="-446" xMax="1100" yMax="1181">
      <component glyphName="G.smcp" x="0" y="0" flags="0x204"/>
      <component glyphName="commaaccent" x="309" y="-271" flags="0x4"/>
    </TTGlyph>
    <TTGlyph name="H" xMin="120" yMin="0" xMax="1376" yMax="1456">
      <contour>
        <pt x="1158" y="0" on="1"/>
        <pt x="1104" y="0" on="1"/>
        <pt x="1208" y="695" on="1"/>
        <pt x="278" y="695" on="1"/>
        <pt x="174" y="0" on="1"/>
        <pt x="120" y="0" on="1"/>
        <pt x="338" y="1456" on="1"/>
        <pt x="392" y="1456" on="1"/>
        <pt x="286" y="749" on="1"/>
        <pt x="1216" y="749" on="1"/>
        <pt x="1322" y="1456" on="1"/>
        <pt x="1376" y="1456" on="1"/>
      </contour>
    </TTGlyph>
    <TTGlyph name="H.smcp" xMin="101" yMin="0" xMax="1147" yMax="1165">
      <contour>
        <pt x="972" y="0" on="1"/>
        <pt x="918" y="0" on="1"/>
        <pt x="1000" y="549" on="1"/>
        <pt x="237" y="549" on="1"/>
        <pt x="155" y="0" on="1"/>
        <pt x="101" y="0" on="1"/>
        <pt x="276" y="1165" on="1"/>
        <pt x="330" y="1165" on="1"/>
        <pt x="245" y="603" on="1"/>
        <pt x="1008" y="603" on="1"/>
        <pt x="1093" y="1165" on="1"/>
        <pt x="1147" y="1165" on="1"/>
      </contour>
    </TTGlyph>
    <TTGlyph name="Hbar" xMin="79" yMin="0" xMax="1434" yMax="1456">
      <contour>
        <pt x="1279" y="1081" on="1"/>
        <pt x="1434" y="1081" on="1"/>
        <pt x="1426" y="1028" on="1"/>
        <pt x="1271" y="1028" on="1"/>
        <pt x="1117" y="0" on="1"/>
        <pt x="1063" y="0" on="1"/>
        <pt x="1167" y="695" on="1"/>
        <pt x="237" y="695" on="1"/>
        <pt x="133" y="0" on="1"/>
        <pt x="79" y="0" on="1"/>
        <pt x="233" y="1028" on="1"/>
        <pt x="94" y="1028" on="1"/>
        <pt x="102" y="1081" on="1"/>
        <pt x="241" y="1081" on="1"/>
        <pt x="297" y="1456" on="1"/>
        <pt x="351" y="1456" on="1"/>
        <pt x="295" y="1081" on="1"/>
        <pt x="1225" y="1081" on="1"/>
        <pt x="1281" y="1456" on="1"/>
        <pt x="1335" y="1456" on="1"/>
      </contour>
      <contour>
        <pt x="245" y="749" on="1"/>
        <pt x="1175" y="749" on="1"/>
        <pt x="1217" y="1028" on="1"/>
        <pt x="287" y="1028" on="1"/>
      </contour>
    </TTGlyph>
    <TTGlyph name="Hcircumflex" xMin="120" yMin="0" xMax="1376" yMax="1824">
      <component glyphName="H" x="0" y="0" flags="0x204"/>
      <component glyphName="circumflex" x="366" y="349" flags="0x4"/>
    </TTGlyph>
    <TTGlyph name="Hcircumflex.smcp" xMin="101" yMin="0" xMax="1147" yMax="1501">
      <component glyphName="H.smcp" x="0" y="0" flags="0x204"/>
      <component glyphName="circumflex" x="184" y="26" flags="0x4"/>
    </TTGlyph>
    <TTGlyph name="I" xMin="160" yMin="0" xMax="432" yMax="1456">
      <contour>
        <pt x="214" y="0" on="1"/>
        <pt x="160" y="0" on="1"/>
        <pt x="378" y="1456" on="1"/>
        <pt x="432" y="1456" on="1"/>
      </contour>
    </TTGlyph>
    <TTGlyph name="I.smcp" xMin="101" yMin="0" xMax="330" yMax="1165">
      <contour>
        <pt x="155" y="0" on="1"/>
        <pt x="101" y="0" on="1"/>
        <pt x="276" y="1165" on="1"/>
        <pt x="330" y="1165" on="1"/>
      </contour>
    </TTGlyph>
    <TTGlyph name="IJ" xMin="160" yMin="-21" xMax="1602" yMax="1456">
      <component glyphName="I" x="0" y="0" flags="0x4"/>
      <component glyphName="J" x="534" y="0" flags="0x4"/>
    </TTGlyph>
    <TTGlyph name="Iacute" xMin="160" yMin="0" xMax="694" yMax="1822">
      <component glyphName="I" x="0" y="0" flags="0x204"/>
      <component glyphName="acute" x="154" y="344" flags="0x4"/>
    </TTGlyph>
    <TTGlyph name="Iacute.smcp" xMin="101" yMin="0" xMax="586" yMax="1499">
      <component glyphName="I.smcp" x="0" y="0" flags="0x204"/>
      <component glyphName="acute" x="46" y="21" flags="0x4"/>
    </TTGlyph>
    <TTGlyph name="Ibreve" xMin="160" yMin="0" xMax="725" yMax="1839">
      <component glyphName="I" x="0" y="0" flags="0x204"/>
      <component glyphName="breve" x="-101" y="383" flags="0x4"/>
    </TTGlyph>
    <TTGlyph name="Ibreve.smcp" xMin="53" yMin="0" xMax="618" yMax="1516">
      <component glyphName="I.smcp" x="0" y="0" flags="0x204"/>
      <component glyphName="breve" x="-208" y="60" flags="0x4"/>
    </TTGlyph>
    <TTGlyph name="Icircumflex" xMin="160" yMin="0" xMax="685" yMax="1824">
      <component glyphName="I" x="0" y="0" flags="0x204"/>
      <component glyphName="circumflex" x="-81" y="349" flags="0x4"/>
    </TTGlyph>
    <TTGlyph name="Icircumflex.smcp" xMin="72" yMin="0" xMax="578" yMax="1501">
      <component glyphName="I.smcp" x="0" y="0" flags="0x204"/>
      <component glyphName="circumflex" x="-188" y="26" flags="0x4"/>
    </TTGlyph>
    <TTGlyph name="Idieresis" xMin="136" yMin="0" xMax="759" yMax="1791">
      <component glyphName="I" x="0" y="0" flags="0x204"/>
      <component glyphName="dieresis" x="-131" y="335" flags="0x4"/>
    </TTGlyph>
    <TTGlyph name="Idieresis.smcp" xMin="29" yMin="0" xMax="652" yMax="1468">
      <component glyphName="I.smcp" x="0" y="0" flags="0x204"/>
      <component glyphName="dieresis" x="-238" y="12" flags="0x4"/>
    </TTGlyph>
    <TTGlyph name="Idotaccent" xMin="160" yMin="0" xMax="504" yMax="1805">
      <component glyphName="I" x="0" y="0" flags="0x204"/>
      <component glyphName="dotaccent" x="116" y="349" flags="0x4"/>
    </TTGlyph>
    <TTGlyph name="Idotaccent.smcp" xMin="101" yMin="0" xMax="397" yMax="1482">
      <component glyphName="I.smcp" x="0" y="0" flags="0x204"/>
      <component glyphName="dotaccent" x="9" y="26" flags="0x4"/>
    </TTGlyph>
    <TTGlyph name="Igrave" xMin="160" yMin="0" xMax="475" yMax="1828">
      <component glyphName="I" x="0" y="0" flags="0x204"/>
      <component glyphName="grave" x="-38" y="352" flags="0x4"/>
    </TTGlyph>
    <TTGlyph name="Igrave.smcp" xMin="84" yMin="0" xMax="367" yMax="1505">
      <component glyphName="I.smcp" x="0" y="0" flags="0x204"/>
      <component glyphName="grave" x="-146" y="29" flags="0x4"/>
    </TTGlyph>
    <TTGlyph name="Imacron" xMin="118" yMin="0" xMax="753" yMax="1786">
      <component glyphName="I" x="0" y="0" flags="0x204"/>
      <component glyphName="macron" x="-95" y="330" flags="0x4"/>
    </TTGlyph>
    <TTGlyph name="Imacron.smcp" xMin="11" yMin="0" xMax="646" yMax="1463">
      <component glyphName="I.smcp" x="0" y="0" flags="0x204"/>
      <component glyphName="macron" x="-202" y="7" flags="0x4"/>
    </TTGlyph>
    <TTGlyph name="Iogonek" xMin="-40" yMin="-357" xMax="432" yMax="1456">
      <component glyphName="I" x="0" y="0" flags="0x204"/>
      <component glyphName="ogonek" x="-28" y="0" flags="0x4"/>
    </TTGlyph>
    <TTGlyph name="Iogonek.smcp" xMin="-51" yMin="-357" xMax="330" yMax="1165">
      <component glyphName="I.smcp" x="0" y="0" flags="0x204"/>
      <component glyphName="ogonek" x="-39" y="0" flags="0x4"/>
    </TTGlyph>
    <TTGlyph name="Iota" xMin="160" yMin="0" xMax="432" yMax="1456">
      <component glyphName="I" x="0" y="0" flags="0x204"/>
    </TTGlyph>
    <TTGlyph name="Iotadieresis" xMin="136" yMin="0" xMax="759" yMax="1791">
      <component glyphName="I" x="0" y="0" flags="0x204"/>
      <component glyphName="dieresis" x="-131" y="335" flags="0x4"/>
    </TTGlyph>
    <TTGlyph name="Iotatonos" xMin="154" yMin="0" xMax="532" yMax="1564">
      <component glyphName="I" x="100" y="0" flags="0x4"/>
      <component glyphName="tonos" x="-151" y="-4" flags="0x4"/>
    </TTGlyph>
    <TTGlyph name="Itilde" xMin="81" yMin="0" xMax="746" yMax="1811">
      <component glyphName="I" x="0" y="0" flags="0x204"/>
      <component glyphName="tilde" x="-99" y="329" flags="0x4"/>
    </TTGlyph>
    <TTGlyph name="Itilde.smcp" xMin="-26" yMin="0" xMax="639" yMax="1488">
      <component glyphName="I.smcp" x="0" y="0" flags="0x204"/>
      <component glyphName="tilde" x="-206" y="6" flags="0x4"/>
    </TTGlyph>
    <TTGlyph name="J" xMin="40" yMin="-21" xMax="1068" yMax="1456">
      <contour>
        <pt x="1014" y="1456" on="1"/>
        <pt x="1068" y="1456" on="1"/>
        <pt x="913" y="422" on="1"/>
        <pt x="881" y="211" on="0"/>
        <pt x="621" y="-21" on="0"/>
        <pt x="438" y="-21" on="1"/>
        <pt x="246" y="-21" on="0"/>
        <pt x="40" y="193" on="0"/>
        <pt x="75" y="396" on="1"/>
        <pt x="77" y="401" on="1"/>
        <pt x="124" y="401" on="1"/>
        <pt x="96" y="216" on="0"/>
        <pt x="261" y="33" on="0"/>
        <pt x="446" y="33" on="1"/>
        <pt x="594" y="33" on="0"/>
        <pt x="832" y="245" on="0"/>
        <pt x="859" y="422" on="1"/>
      </contour>
    </TTGlyph>
    <TTGlyph name="J.smcp" xMin="35" yMin="-17" xMax="912" yMax="1165">
      <contour>
        <pt x="856" y="1165" on="1"/>
        <pt x="912" y="1165" on="1"/>
        <pt x="788" y="337" on="1"/>
        <pt x="762" y="169" on="0"/>
        <pt x="536" y="-17" on="0"/>
        <pt x="380" y="-17" on="1"/>
        <pt x="215" y="-17" on="0"/>
        <pt x="35" y="154" on="0"/>
        <pt x="64" y="314" on="1"/>
        <pt x="67" y="320" on="1"/>
        <pt x="113" y="320" on="1"/>
        <pt x="90" y="169" on="0"/>
        <pt x="230" y="38" on="0"/>
        <pt x="389" y="38" on="1"/>
        <pt x="513" y="38" on="0"/>
        <pt x="710" y="200" on="0"/>
        <pt x="732" y="337" on="1"/>
      </contour>
    </TTGlyph>
    <TTGlyph name="Jcircumflex" xMin="40" yMin="-21" xMax="1314" yMax="1794">
      <component glyphName="J" x="0" y="0" flags="0x204"/>
      <component glyphName="circumflex" x="548" y="319" flags="0x4"/>
    </TTGlyph>
    <TTGlyph name="Jcircumflex.smcp" xMin="35" yMin="-17" xMax="1144" yMax="1478">
      <component glyphName="J.smcp" x="0" y="0" flags="0x204"/>
      <component glyphName="circumflex" x="378" y="3" flags="0x4"/>
    </TTGlyph>
    <TTGlyph name="K" xMin="101" yMin="0" xMax="1265" yMax="1456">
      <contour>
        <pt x="503" y="721" on="1"/>
        <pt x="263" y="721" on="1"/>
        <pt x="155" y="0" on="1"/>
        <pt x="101" y="0" on="1"/>
        <pt x="319" y="1456" on="1"/>
        <pt x="373" y="1456" on="1"/>
        <pt x="271" y="774" on="1"/>
        <pt x="513" y="774" on="1"/>
        <pt x="1195" y="1456" on="1"/>
        <pt x="1263" y="1456" on="1"/>
        <pt x="1265" y="1450" on="1"/>
        <pt x="557" y="740" on="1"/>
        <pt x="1088" y="0" on="1"/>
        <pt x="1020" y="0" on="1"/>
      </contour>
    </TTGlyph>
    <TTGlyph name="K.smcp" xMin="101" yMin="0" xMax="1059" yMax="1165">
      <contour>
        <pt x="407" y="571" on="1"/>
        <pt x="241" y="571" on="1"/>
        <pt x="155" y="0" on="1"/>
        <pt x="101" y="0" on="1"/>
        <pt x="276" y="1165" on="1"/>
        <pt x="330" y="1165" on="1"/>
        <pt x="249" y="625" on="1"/>
        <pt x="427" y="625" on="1"/>
        <pt x="998" y="1165" on="1"/>
        <pt x="1057" y="1165" on="1"/>
        <pt x="1059" y="1159" on="1"/>
        <pt x="470" y="593" on="1"/>
        <pt x="949" y="5" on="1"/>
        <pt x="946" y="0" on="1"/>
        <pt x="882" y="0" on="1"/>
      </contour>
    </TTGlyph>
    <TTGlyph name="Kappa" xMin="101" yMin="0" xMax="1265" yMax="1456">
      <component glyphName="K" x="0" y="0" flags="0x4"/>
    </TTGlyph>
    <TTGlyph name="Kcommaaccent" xMin="101" yMin="-438" xMax="1265" yMax="1456">
      <component glyphName="K" x="0" y="0" flags="0x4"/>
      <component glyphName="commaaccent" x="337" y="-263" flags="0x4"/>
    </TTGlyph>
    <TTGlyph name="Kcommaaccent.smcp" xMin="101" yMin="-440" xMax="1059" yMax="1165">
      <component glyphName="K.smcp" x="0" y="0" flags="0x204"/>
      <component glyphName="commaaccent" x="227" y="-265" flags="0x4"/>
    </TTGlyph>
    <TTGlyph name="L" xMin="120" yMin="0" xMax="930" yMax="1456">
      <contour>
        <pt x="183" y="54" on="1"/>
        <pt x="930" y="54" on="1"/>
        <pt x="922" y="0" on="1"/>
        <pt x="120" y="0" on="1"/>
        <pt x="338" y="1456" on="1"/>
        <pt x="393" y="1456" on="1"/>
      </contour>
    </TTGlyph>
    <TTGlyph name="L.smcp" xMin="101" yMin="0" xMax="786" yMax="1165">
      <contour>
        <pt x="163" y="54" on="1"/>
        <pt x="786" y="54" on="1"/>
        <pt x="778" y="0" on="1"/>
        <pt x="101" y="0" on="1"/>
        <pt x="276" y="1165" on="1"/>
        <pt x="330" y="1165" on="1"/>
      </contour>
    </TTGlyph>
    <TTGlyph name="Lacute" xMin="120" yMin="0" xMax="930" yMax="1759">
      <component glyphName="L" x="0" y="0" flags="0x204"/>
      <component glyphName="acute" x="108" y="281" flags="0x4"/>
    </TTGlyph>
    <TTGlyph name="Lacute.smcp" xMin="101" yMin="0" xMax="786" yMax="1450">
      <component glyphName="L.smcp" x="0" y="0" flags="0x204"/>
      <component glyphName="acute" x="0" y="-28" flags="0x4"/>
    </TTGlyph>
    <TTGlyph name="Lambda" xMin="7" yMin="0" xMax="1141" yMax="1456">
      <contour>
        <pt x="66" y="0" on="1"/>
        <pt x="7" y="0" on="1"/>
        <pt x="759" y="1456" on="1"/>
        <pt x="824" y="1456" on="1"/>
        <pt x="1141" y="0" on="1"/>
        <pt x="1082" y="0" on="1"/>
        <pt x="799" y="1304" on="1"/>
        <pt x="784" y="1387" on="1"/>
        <pt x="778" y="1388" on="1"/>
        <pt x="739" y="1304" on="1"/>
      </contour>
    </TTGlyph>
    <TTGlyph name="Lcaron" xMin="120" yMin="0" xMax="930" yMax="1456">
      <component glyphName="L" x="0" y="0" flags="0x204"/>
      <component glyphName="commaaccent" x="590" y="1339" flags="0x4"/>
    </TTGlyph>
    <TTGlyph name="Lcaron.smcp" xMin="101" yMin="0" xMax="786" yMax="1165">
      <component glyphName="L.smcp" x="0" y="0" flags="0x204"/>
      <component glyphName="commaaccent" x="417" y="1048" flags="0x4"/>
    </TTGlyph>
    <TTGlyph name="Lcommaaccent" xMin="120" yMin="-436" xMax="930" yMax="1456">
      <component glyphName="L" x="0" y="0" flags="0x204"/>
      <component glyphName="commaaccent" x="340" y="-261" flags="0x4"/>
    </TTGlyph>
    <TTGlyph name="Lcommaaccent.smcp" xMin="101" yMin="-438" xMax="786" yMax="1165">
      <component glyphName="L.smcp" x="0" y="0" flags="0x204"/>
      <component glyphName="commaaccent" x="199" y="-263" flags="0x4"/>
    </TTGlyph>
    <TTGlyph name="Ldot" xMin="120" yMin="0" xMax="930" yMax="1456">
      <component glyphName="L" x="0" y="0" flags="0x204"/>
      <component glyphName="dotaccent" x="354" y="-631" flags="0x4"/>
    </TTGlyph>
    <TTGlyph name="Ldot.smcp" xMin="101" yMin="0" xMax="786" yMax="1165">
      <component glyphName="L.smcp" x="0" y="0" flags="0x204"/>
      <component glyphName="dotaccent" x="196" y="-782" flags="0x4"/>
    </TTGlyph>
    <TTGlyph name="Lslash" xMin="27" yMin="0" xMax="922" yMax="1456">
      <contour>
        <pt x="285" y="791" on="1"/>
        <pt x="653" y="902" on="1"/>
        <pt x="645" y="845" on="1"/>
        <pt x="277" y="733" on="1"/>
        <pt x="175" y="54" on="1"/>
        <pt x="922" y="54" on="1"/>
        <pt x="914" y="0" on="1"/>
        <pt x="112" y="0" on="1"/>
        <pt x="219" y="716" on="1"/>
        <pt x="27" y="658" on="1"/>
        <pt x="35" y="715" on="1"/>
        <pt x="227" y="773" on="1"/>
        <pt x="330" y="1456" on="1"/>
        <pt x="385" y="1456" on="1"/>
      </contour>
    </TTGlyph>
    <TTGlyph name="M" xMin="120" yMin="0" xMax="1694" yMax="1456">
      <contour>
        <pt x="415" y="1456" on="1"/>
        <pt x="806" y="86" on="1"/>
        <pt x="812" y="86" on="1"/>
        <pt x="1615" y="1456" on="1"/>
        <pt x="1694" y="1456" on="1"/>
        <pt x="1476" y="0" on="1"/>
        <pt x="1422" y="0" on="1"/>
        <pt x="1527" y="703" on="1"/>
        <pt x="1626" y="1360" on="1"/>
        <pt x="1620" y="1362" on="1"/>
        <pt x="818" y="0" on="1"/>
        <pt x="775" y="0" on="1"/>
        <pt x="383" y="1356" on="1"/>
        <pt x="377" y="1355" on="1"/>
        <pt x="279" y="703" on="1"/>
        <pt x="174" y="0" on="1"/>
        <pt x="120" y="0" on="1"/>
        <pt x="338" y="1456" on="1"/>
      </contour>
    </TTGlyph>
    <TTGlyph name="M.smcp" xMin="101" yMin="0" xMax="1399" yMax="1165">
      <contour>
        <pt x="677" y="89" on="1"/>
        <pt x="683" y="88" on="1"/>
        <pt x="1334" y="1165" on="1"/>
        <pt x="1399" y="1165" on="1"/>
        <pt x="1224" y="0" on="1"/>
        <pt x="1169" y="0" on="1"/>
        <pt x="1325" y="1038" on="1"/>
        <pt x="1319" y="1040" on="1"/>
        <pt x="688" y="0" on="1"/>
        <pt x="646" y="0" on="1"/>
        <pt x="321" y="1066" on="1"/>
        <pt x="315" y="1066" on="1"/>
        <pt x="155" y="0" on="1"/>
        <pt x="101" y="0" on="1"/>
        <pt x="276" y="1165" on="1"/>
        <pt x="350" y="1165" on="1"/>
      </contour>
    </TTGlyph>
    <TTGlyph name="Mu" xMin="120" yMin="0" xMax="1694" yMax="1456">
      <component glyphName="M" x="0" y="0" flags="0x204"/>
    </TTGlyph>
    <TTGlyph name="N" xMin="120" yMin="0" xMax="1387" yMax="1456">
      <contour>
        <pt x="1169" y="0" on="1"/>
        <pt x="1115" y="0" on="1"/>
        <pt x="384" y="1356" on="1"/>
        <pt x="378" y="1355" on="1"/>
        <pt x="175" y="0" on="1"/>
        <pt x="120" y="0" on="1"/>
        <pt x="338" y="1456" on="1"/>
        <pt x="393" y="1456" on="1"/>
        <pt x="1124" y="102" on="1"/>
        <pt x="1130" y="103" on="1"/>
        <pt x="1333" y="1456" on="1"/>
        <pt x="1387" y="1456" on="1"/>
      </contour>
    </TTGlyph>
    <TTGlyph name="N.smcp" xMin="101" yMin="0" xMax="1188" yMax="1165">
      <contour>
        <pt x="1013" y="0" on="1"/>
        <pt x="959" y="0" on="1"/>
        <pt x="321" y="1066" on="1"/>
        <pt x="315" y="1065" on="1"/>
        <pt x="155" y="0" on="1"/>
        <pt x="101" y="0" on="1"/>
        <pt x="276" y="1165" on="1"/>
        <pt x="330" y="1165" on="1"/>
        <pt x="967" y="99" on="1"/>
        <pt x="973" y="100" on="1"/>
        <pt x="1134" y="1165" on="1"/>
        <pt x="1188" y="1165" on="1"/>
      </contour>
    </TTGlyph>
    <TTGlyph name="Nacute" xMin="120" yMin="0" xMax="1387" yMax="1822">
      <component glyphName="N" x="0" y="0" flags="0x204"/>
      <component glyphName="acute" x="612" y="344" flags="0x4"/>
    </TTGlyph>
    <TTGlyph name="Nacute.smcp" xMin="101" yMin="0" xMax="1188" yMax="1499">
      <component glyphName="N.smcp" x="0" y="0" flags="0x204"/>
      <component glyphName="acute" x="450" y="21" flags="0x4"/>
    </TTGlyph>
    <TTGlyph name="Ncaron" xMin="120" yMin="0" xMax="1387" yMax="1827">
      <component glyphName="N" x="0" y="0" flags="0x204"/>
      <component glyphName="caron" x="392" y="352" flags="0x4"/>
    </TTGlyph>
    <TTGlyph name="Ncaron.smcp" xMin="101" yMin="0" xMax="1188" yMax="1504">
      <component glyphName="N.smcp" x="0" y="0" flags="0x204"/>
      <component glyphName="caron" x="230" y="29" flags="0x4"/>
    </TTGlyph>
    <TTGlyph name="Ncommaaccent" xMin="120" yMin="-436" xMax="1387" yMax="1456">
      <component glyphName="N" x="0" y="0" flags="0x204"/>
      <component glyphName="commaaccent" x="441" y="-261" flags="0x4"/>
    </TTGlyph>
    <TTGlyph name="Ncommaaccent.smcp" xMin="101" yMin="-438" xMax="1188" yMax="1165">
      <component glyphName="N.smcp" x="0" y="0" flags="0x204"/>
      <component glyphName="commaaccent" x="327" y="-263" flags="0x4"/>
    </TTGlyph>
    <TTGlyph name="Ntilde" xMin="120" yMin="0" xMax="1387" yMax="1811">
      <component glyphName="N" x="0" y="0" flags="0x204"/>
      <component glyphName="tilde" x="358" y="329" flags="0x4"/>
    </TTGlyph>
    <TTGlyph name="Ntilde.smcp" xMin="101" yMin="0" xMax="1188" yMax="1488">
      <component glyphName="N.smcp" x="0" y="0" flags="0x204"/>
      <component glyphName="tilde" x="197" y="6" flags="0x4"/>
    </TTGlyph>
    <TTGlyph name="Nu" xMin="120" yMin="0" xMax="1387" yMax="1456">
      <component glyphName="N" x="0" y="0" flags="0x204"/>
    </TTGlyph>
    <TTGlyph name="O" xMin="102" yMin="-21" xMax="1320" yMax="1477">
      <contour>
        <pt x="1244" y="619" on="1"/>
        <pt x="1198" y="313" on="0"/>
        <pt x="859" y="-21" on="0"/>
        <pt x="600" y="-21" on="1"/>
        <pt x="353" y="-21" on="0"/>
        <pt x="102" y="328" on="0"/>
        <pt x="146" y="619" on="1"/>
        <pt x="179" y="837" on="1"/>
        <pt x="224" y="1142" on="0"/>
        <pt x="563" y="1477" on="0"/>
        <pt x="823" y="1477" on="1"/>
        <pt x="1070" y="1477" on="0"/>
        <pt x="1320" y="1128" on="0"/>
        <pt x="1277" y="837" on="1"/>
      </contour>
      <contour>
        <pt x="1223" y="839" on="1"/>
        <pt x="1264" y="1118" on="0"/>
        <pt x="1055" y="1423" on="0"/>
        <pt x="814" y="1423" on="1"/>
        <pt x="586" y="1423" on="0"/>
        <pt x="274" y="1104" on="0"/>
        <pt x="234" y="839" on="1"/>
        <pt x="201" y="619" on="1"/>
        <pt x="158" y="338" on="0"/>
        <pt x="368" y="33" on="0"/>
        <pt x="608" y="33" on="1"/>
        <pt x="837" y="33" on="0"/>
        <pt x="1149" y="352" on="0"/>
        <pt x="1190" y="619" on="1"/>
      </contour>
    </TTGlyph>
    <TTGlyph name="O.smcp" xMin="95" yMin="-17" xMax="1124" yMax="1181">
      <contour>
        <pt x="1055" y="461" on="1"/>
        <pt x="1020" y="231" on="0"/>
        <pt x="731" y="-17" on="0"/>
        <pt x="521" y="-17" on="1"/>
        <pt x="318" y="-17" on="0"/>
        <pt x="95" y="242" on="0"/>
        <pt x="129" y="461" on="1"/>
        <pt x="166" y="704" on="1"/>
        <pt x="199" y="933" on="0"/>
        <pt x="487" y="1181" on="0"/>
        <pt x="699" y="1181" on="1"/>
        <pt x="899" y="1181" on="0"/>
        <pt x="1124" y="921" on="0"/>
        <pt x="1092" y="704" on="1"/>
      </contour>
      <contour>
        <pt x="1038" y="705" on="1"/>
        <pt x="1070" y="919" on="0"/>
        <pt x="886" y="1127" on="0"/>
        <pt x="691" y="1127" on="1"/>
        <pt x="506" y="1127" on="0"/>
        <pt x="250" y="909" on="0"/>
        <pt x="220" y="705" on="1"/>
        <pt x="183" y="461" on="1"/>
        <pt x="151" y="246" on="0"/>
        <pt x="335" y="38" on="0"/>
        <pt x="530" y="38" on="1"/>
        <pt x="714" y="38" on="0"/>
        <pt x="970" y="255" on="0"/>
        <pt x="1001" y="461" on="1"/>
      </contour>
    </TTGlyph>
    <TTGlyph name="OE" xMin="78" yMin="-21" xMax="1927" yMax="1477">
      <contour>
        <pt x="1709" y="0" on="1"/>
        <pt x="881" y="0" on="1"/>
        <pt x="777" y="-10" on="0"/>
        <pt x="625" y="-21" on="0"/>
        <pt x="548" y="-21" on="1"/>
        <pt x="326" y="-21" on="0"/>
        <pt x="78" y="314" on="0"/>
        <pt x="118" y="576" on="1"/>
        <pt x="164" y="880" on="1"/>
        <pt x="205" y="1155" on="0"/>
        <pt x="538" y="1477" on="0"/>
        <pt x="771" y="1477" on="1"/>
        <pt x="847" y="1477" on="0"/>
        <pt x="1013" y="1465" on="0"/>
        <pt x="1099" y="1456" on="1"/>
        <pt x="1927" y="1456" on="1"/>
        <pt x="1919" y="1402" on="1"/>
        <pt x="1087" y="1402" on="1"/>
        <pt x="994" y="786" on="1"/>
        <pt x="1725" y="786" on="1"/>
        <pt x="1717" y="732" on="1"/>
        <pt x="986" y="732" on="1"/>
        <pt x="885" y="54" on="1"/>
        <pt x="1717" y="54" on="1"/>
      </contour>
      <contour>
        <pt x="556" y="33" on="1"/>
        <pt x="626" y="33" on="0"/>
        <pt x="769" y="38" on="0"/>
        <pt x="830" y="45" on="1"/>
        <pt x="1034" y="1411" on="1"/>
        <pt x="975" y="1417" on="0"/>
        <pt x="839" y="1423" on="0"/>
        <pt x="762" y="1423" on="1"/>
        <pt x="559" y="1423" on="0"/>
        <pt x="254" y="1122" on="0"/>
        <pt x="218" y="882" on="1"/>
        <pt x="172" y="576" on="1"/>
        <pt x="135" y="327" on="0"/>
        <pt x="344" y="33" on="0"/>
      </contour>
    </TTGlyph>
    <TTGlyph name="Oacute" xMin="102" yMin="-21" xMax="1320" yMax="1843">
      <component glyphName="O" x="0" y="0" flags="0x204"/>
      <component glyphName="acute" x="565" y="365" flags="0x4"/>
    </TTGlyph>
    <TTGlyph name="Oacute.smcp" xMin="95" yMin="-17" xMax="1124" yMax="1515">
      <component glyphName="O.smcp" x="0" y="0" flags="0x204"/>
      <component glyphName="acute" x="417" y="37" flags="0x4"/>
    </TTGlyph>
    <TTGlyph name="Obreve" xMin="102" yMin="-21" xMax="1320" yMax="1860">
      <component glyphName="O" x="0" y="0" flags="0x204"/>
      <component glyphName="breve" x="310" y="404" flags="0x4"/>
    </TTGlyph>
    <TTGlyph name="Obreve.smcp" xMin="95" yMin="-17" xMax="1124" yMax="1532">
      <component glyphName="O.smcp" x="0" y="0" flags="0x204"/>
      <component glyphName="breve" x="161" y="76" flags="0x4"/>
    </TTGlyph>
    <TTGlyph name="Ocircumflex" xMin="102" yMin="-21" xMax="1320" yMax="1845">
      <component glyphName="O" x="0" y="0" flags="0x204"/>
      <component glyphName="circumflex" x="330" y="370" flags="0x4"/>
    </TTGlyph>
    <TTGlyph name="Ocircumflex.smcp" xMin="95" yMin="-17" xMax="1124" yMax="1517">
      <component glyphName="O.smcp" x="0" y="0" flags="0x204"/>
      <component glyphName="circumflex" x="181" y="42" flags="0x4"/>
    </TTGlyph>
    <TTGlyph name="Odieresis" xMin="102" yMin="-21" xMax="1320" yMax="1812">
      <component glyphName="O" x="0" y="0" flags="0x204"/>
      <component glyphName="dieresis" x="279" y="356" flags="0x4"/>
    </TTGlyph>
    <TTGlyph name="Odieresis.smcp" xMin="95" yMin="-17" xMax="1124" yMax="1484">
      <component glyphName="O.smcp" x="0" y="0" flags="0x204"/>
      <component glyphName="dieresis" x="131" y="28" flags="0x4"/>
    </TTGlyph>
    <TTGlyph name="Ograve" xMin="102" yMin="-21" xMax="1320" yMax="1849">
      <component glyphName="O" x="0" y="0" flags="0x204"/>
      <component glyphName="grave" x="372" y="373" flags="0x4"/>
    </TTGlyph>
    <TTGlyph name="Ograve.smcp" xMin="95" yMin="-17" xMax="1124" yMax="1521">
      <component glyphName="O.smcp" x="0" y="0" flags="0x204"/>
      <component glyphName="grave" x="224" y="45" flags="0x4"/>
    </TTGlyph>
    <TTGlyph name="Ohorn" xMin="133" yMin="-21" xMax="1684" yMax="1601">
      <contour>
        <pt x="1275" y="619" on="1"/>
        <pt x="1229" y="313" on="0"/>
        <pt x="890" y="-21" on="0"/>
        <pt x="631" y="-21" on="1"/>
        <pt x="384" y="-21" on="0"/>
        <pt x="133" y="328" on="0"/>
        <pt x="177" y="619" on="1"/>
        <pt x="210" y="837" on="1"/>
        <pt x="255" y="1142" on="0"/>
        <pt x="594" y="1477" on="0"/>
        <pt x="854" y="1477" on="1"/>
        <pt x="997" y="1477" on="0"/>
        <pt x="1208" y="1352" on="0"/>
        <pt x="1264" y="1238" on="1"/>
        <pt x="1414" y="1241" on="0"/>
        <pt x="1608" y="1429" on="0"/>
        <pt x="1635" y="1601" on="1"/>
        <pt x="1681" y="1601" on="1"/>
        <pt x="1684" y="1595" on="1"/>
        <pt x="1657" y="1401" on="0"/>
        <pt x="1451" y="1196" on="0"/>
        <pt x="1285" y="1185" on="1"/>
        <pt x="1310" y="1112" on="0"/>
        <pt x="1322" y="936" on="0"/>
        <pt x="1308" y="837" on="1"/>
      </contour>
      <contour>
        <pt x="1254" y="839" on="1"/>
        <pt x="1295" y="1118" on="0"/>
        <pt x="1086" y="1423" on="0"/>
        <pt x="845" y="1423" on="1"/>
        <pt x="617" y="1423" on="0"/>
        <pt x="305" y="1104" on="0"/>
        <pt x="265" y="839" on="1"/>
        <pt x="232" y="619" on="1"/>
        <pt x="189" y="338" on="0"/>
        <pt x="399" y="33" on="0"/>
        <pt x="639" y="33" on="1"/>
        <pt x="868" y="33" on="0"/>
        <pt x="1180" y="352" on="0"/>
        <pt x="1221" y="619" on="1"/>
      </contour>
    </TTGlyph>
    <TTGlyph name="Ohungarumlaut" xMin="102" yMin="-21" xMax="1320" yMax="1888">
      <component glyphName="O" x="0" y="0" flags="0x204"/>
      <component glyphName="hungarumlaut" x="396" y="370" flags="0x4"/>
    </TTGlyph>
    <TTGlyph name="Ohungarumlaut.smcp" xMin="95" yMin="-17" xMax="1140" yMax="1560">
      <component glyphName="O.smcp" x="0" y="0" flags="0x204"/>
      <component glyphName="hungarumlaut" x="247" y="42" flags="0x4"/>
    </TTGlyph>
    <TTGlyph name="Omacron" xMin="102" yMin="-21" xMax="1320" yMax="1807">
      <component glyphName="O" x="0" y="0" flags="0x204"/>
      <component glyphName="macron" x="316" y="351" flags="0x4"/>
    </TTGlyph>
    <TTGlyph name="Omacron.smcp" xMin="95" yMin="-17" xMax="1124" yMax="1479">
      <component glyphName="O.smcp" x="0" y="0" flags="0x204"/>
      <component glyphName="macron" x="167" y="23" flags="0x4"/>
    </TTGlyph>
    <TTGlyph name="Omega" xMin="42" yMin="0" xMax="1263" yMax="1477">
      <contour>
        <pt x="689" y="54" on="1"/>
        <pt x="693" y="78" on="1"/>
        <pt x="858" y="155" on="0"/>
        <pt x="1109" y="461" on="0"/>
        <pt x="1150" y="732" on="1"/>
        <pt x="1168" y="851" on="1"/>
        <pt x="1205" y="1105" on="0"/>
        <pt x="999" y="1423" on="0"/>
        <pt x="788" y="1423" on="1"/>
        <pt x="587" y="1423" on="0"/>
        <pt x="276" y="1093" on="0"/>
        <pt x="240" y="851" on="1"/>
        <pt x="222" y="732" on="1"/>
        <pt x="179" y="449" on="0"/>
        <pt x="341" y="157" on="0"/>
        <pt x="489" y="78" on="1"/>
        <pt x="480" y="19" on="1"/>
        <pt x="477" y="0" on="1"/>
        <pt x="42" y="0" on="1"/>
        <pt x="50" y="54" on="1"/>
        <pt x="417" y="54" on="1"/>
        <pt x="278" y="141" on="0"/>
        <pt x="128" y="472" on="0"/>
        <pt x="168" y="732" on="1"/>
        <pt x="185" y="849" on="1"/>
        <pt x="229" y="1142" on="0"/>
        <pt x="562" y="1477" on="0"/>
        <pt x="797" y="1477" on="1"/>
        <pt x="1019" y="1477" on="0"/>
        <pt x="1263" y="1128" on="0"/>
        <pt x="1221" y="849" on="1"/>
        <pt x="1204" y="732" on="1"/>
        <pt x="1163" y="462" on="0"/>
        <pt x="921" y="141" on="0"/>
        <pt x="757" y="54" on="1"/>
        <pt x="1123" y="54" on="1"/>
        <pt x="1115" y="0" on="1"/>
        <pt x="681" y="0" on="1"/>
      </contour>
    </TTGlyph>
    <TTGlyph name="Omegatonos" xMin="62" yMin="0" xMax="1283" yMax="1567">
      <component glyphName="Omega" x="20" y="0" flags="0x4"/>
      <component glyphName="tonos" x="-79" y="-1" flags="0x4"/>
    </TTGlyph>
    <TTGlyph name="Omicron" xMin="102" yMin="-21" xMax="1320" yMax="1477">
      <component glyphName="O" x="0" y="0" flags="0x204"/>
    </TTGlyph>
    <TTGlyph name="Omicrontonos" xMin="122" yMin="-21" xMax="1340" yMax="1567">
      <component glyphName="O" x="20" y="0" flags="0x4"/>
      <component glyphName="tonos" x="-139" y="-1" flags="0x4"/>
    </TTGlyph>
    <TTGlyph name="Oslash" xMin="97" yMin="-75" xMax="1395" yMax="1495">
      <contour>
        <pt x="1244" y="619" on="1"/>
        <pt x="1198" y="313" on="0"/>
        <pt x="859" y="-21" on="0"/>
        <pt x="600" y="-21" on="1"/>
        <pt x="505" y="-21" on="0"/>
        <pt x="347" y="32" on="0"/>
        <pt x="289" y="85" on="1"/>
        <pt x="163" y="-75" on="1"/>
        <pt x="97" y="-75" on="1"/>
        <pt x="252" y="122" on="1"/>
        <pt x="177" y="207" on="0"/>
        <pt x="121" y="460" on="0"/>
        <pt x="146" y="619" on="1"/>
        <pt x="179" y="837" on="1"/>
        <pt x="224" y="1142" on="0"/>
        <pt x="563" y="1477" on="0"/>
        <pt x="823" y="1477" on="1"/>
        <pt x="940" y="1477" on="0"/>
        <pt x="1126" y="1392" on="0"/>
        <pt x="1187" y="1314" on="1"/>
        <pt x="1329" y="1495" on="1"/>
        <pt x="1395" y="1495" on="1"/>
        <pt x="1217" y="1268" on="1"/>
        <pt x="1264" y="1185" on="0"/>
        <pt x="1296" y="966" on="0"/>
        <pt x="1277" y="837" on="1"/>
      </contour>
      <contour>
        <pt x="201" y="619" on="1"/>
        <pt x="177" y="467" on="0"/>
        <pt x="218" y="237" on="0"/>
        <pt x="281" y="168" on="1"/>
        <pt x="287" y="167" on="1"/>
        <pt x="1156" y="1275" on="1"/>
        <pt x="1103" y="1347" on="0"/>
        <pt x="932" y="1423" on="0"/>
        <pt x="814" y="1423" on="1"/>
        <pt x="586" y="1423" on="0"/>
        <pt x="274" y="1104" on="0"/>
        <pt x="234" y="839" on="1"/>
      </contour>
      <contour>
        <pt x="1223" y="839" on="1"/>
        <pt x="1240" y="958" on="0"/>
        <pt x="1222" y="1153" on="0"/>
        <pt x="1186" y="1220" on="1"/>
        <pt x="1180" y="1222" on="1"/>
        <pt x="319" y="124" on="1"/>
        <pt x="370" y="78" on="0"/>
        <pt x="516" y="33" on="0"/>
        <pt x="608" y="33" on="1"/>
        <pt x="837" y="33" on="0"/>
        <pt x="1149" y="352" on="0"/>
        <pt x="1190" y="619" on="1"/>
      </contour>
    </TTGlyph>
    <TTGlyph name="Oslashacute" xMin="97" yMin="-75" xMax="1395" yMax="1884">
      <component glyphName="Oslash" x="0" y="0" flags="0x204"/>
      <component glyphName="acute" x="607" y="406" flags="0x4"/>
    </TTGlyph>
    <TTGlyph name="Otilde" xMin="102" yMin="-21" xMax="1320" yMax="1832">
      <component glyphName="O" x="0" y="0" flags="0x204"/>
      <component glyphName="tilde" x="312" y="350" flags="0x4"/>
    </TTGlyph>
    <TTGlyph name="Otilde.smcp" xMin="95" yMin="-17" xMax="1124" yMax="1504">
      <component glyphName="O.smcp" x="0" y="0" flags="0x204"/>
      <component glyphName="tilde" x="163" y="22" flags="0x4"/>
    </TTGlyph>
    <TTGlyph name="P" xMin="120" yMin="0" xMax="1229" yMax="1456">
      <contour>
        <pt x="267" y="625" on="1"/>
        <pt x="174" y="0" on="1"/>
        <pt x="120" y="0" on="1"/>
        <pt x="338" y="1456" on="1"/>
        <pt x="793" y="1456" on="1"/>
        <pt x="1011" y="1456" on="0"/>
        <pt x="1229" y="1226" on="0"/>
        <pt x="1201" y="1041" on="1"/>
        <pt x="1172" y="844" on="0"/>
        <pt x="898" y="625" on="0"/>
        <pt x="669" y="625" on="1"/>
      </contour>
      <contour>
        <pt x="275" y="679" on="1"/>
        <pt x="677" y="679" on="1"/>
        <pt x="875" y="679" on="0"/>
        <pt x="1124" y="887" on="0"/>
        <pt x="1147" y="1039" on="1"/>
        <pt x="1171" y="1202" on="0"/>
        <pt x="995" y="1402" on="0"/>
        <pt x="785" y="1402" on="1"/>
        <pt x="384" y="1402" on="1"/>
      </contour>
    </TTGlyph>
    <TTGlyph name="P.smcp" xMin="101" yMin="0" xMax="1051" yMax="1165">
      <contour>
        <pt x="222" y="450" on="1"/>
        <pt x="155" y="0" on="1"/>
        <pt x="101" y="0" on="1"/>
        <pt x="276" y="1165" on="1"/>
        <pt x="697" y="1165" on="1"/>
        <pt x="871" y="1165" on="0"/>
        <pt x="1051" y="964" on="0"/>
        <pt x="1028" y="808" on="1"/>
        <pt x="1003" y="643" on="0"/>
        <pt x="773" y="450" on="0"/>
        <pt x="590" y="450" on="1"/>
      </contour>
      <contour>
        <pt x="231" y="505" on="1"/>
        <pt x="598" y="505" on="1"/>
        <pt x="755" y="505" on="0"/>
        <pt x="955" y="682" on="0"/>
        <pt x="974" y="806" on="1"/>
        <pt x="994" y="941" on="0"/>
        <pt x="855" y="1111" on="0"/>
        <pt x="689" y="1111" on="1"/>
        <pt x="322" y="1111" on="1"/>
      </contour>
    </TTGlyph>
    <TTGlyph name="Phi" xMin="120" yMin="0" xMax="1365" yMax="1456">
      <contour>
        <pt x="844" y="1225" on="1"/>
        <pt x="1091" y="1218" on="0"/>
        <pt x="1365" y="927" on="0"/>
        <pt x="1334" y="719" on="1"/>
        <pt x="1301" y="498" on="0"/>
        <pt x="952" y="215" on="0"/>
        <pt x="692" y="209" on="1"/>
        <pt x="661" y="0" on="1"/>
        <pt x="606" y="0" on="1"/>
        <pt x="637" y="209" on="1"/>
        <pt x="390" y="217" on="0"/>
        <pt x="120" y="507" on="0"/>
        <pt x="152" y="717" on="1"/>
        <pt x="184" y="935" on="0"/>
        <pt x="529" y="1217" on="0"/>
        <pt x="789" y="1225" on="1"/>
        <pt x="824" y="1456" on="1"/>
        <pt x="879" y="1456" on="1"/>
      </contour>
      <contour>
        <pt x="1279" y="719" on="1"/>
        <pt x="1308" y="918" on="0"/>
        <pt x="1071" y="1165" on="0"/>
        <pt x="836" y="1171" on="1"/>
        <pt x="701" y="271" on="1"/>
        <pt x="706" y="268" on="1"/>
        <pt x="928" y="270" on="0"/>
        <pt x="1250" y="527" on="0"/>
      </contour>
      <contour>
        <pt x="207" y="717" on="1"/>
        <pt x="176" y="516" on="0"/>
        <pt x="410" y="269" on="0"/>
        <pt x="645" y="263" on="1"/>
        <pt x="780" y="1163" on="1"/>
        <pt x="775" y="1166" on="1"/>
        <pt x="555" y="1162" on="0"/>
        <pt x="235" y="905" on="0"/>
      </contour>
    </TTGlyph>
    <TTGlyph name="Pi" xMin="120" yMin="0" xMax="1376" yMax="1456">
      <contour>
        <pt x="1158" y="0" on="1"/>
        <pt x="1104" y="0" on="1"/>
        <pt x="1314" y="1402" on="1"/>
        <pt x="384" y="1402" on="1"/>
        <pt x="174" y="0" on="1"/>
        <pt x="120" y="0" on="1"/>
        <pt x="338" y="1456" on="1"/>
        <pt x="1376" y="1456" on="1"/>
      </contour>
    </TTGlyph>
    <TTGlyph name="Psi" xMin="175" yMin="0" xMax="1412" yMax="1456">
      <contour>
        <pt x="726" y="440" on="1"/>
        <pt x="732" y="437" on="1"/>
        <pt x="932" y="437" on="0"/>
        <pt x="1243" y="695" on="0"/>
        <pt x="1276" y="906" on="1"/>
        <pt x="1358" y="1456" on="1"/>
        <pt x="1412" y="1456" on="1"/>
        <pt x="1330" y="906" on="1"/>
        <pt x="1292" y="651" on="0"/>
        <pt x="959" y="380" on="0"/>
        <pt x="717" y="376" on="1"/>
        <pt x="661" y="0" on="1"/>
        <pt x="606" y="0" on="1"/>
        <pt x="662" y="376" on="1"/>
        <pt x="433" y="383" on="0"/>
        <pt x="175" y="665" on="0"/>
        <pt x="212" y="906" on="1"/>
        <pt x="294" y="1456" on="1"/>
        <pt x="349" y="1456" on="1"/>
        <pt x="267" y="906" on="1"/>
        <pt x="234" y="686" on="0"/>
        <pt x="456" y="438" on="0"/>
        <pt x="665" y="437" on="1"/>
        <pt x="671" y="438" on="1"/>
        <pt x="824" y="1456" on="1"/>
        <pt x="879" y="1456" on="1"/>
      </contour>
    </TTGlyph>
    <TTGlyph name="Q" xMin="102" yMin="-203" xMax="1320" yMax="1477">
      <contour>
        <pt x="1244" y="619" on="1"/>
        <pt x="1215" y="430" on="0"/>
        <pt x="1062" y="154" on="0"/>
        <pt x="944" y="76" on="1"/>
        <pt x="1158" y="-168" on="1"/>
        <pt x="1114" y="-203" on="1"/>
        <pt x="891" y="46" on="1"/>
        <pt x="826" y="12" on="0"/>
        <pt x="680" y="-21" on="0"/>
        <pt x="600" y="-21" on="1"/>
        <pt x="353" y="-21" on="0"/>
        <pt x="102" y="328" on="0"/>
        <pt x="146" y="619" on="1"/>
        <pt x="179" y="837" on="1"/>
        <pt x="224" y="1142" on="0"/>
        <pt x="563" y="1477" on="0"/>
        <pt x="823" y="1477" on="1"/>
        <pt x="1070" y="1477" on="0"/>
        <pt x="1320" y="1128" on="0"/>
        <pt x="1277" y="837" on="1"/>
      </contour>
      <contour>
        <pt x="1223" y="839" on="1"/>
        <pt x="1264" y="1118" on="0"/>
        <pt x="1055" y="1423" on="0"/>
        <pt x="814" y="1423" on="1"/>
        <pt x="586" y="1423" on="0"/>
        <pt x="274" y="1104" on="0"/>
        <pt x="234" y="839" on="1"/>
        <pt x="201" y="619" on="1"/>
        <pt x="158" y="338" on="0"/>
        <pt x="368" y="33" on="0"/>
        <pt x="608" y="33" on="1"/>
        <pt x="837" y="33" on="0"/>
        <pt x="1149" y="352" on="0"/>
        <pt x="1190" y="619" on="1"/>
      </contour>
    </TTGlyph>
    <TTGlyph name="Q.smcp" xMin="95" yMin="-105" xMax="1124" yMax="1181">
      <contour>
        <pt x="1055" y="461" on="1"/>
        <pt x="1038" y="356" on="0"/>
        <pt x="959" y="189" on="0"/>
        <pt x="899" y="128" on="1"/>
        <pt x="1084" y="-69" on="1"/>
        <pt x="1039" y="-105" on="1"/>
        <pt x="852" y="87" on="1"/>
        <pt x="783" y="35" on="0"/>
        <pt x="616" y="-17" on="0"/>
        <pt x="521" y="-17" on="1"/>
        <pt x="318" y="-17" on="0"/>
        <pt x="95" y="242" on="0"/>
        <pt x="129" y="461" on="1"/>
        <pt x="166" y="704" on="1"/>
        <pt x="199" y="933" on="0"/>
        <pt x="487" y="1181" on="0"/>
        <pt x="699" y="1181" on="1"/>
        <pt x="899" y="1181" on="0"/>
        <pt x="1124" y="921" on="0"/>
        <pt x="1092" y="704" on="1"/>
      </contour>
      <contour>
        <pt x="1038" y="705" on="1"/>
        <pt x="1070" y="919" on="0"/>
        <pt x="886" y="1127" on="0"/>
        <pt x="691" y="1127" on="1"/>
        <pt x="506" y="1127" on="0"/>
        <pt x="250" y="909" on="0"/>
        <pt x="220" y="705" on="1"/>
        <pt x="183" y="461" on="1"/>
        <pt x="151" y="246" on="0"/>
        <pt x="335" y="38" on="0"/>
        <pt x="530" y="38" on="1"/>
        <pt x="714" y="38" on="0"/>
        <pt x="970" y="255" on="0"/>
        <pt x="1001" y="461" on="1"/>
      </contour>
    </TTGlyph>
    <TTGlyph name="R" xMin="115" yMin="-1" xMax="1244" yMax="1455">
      <contour>
        <pt x="271" y="683" on="1"/>
        <pt x="169" y="-1" on="1"/>
        <pt x="115" y="-1" on="1"/>
        <pt x="333" y="1455" on="1"/>
        <pt x="797" y="1455" on="1"/>
        <pt x="1019" y="1455" on="0"/>
        <pt x="1244" y="1254" on="0"/>
        <pt x="1217" y="1065" on="1"/>
        <pt x="1197" y="937" on="0"/>
        <pt x="1011" y="739" on="0"/>
        <pt x="868" y="711" on="1"/>
        <pt x="1016" y="683" on="0"/>
        <pt x="1132" y="505" on="0"/>
        <pt x="1113" y="371" on="1"/>
        <pt x="1092" y="234" on="1"/>
        <pt x="1081" y="164" on="0"/>
        <pt x="1099" y="59" on="0"/>
        <pt x="1132" y="24" on="1"/>
        <pt x="1128" y="-1" on="1"/>
        <pt x="1075" y="-1" on="1"/>
        <pt x="1045" y="40" on="0"/>
        <pt x="1026" y="161" on="0"/>
        <pt x="1038" y="236" on="1"/>
        <pt x="1058" y="369" on="1"/>
        <pt x="1081" y="523" on="0"/>
        <pt x="904" y="683" on="0"/>
        <pt x="714" y="683" on="1"/>
      </contour>
      <contour>
        <pt x="279" y="737" on="1"/>
        <pt x="680" y="737" on="1"/>
        <pt x="894" y="737" on="0"/>
        <pt x="1142" y="928" on="0"/>
        <pt x="1163" y="1065" on="1"/>
        <pt x="1188" y="1235" on="0"/>
        <pt x="1003" y="1401" on="0"/>
        <pt x="789" y="1401" on="1"/>
        <pt x="379" y="1401" on="1"/>
      </contour>
    </TTGlyph>
    <TTGlyph name="R.smcp" xMin="101" yMin="0" xMax="1062" yMax="1165">
      <contour>
        <pt x="235" y="536" on="1"/>
        <pt x="155" y="0" on="1"/>
        <pt x="101" y="0" on="1"/>
        <pt x="276" y="1165" on="1"/>
        <pt x="704" y="1165" on="1"/>
        <pt x="884" y="1165" on="0"/>
        <pt x="1062" y="1001" on="0"/>
        <pt x="1040" y="848" on="1"/>
        <pt x="1023" y="736" on="0"/>
        <pt x="903" y="588" on="0"/>
        <pt x="793" y="560" on="1"/>
        <pt x="893" y="533" on="0"/>
        <pt x="969" y="394" on="0"/>
        <pt x="954" y="292" on="1"/>
        <pt x="936" y="172" on="1"/>
        <pt x="927" y="116" on="0"/>
        <pt x="925" y="44" on="0"/>
        <pt x="936" y="20" on="1"/>
        <pt x="933" y="0" on="1"/>
        <pt x="874" y="0" on="1"/>
        <pt x="866" y="25" on="0"/>
        <pt x="874" y="117" on="0"/>
        <pt x="882" y="173" on="1"/>
        <pt x="900" y="290" on="1"/>
        <pt x="917" y="410" on="0"/>
        <pt x="787" y="536" on="0"/>
        <pt x="646" y="536" on="1"/>
      </contour>
      <contour>
        <pt x="243" y="590" on="1"/>
        <pt x="618" y="590" on="1"/>
        <pt x="787" y="590" on="0"/>
        <pt x="966" y="721" on="0"/>
        <pt x="986" y="849" on="1"/>
        <pt x="1006" y="983" on="0"/>
        <pt x="873" y="1111" on="0"/>
        <pt x="696" y="1111" on="1"/>
        <pt x="322" y="1111" on="1"/>
      </contour>
    </TTGlyph>
    <TTGlyph name="Racute" xMin="115" yMin="-1" xMax="1244" yMax="1822">
      <component glyphName="R" x="0" y="0" flags="0x204"/>
      <component glyphName="acute" x="492" y="344" flags="0x4"/>
    </TTGlyph>
    <TTGlyph name="Racute.smcp" xMin="101" yMin="0" xMax="1062" yMax="1499">
      <component glyphName="R.smcp" x="0" y="0" flags="0x204"/>
      <component glyphName="acute" x="315" y="21" flags="0x4"/>
    </TTGlyph>
    <TTGlyph name="Rcaron" xMin="115" yMin="-1" xMax="1244" yMax="1827">
      <component glyphName="R" x="0" y="0" flags="0x204"/>
      <component glyphName="caron" x="272" y="352" flags="0x4"/>
    </TTGlyph>
    <TTGlyph name="Rcaron.smcp" xMin="101" yMin="0" xMax="1062" yMax="1504">
      <component glyphName="R.smcp" x="0" y="0" flags="0x204"/>
      <component glyphName="caron" x="95" y="29" flags="0x4"/>
    </TTGlyph>
    <TTGlyph name="Rcommaaccent" xMin="115" yMin="-436" xMax="1244" yMax="1455">
      <component glyphName="R" x="0" y="0" flags="0x204"/>
      <component glyphName="commaaccent" x="321" y="-261" flags="0x4"/>
    </TTGlyph>
    <TTGlyph name="Rcommaaccent.smcp" xMin="101" yMin="-438" xMax="1062" yMax="1165">
      <component glyphName="R.smcp" x="0" y="0" flags="0x204"/>
      <component glyphName="commaaccent" x="192" y="-263" flags="0x4"/>
    </TTGlyph>
    <TTGlyph name="Rho" xMin="120" yMin="0" xMax="1229" yMax="1456">
      <component glyphName="P" x="0" y="0" flags="0x204"/>
    </TTGlyph>
    <TTGlyph name="S" xMin="119" yMin="-21" xMax="1167" yMax="1477">
      <contour>
        <pt x="1055" y="303" on="1"/>
        <pt x="1077" y="451" on="0"/>
        <pt x="909" y="615" on="0"/>
        <pt x="666" y="704" on="1"/>
        <pt x="429" y="788" on="0"/>
        <pt x="220" y="971" on="0"/>
        <pt x="248" y="1151" on="1"/>
        <pt x="270" y="1302" on="0"/>
        <pt x="534" y="1477" on="0"/>
        <pt x="718" y="1477" on="1"/>
        <pt x="927" y="1477" on="0"/>
        <pt x="1167" y="1249" on="0"/>
        <pt x="1133" y="1053" on="1"/>
        <pt x="1130" y="1047" on="1"/>
        <pt x="1084" y="1047" on="1"/>
        <pt x="1109" y="1216" on="0"/>
        <pt x="903" y="1423" on="0"/>
        <pt x="709" y="1423" on="1"/>
        <pt x="550" y="1423" on="0"/>
        <pt x="318" y="1260" on="0"/>
        <pt x="302" y="1153" on="1"/>
        <pt x="280" y="1008" on="0"/>
        <pt x="439" y="839" on="0"/>
        <pt x="683" y="754" on="1"/>
        <pt x="914" y="674" on="0"/>
        <pt x="1135" y="475" on="0"/>
        <pt x="1110" y="305" on="1"/>
        <pt x="1086" y="150" on="0"/>
        <pt x="803" y="-21" on="0"/>
        <pt x="601" y="-21" on="1"/>
        <pt x="399" y="-21" on="0"/>
        <pt x="119" y="186" on="0"/>
        <pt x="156" y="403" on="1"/>
        <pt x="158" y="409" on="1"/>
        <pt x="204" y="409" on="1"/>
        <pt x="173" y="204" on="0"/>
        <pt x="423" y="33" on="0"/>
        <pt x="609" y="33" on="1"/>
        <pt x="777" y="33" on="0"/>
        <pt x="1038" y="195" on="0"/>
      </contour>
    </TTGlyph>
    <TTGlyph name="S.smcp" xMin="59" yMin="-17" xMax="1039" yMax="1181">
      <contour>
        <pt x="897" y="279" on="1"/>
        <pt x="912" y="383" on="0"/>
        <pt x="773" y="496" on="0"/>
        <pt x="561" y="556" on="1"/>
        <pt x="360" y="612" on="0"/>
        <pt x="186" y="751" on="0"/>
        <pt x="207" y="885" on="1"/>
        <pt x="227" y="1024" on="0"/>
        <pt x="470" y="1181" on="0"/>
        <pt x="659" y="1181" on="1"/>
        <pt x="844" y="1181" on="0"/>
        <pt x="1039" y="1001" on="0"/>
        <pt x="1010" y="841" on="1"/>
        <pt x="1008" y="835" on="1"/>
        <pt x="961" y="835" on="1"/>
        <pt x="981" y="968" on="0"/>
        <pt x="819" y="1127" on="0"/>
        <pt x="651" y="1127" on="1"/>
        <pt x="484" y="1127" on="0"/>
        <pt x="277" y="986" on="0"/>
        <pt x="262" y="886" on="1"/>
        <pt x="246" y="781" on="0"/>
        <pt x="371" y="666" on="0"/>
        <pt x="585" y="608" on="1"/>
        <pt x="791" y="551" on="0"/>
        <pt x="971" y="413" on="0"/>
        <pt x="951" y="280" on="1"/>
        <pt x="929" y="137" on="0"/>
        <pt x="670" y="-17" on="0"/>
        <pt x="467" y="-17" on="1"/>
        <pt x="290" y="-17" on="0"/>
        <pt x="59" y="149" on="0"/>
        <pt x="90" y="324" on="1"/>
        <pt x="92" y="330" on="1"/>
        <pt x="139" y="330" on="1"/>
        <pt x="114" y="168" on="0"/>
        <pt x="315" y="38" on="0"/>
        <pt x="476" y="38" on="1"/>
        <pt x="647" y="38" on="0"/>
        <pt x="882" y="179" on="0"/>
      </contour>
    </TTGlyph>
    <TTGlyph name="Sacute" xMin="119" yMin="-21" xMax="1167" yMax="1843">
      <component glyphName="S" x="0" y="0" flags="0x4"/>
      <component glyphName="acute" x="523" y="365" flags="0x4"/>
    </TTGlyph>
    <TTGlyph name="Sacute.smcp" xMin="59" yMin="-17" xMax="1039" yMax="1515">
      <component glyphName="S.smcp" x="0" y="0" flags="0x204"/>
      <component glyphName="acute" x="395" y="37" flags="0x4"/>
    </TTGlyph>
    <TTGlyph name="Scaron" xMin="119" yMin="-21" xMax="1167" yMax="1848">
      <component glyphName="S" x="0" y="0" flags="0x4"/>
      <component glyphName="caron" x="303" y="373" flags="0x4"/>
    </TTGlyph>
    <TTGlyph name="Scaron.smcp" xMin="59" yMin="-17" xMax="1039" yMax="1520">
      <component glyphName="S.smcp" x="0" y="0" flags="0x204"/>
      <component glyphName="caron" x="175" y="45" flags="0x4"/>
    </TTGlyph>
    <TTGlyph name="Scedilla" xMin="119" yMin="-444" xMax="1167" yMax="1477">
      <component glyphName="S" x="0" y="0" flags="0x4"/>
      <component glyphName="cedilla" x="427" y="-9" flags="0x4"/>
    </TTGlyph>
    <TTGlyph name="Scedilla.smcp" xMin="59" yMin="-441" xMax="1039" yMax="1181">
      <component glyphName="S.smcp" x="0" y="0" flags="0x204"/>
      <component glyphName="cedilla" x="348" y="-6" flags="0x4"/>
    </TTGlyph>
    <TTGlyph name="Scircumflex" xMin="119" yMin="-21" xMax="1167" yMax="1845">
      <component glyphName="S" x="0" y="0" flags="0x4"/>
      <component glyphName="circumflex" x="288" y="370" flags="0x4"/>
    </TTGlyph>
    <TTGlyph name="Scircumflex.smcp" xMin="59" yMin="-17" xMax="1039" yMax="1517">
      <component glyphName="S.smcp" x="0" y="0" flags="0x204"/>
      <component glyphName="circumflex" x="159" y="42" flags="0x4"/>
    </TTGlyph>
    <TTGlyph name="Scommaaccent" xMin="119" yMin="-456" xMax="1167" yMax="1477">
      <component glyphName="S" x="0" y="0" flags="0x4"/>
      <component glyphName="commaaccent" x="346" y="-281" flags="0x4"/>
    </TTGlyph>
    <TTGlyph name="Sigma" xMin="-23" yMin="0" xMax="1127" yMax="1456">
      <contour>
        <pt x="691" y="768" on="1"/>
        <pt x="66" y="59" on="1"/>
        <pt x="68" y="54" on="1"/>
        <pt x="977" y="54" on="1"/>
        <pt x="969" y="0" on="1"/>
        <pt x="-23" y="0" on="1"/>
        <pt x="-16" y="44" on="1"/>
        <pt x="642" y="787" on="1"/>
        <pt x="189" y="1412" on="1"/>
        <pt x="195" y="1456" on="1"/>
        <pt x="232" y="1456" on="1"/>
        <pt x="233" y="1453" on="1"/>
        <pt x="234" y="1456" on="1"/>
        <pt x="1127" y="1456" on="1"/>
        <pt x="1119" y="1403" on="1"/>
        <pt x="270" y="1403" on="1"/>
        <pt x="698" y="815" on="1"/>
      </contour>
    </TTGlyph>
    <TTGlyph name="T" xMin="185" yMin="0" xMax="1307" yMax="1456">
      <contour>
        <pt x="1299" y="1402" on="1"/>
        <pt x="769" y="1402" on="1"/>
        <pt x="559" y="0" on="1"/>
        <pt x="505" y="0" on="1"/>
        <pt x="715" y="1402" on="1"/>
        <pt x="185" y="1402" on="1"/>
        <pt x="193" y="1456" on="1"/>
        <pt x="1307" y="1456" on="1"/>
      </contour>
    </TTGlyph>
    <TTGlyph name="T.smcp" xMin="160" yMin="0" xMax="1050" yMax="1165">
      <contour>
        <pt x="1042" y="1111" on="1"/>
        <pt x="617" y="1111" on="1"/>
        <pt x="450" y="0" on="1"/>
        <pt x="396" y="0" on="1"/>
        <pt x="563" y="1111" on="1"/>
        <pt x="160" y="1111" on="1"/>
        <pt x="168" y="1165" on="1"/>
        <pt x="1050" y="1165" on="1"/>
      </contour>
    </TTGlyph>
    <TTGlyph name="Tau" xMin="185" yMin="0" xMax="1307" yMax="1456">
      <component glyphName="T" x="0" y="0" flags="0x204"/>
    </TTGlyph>
    <TTGlyph name="Tbar" xMin="185" yMin="0" xMax="1307" yMax="1456">
      <contour>
        <pt x="935" y="847" on="1"/>
        <pt x="686" y="847" on="1"/>
        <pt x="559" y="0" on="1"/>
        <pt x="505" y="0" on="1"/>
        <pt x="632" y="847" on="1"/>
        <pt x="348" y="847" on="1"/>
        <pt x="356" y="901" on="1"/>
        <pt x="640" y="901" on="1"/>
        <pt x="715" y="1402" on="1"/>
        <pt x="185" y="1402" on="1"/>
        <pt x="193" y="1456" on="1"/>
        <pt x="1307" y="1456" on="1"/>
        <pt x="1299" y="1402" on="1"/>
        <pt x="769" y="1402" on="1"/>
        <pt x="694" y="901" on="1"/>
        <pt x="943" y="901" on="1"/>
      </contour>
    </TTGlyph>
    <TTGlyph name="Tbar.smcp" xMin="160" yMin="0" xMax="1050" yMax="1165">
      <component glyphName="T.smcp" x="0" y="0" flags="0x204"/>
      <component glyphName="crossbar" x="93" y="-48" flags="0x4"/>
    </TTGlyph>
    <TTGlyph name="Tcaron" xMin="185" yMin="0" xMax="1307" yMax="1819">
      <component glyphName="T" x="0" y="0" flags="0x204"/>
      <component glyphName="caron" x="274" y="344" flags="0x4"/>
    </TTGlyph>
    <TTGlyph name="Tcaron.smcp" xMin="160" yMin="0" xMax="1050" yMax="1498">
      <component glyphName="T.smcp" x="0" y="0" flags="0x204"/>
      <component glyphName="caron" x="130" y="23" flags="0x4"/>
    </TTGlyph>
    <TTGlyph name="Tcommaaccent" xMin="185" yMin="-436" xMax="1307" yMax="1456">
      <component glyphName="T" x="0" y="0" flags="0x204"/>
      <component glyphName="commaaccent" x="325" y="-261" flags="0x4"/>
    </TTGlyph>
    <TTGlyph name="Tcommaaccent.smcp" xMin="160" yMin="-438" xMax="1050" yMax="1165">
      <component glyphName="T.smcp" x="0" y="0" flags="0x204"/>
      <component glyphName="commaaccent" x="229" y="-263" flags="0x4"/>
    </TTGlyph>
    <TTGlyph name="Theta" xMin="102" yMin="-21" xMax="1320" yMax="1477">
      <contour>
        <pt x="995" y="691" on="1"/>
        <pt x="404" y="691" on="1"/>
        <pt x="412" y="744" on="1"/>
        <pt x="1003" y="744" on="1"/>
      </contour>
      <contour>
        <pt x="1244" y="619" on="1"/>
        <pt x="1198" y="313" on="0"/>
        <pt x="859" y="-21" on="0"/>
        <pt x="600" y="-21" on="1"/>
        <pt x="353" y="-21" on="0"/>
        <pt x="102" y="328" on="0"/>
        <pt x="146" y="619" on="1"/>
        <pt x="179" y="837" on="1"/>
        <pt x="224" y="1142" on="0"/>
        <pt x="563" y="1477" on="0"/>
        <pt x="823" y="1477" on="1"/>
        <pt x="1070" y="1477" on="0"/>
        <pt x="1320" y="1128" on="0"/>
        <pt x="1277" y="837" on="1"/>
      </contour>
      <contour>
        <pt x="1223" y="839" on="1"/>
        <pt x="1264" y="1118" on="0"/>
        <pt x="1055" y="1423" on="0"/>
        <pt x="814" y="1423" on="1"/>
        <pt x="586" y="1423" on="0"/>
        <pt x="274" y="1104" on="0"/>
        <pt x="234" y="839" on="1"/>
        <pt x="201" y="619" on="1"/>
        <pt x="158" y="338" on="0"/>
        <pt x="368" y="33" on="0"/>
        <pt x="608" y="33" on="1"/>
        <pt x="837" y="33" on="0"/>
        <pt x="1149" y="352" on="0"/>
        <pt x="1190" y="619" on="1"/>
      </contour>
    </TTGlyph>
    <TTGlyph name="Thorn" xMin="120" yMin="0" xMax="1132" yMax="1456">
      <contour>
        <pt x="392" y="1456" on="1"/>
        <pt x="345" y="1143" on="1"/>
        <pt x="716" y="1143" on="1"/>
        <pt x="919" y="1143" on="0"/>
        <pt x="1132" y="914" on="0"/>
        <pt x="1106" y="738" on="1"/>
        <pt x="1077" y="551" on="0"/>
        <pt x="810" y="334" on="0"/>
        <pt x="595" y="334" on="1"/>
        <pt x="224" y="334" on="1"/>
        <pt x="174" y="0" on="1"/>
        <pt x="120" y="0" on="1"/>
        <pt x="338" y="1456" on="1"/>
      </contour>
      <contour>
        <pt x="337" y="1089" on="1"/>
        <pt x="232" y="388" on="1"/>
        <pt x="603" y="388" on="1"/>
        <pt x="790" y="388" on="0"/>
        <pt x="1031" y="599" on="0"/>
        <pt x="1051" y="736" on="1"/>
        <pt x="1074" y="885" on="0"/>
        <pt x="905" y="1089" on="0"/>
        <pt x="708" y="1089" on="1"/>
      </contour>
    </TTGlyph>
    <TTGlyph name="U" xMin="139" yMin="-21" xMax="1318" yMax="1456">
      <contour>
        <pt x="1318" y="1456" on="1"/>
        <pt x="1170" y="469" on="1"/>
        <pt x="1133" y="222" on="0"/>
        <pt x="825" y="-21" on="0"/>
        <pt x="600" y="-21" on="1"/>
        <pt x="385" y="-21" on="0"/>
        <pt x="139" y="234" on="0"/>
        <pt x="175" y="469" on="1"/>
        <pt x="323" y="1456" on="1"/>
        <pt x="377" y="1456" on="1"/>
        <pt x="229" y="469" on="1"/>
        <pt x="197" y="256" on="0"/>
        <pt x="409" y="33" on="0"/>
        <pt x="608" y="33" on="1"/>
        <pt x="795" y="33" on="0"/>
        <pt x="1085" y="266" on="0"/>
        <pt x="1116" y="469" on="1"/>
        <pt x="1264" y="1456" on="1"/>
      </contour>
    </TTGlyph>
    <TTGlyph name="U.smcp" xMin="122" yMin="-17" xMax="1194" yMax="1165">
      <contour>
        <pt x="1194" y="1165" on="1"/>
        <pt x="1078" y="391" on="1"/>
        <pt x="1048" y="192" on="0"/>
        <pt x="759" y="-17" on="0"/>
        <pt x="553" y="-17" on="1"/>
        <pt x="355" y="-17" on="0"/>
        <pt x="122" y="201" on="0"/>
        <pt x="151" y="391" on="1"/>
        <pt x="267" y="1165" on="1"/>
        <pt x="321" y="1165" on="1"/>
        <pt x="205" y="391" on="1"/>
        <pt x="179" y="223" on="0"/>
        <pt x="381" y="38" on="0"/>
        <pt x="562" y="38" on="1"/>
        <pt x="732" y="38" on="0"/>
        <pt x="998" y="231" on="0"/>
        <pt x="1023" y="391" on="1"/>
        <pt x="1139" y="1165" on="1"/>
      </contour>
    </TTGlyph>
    <TTGlyph name="Uacute" xMin="139" yMin="-21" xMax="1318" yMax="1822">
      <component glyphName="U" x="0" y="0" flags="0x204"/>
      <component glyphName="acute" x="583" y="344" flags="0x4"/>
    </TTGlyph>
    <TTGlyph name="Uacute.smcp" xMin="122" yMin="-17" xMax="1194" yMax="1500">
      <component glyphName="U.smcp" x="0" y="0" flags="0x204"/>
      <component glyphName="acute" x="473" y="22" flags="0x4"/>
    </TTGlyph>
    <TTGlyph name="Ubreve" xMin="139" yMin="-21" xMax="1318" yMax="1839">
      <component glyphName="U" x="0" y="0" flags="0x204"/>
      <component glyphName="breve" x="327" y="383" flags="0x4"/>
    </TTGlyph>
    <TTGlyph name="Ubreve.smcp" xMin="122" yMin="-17" xMax="1194" yMax="1517">
      <component glyphName="U.smcp" x="0" y="0" flags="0x204"/>
      <component glyphName="breve" x="218" y="61" flags="0x4"/>
    </TTGlyph>
    <TTGlyph name="Ucircumflex" xMin="139" yMin="-21" xMax="1318" yMax="1824">
      <component glyphName="U" x="0" y="0" flags="0x204"/>
      <component glyphName="circumflex" x="347" y="349" flags="0x4"/>
    </TTGlyph>
    <TTGlyph name="Ucircumflex.smcp" xMin="122" yMin="-17" xMax="1194" yMax="1502">
      <component glyphName="U.smcp" x="0" y="0" flags="0x204"/>
      <component glyphName="circumflex" x="238" y="27" flags="0x4"/>
    </TTGlyph>
    <TTGlyph name="Udieresis" xMin="139" yMin="-21" xMax="1318" yMax="1791">
      <component glyphName="U" x="0" y="0" flags="0x204"/>
      <component glyphName="dieresis" x="297" y="335" flags="0x4"/>
    </TTGlyph>
    <TTGlyph name="Udieresis.smcp" xMin="122" yMin="-17" xMax="1194" yMax="1469">
      <component glyphName="U.smcp" x="0" y="0" flags="0x204"/>
      <component glyphName="dieresis" x="188" y="13" flags="0x4"/>
    </TTGlyph>
    <TTGlyph name="Ugrave" xMin="139" yMin="-21" xMax="1318" yMax="1828">
      <component glyphName="U" x="0" y="0" flags="0x204"/>
      <component glyphName="grave" x="390" y="352" flags="0x4"/>
    </TTGlyph>
    <TTGlyph name="Ugrave.smcp" xMin="122" yMin="-17" xMax="1194" yMax="1506">
      <component glyphName="U.smcp" x="0" y="0" flags="0x204"/>
      <component glyphName="grave" x="281" y="30" flags="0x4"/>
    </TTGlyph>
    <TTGlyph name="Uhorn" xMin="139" yMin="-21" xMax="1745" yMax="1621">
      <contour>
        <pt x="1743" y="1621" on="1"/>
        <pt x="1745" y="1615" on="1"/>
        <pt x="1717" y="1409" on="0"/>
        <pt x="1481" y="1205" on="0"/>
        <pt x="1292" y="1210" on="1"/>
        <pt x="1286" y="1213" on="1"/>
        <pt x="1293" y="1258" on="1"/>
        <pt x="1458" y="1258" on="0"/>
        <pt x="1670" y="1446" on="0"/>
        <pt x="1697" y="1621" on="1"/>
      </contour>
      <contour>
        <pt x="1318" y="1456" on="1"/>
        <pt x="1170" y="469" on="1"/>
        <pt x="1133" y="222" on="0"/>
        <pt x="825" y="-21" on="0"/>
        <pt x="600" y="-21" on="1"/>
        <pt x="385" y="-21" on="0"/>
        <pt x="139" y="234" on="0"/>
        <pt x="175" y="469" on="1"/>
        <pt x="323" y="1456" on="1"/>
        <pt x="377" y="1456" on="1"/>
        <pt x="229" y="469" on="1"/>
        <pt x="197" y="256" on="0"/>
        <pt x="409" y="33" on="0"/>
        <pt x="608" y="33" on="1"/>
        <pt x="795" y="33" on="0"/>
        <pt x="1085" y="266" on="0"/>
        <pt x="1116" y="469" on="1"/>
        <pt x="1264" y="1456" on="1"/>
      </contour>
    </TTGlyph>
    <TTGlyph name="Uhungarumlaut" xMin="139" yMin="-21" xMax="1318" yMax="1867">
      <component glyphName="U" x="0" y="0" flags="0x204"/>
      <component glyphName="hungarumlaut" x="413" y="349" flags="0x4"/>
    </TTGlyph>
    <TTGlyph name="Uhungarumlaut.smcp" xMin="122" yMin="-17" xMax="1197" yMax="1545">
      <component glyphName="U.smcp" x="0" y="0" flags="0x204"/>
      <component glyphName="hungarumlaut" x="304" y="27" flags="0x4"/>
    </TTGlyph>
    <TTGlyph name="Umacron" xMin="139" yMin="-21" xMax="1318" yMax="1786">
      <component glyphName="U" x="0" y="0" flags="0x204"/>
      <component glyphName="macron" x="334" y="330" flags="0x4"/>
    </TTGlyph>
    <TTGlyph name="Umacron.smcp" xMin="122" yMin="-17" xMax="1194" yMax="1464">
      <component glyphName="U.smcp" x="0" y="0" flags="0x204"/>
      <component glyphName="macron" x="224" y="8" flags="0x4"/>
    </TTGlyph>
    <TTGlyph name="Uogonek" xMin="139" yMin="-357" xMax="1318" yMax="1456">
      <component glyphName="U" x="0" y="0" flags="0x204"/>
      <component glyphName="ogonek" x="439" y="0" flags="0x4"/>
    </TTGlyph>
    <TTGlyph name="Uogonek.smcp" xMin="122" yMin="-357" xMax="1194" yMax="1165">
      <component glyphName="U.smcp" x="0" y="0" flags="0x204"/>
      <component glyphName="ogonek" x="389" y="0" flags="0x4"/>
    </TTGlyph>
    <TTGlyph name="Upsilon" xMin="174" yMin="0" xMax="1323" yMax="1456">
      <component glyphName="Y" x="0" y="0" flags="0x204"/>
    </TTGlyph>
    <TTGlyph name="Upsilondieresis" xMin="174" yMin="0" xMax="1323" yMax="1780">
      <component glyphName="Y" x="0" y="0" flags="0x204"/>
      <component glyphName="dieresis" x="207" y="324" flags="0x4"/>
    </TTGlyph>
    <TTGlyph name="Upsilontonos" xMin="15" yMin="0" xMax="1423" yMax="1567">
      <component glyphName="Y" x="100" y="0" flags="0x4"/>
      <component glyphName="tonos" x="-290" y="-1" flags="0x4"/>
    </TTGlyph>
    <TTGlyph name="Uring" xMin="139" yMin="-21" xMax="1318" yMax="1865">
      <component glyphName="U" x="0" y="0" flags="0x204"/>
      <component glyphName="ring" x="413" y="388" flags="0x4"/>
    </TTGlyph>
    <TTGlyph name="Uring.smcp" xMin="122" yMin="-17" xMax="1194" yMax="1543">
      <component glyphName="U.smcp" x="0" y="0" flags="0x204"/>
      <component glyphName="ring" x="304" y="66" flags="0x4"/>
    </TTGlyph>
    <TTGlyph name="Utilde" xMin="139" yMin="-21" xMax="1318" yMax="1811">
      <component glyphName="U" x="0" y="0" flags="0x204"/>
      <component glyphName="tilde" x="329" y="329" flags="0x4"/>
    </TTGlyph>
    <TTGlyph name="Utilde.smcp" xMin="122" yMin="-17" xMax="1194" yMax="1489">
      <component glyphName="U.smcp" x="0" y="0" flags="0x204"/>
      <component glyphName="tilde" x="220" y="7" flags="0x4"/>
    </TTGlyph>
    <TTGlyph name="V" xMin="173" yMin="0" xMax="1327" yMax="1456">
      <contour>
        <pt x="524" y="142" on="1"/>
        <pt x="538" y="64" on="1"/>
        <pt x="544" y="63" on="1"/>
        <pt x="582" y="142" on="1"/>
        <pt x="1268" y="1456" on="1"/>
        <pt x="1327" y="1456" on="1"/>
        <pt x="565" y="0" on="1"/>
        <pt x="499" y="0" on="1"/>
        <pt x="173" y="1456" on="1"/>
        <pt x="232" y="1456" on="1"/>
      </contour>
    </TTGlyph>
    <TTGlyph name="V.smcp" xMin="169" yMin="0" xMax="1181" yMax="1165">
      <contour>
        <pt x="495" y="129" on="1"/>
        <pt x="506" y="65" on="1"/>
        <pt x="512" y="65" on="1"/>
        <pt x="544" y="129" on="1"/>
        <pt x="1122" y="1165" on="1"/>
        <pt x="1181" y="1165" on="1"/>
        <pt x="530" y="0" on="1"/>
        <pt x="470" y="0" on="1"/>
        <pt x="169" y="1165" on="1"/>
        <pt x="229" y="1165" on="1"/>
      </contour>
    </TTGlyph>
    <TTGlyph name="W" xMin="199" yMin="0" xMax="1931" yMax="1456">
      <contour>
        <pt x="393" y="330" on="1"/>
        <pt x="421" y="101" on="1"/>
        <pt x="427" y="101" on="1"/>
        <pt x="525" y="330" on="1"/>
        <pt x="1037" y="1456" on="1"/>
        <pt x="1097" y="1456" on="1"/>
        <pt x="1271" y="330" on="1"/>
        <pt x="1299" y="101" on="1"/>
        <pt x="1305" y="101" on="1"/>
        <pt x="1404" y="330" on="1"/>
        <pt x="1872" y="1456" on="1"/>
        <pt x="1931" y="1456" on="1"/>
        <pt x="1321" y="0" on="1"/>
        <pt x="1260" y="0" on="1"/>
        <pt x="1081" y="1214" on="1"/>
        <pt x="1055" y="1358" on="1"/>
        <pt x="1049" y="1359" on="1"/>
        <pt x="981" y="1214" on="1"/>
        <pt x="435" y="0" on="1"/>
        <pt x="374" y="0" on="1"/>
        <pt x="199" y="1456" on="1"/>
        <pt x="259" y="1456" on="1"/>
      </contour>
    </TTGlyph>
    <TTGlyph name="W.smcp" xMin="186" yMin="0" xMax="1568" yMax="1165">
      <contour>
        <pt x="366" y="292" on="1"/>
        <pt x="386" y="107" on="1"/>
        <pt x="392" y="106" on="1"/>
        <pt x="463" y="292" on="1"/>
        <pt x="846" y="1165" on="1"/>
        <pt x="907" y="1165" on="1"/>
        <pt x="1031" y="292" on="1"/>
        <pt x="1043" y="105" on="1"/>
        <pt x="1049" y="104" on="1"/>
        <pt x="1129" y="292" on="1"/>
        <pt x="1512" y="1165" on="1"/>
        <pt x="1568" y="1165" on="1"/>
        <pt x="1061" y="0" on="1"/>
        <pt x="1004" y="0" on="1"/>
        <pt x="883" y="926" on="1"/>
        <pt x="865" y="1063" on="1"/>
        <pt x="859" y="1063" on="1"/>
        <pt x="801" y="926" on="1"/>
        <pt x="399" y="0" on="1"/>
        <pt x="341" y="0" on="1"/>
        <pt x="186" y="1165" on="1"/>
        <pt x="241" y="1165" on="1"/>
      </contour>
    </TTGlyph>
    <TTGlyph name="Wacute" xMin="199" yMin="0" xMax="1931" yMax="1822">
      <component glyphName="W" x="0" y="0" flags="0x204"/>
      <component glyphName="acute" x="812" y="344" flags="0x4"/>
    </TTGlyph>
    <TTGlyph name="Wcircumflex" xMin="199" yMin="0" xMax="1931" yMax="1824">
      <component glyphName="W" x="0" y="0" flags="0x204"/>
      <component glyphName="circumflex" x="576" y="349" flags="0x4"/>
    </TTGlyph>
    <TTGlyph name="Wcircumflex.smcp" xMin="186" yMin="0" xMax="1568" yMax="1501">
      <component glyphName="W.smcp" x="0" y="0" flags="0x204"/>
      <component glyphName="circumflex" x="370" y="26" flags="0x4"/>
    </TTGlyph>
    <TTGlyph name="Wdieresis" xMin="199" yMin="0" xMax="1931" yMax="1791">
      <component glyphName="W" x="0" y="0" flags="0x204"/>
      <component glyphName="dieresis" x="526" y="335" flags="0x4"/>
    </TTGlyph>
    <TTGlyph name="Wgrave" xMin="199" yMin="0" xMax="1931" yMax="1828">
      <component glyphName="W" x="0" y="0" flags="0x204"/>
      <component glyphName="grave" x="619" y="352" flags="0x4"/>
    </TTGlyph>
    <TTGlyph name="X" xMin="-22" yMin="0" xMax="1281" yMax="1456">
      <contour>
        <pt x="648" y="785" on="1"/>
        <pt x="1219" y="1456" on="1"/>
        <pt x="1279" y="1456" on="1"/>
        <pt x="1281" y="1451" on="1"/>
        <pt x="676" y="743" on="1"/>
        <pt x="1089" y="0" on="1"/>
        <pt x="1022" y="0" on="1"/>
        <pt x="635" y="701" on="1"/>
        <pt x="39" y="0" on="1"/>
        <pt x="-20" y="0" on="1"/>
        <pt x="-22" y="5" on="1"/>
        <pt x="608" y="743" on="1"/>
        <pt x="211" y="1456" on="1"/>
        <pt x="279" y="1456" on="1"/>
      </contour>
    </TTGlyph>
    <TTGlyph name="X.smcp" xMin="-10" yMin="0" xMax="1113" yMax="1165">
      <contour>
        <pt x="569" y="643" on="1"/>
        <pt x="1052" y="1165" on="1"/>
        <pt x="1111" y="1165" on="1"/>
        <pt x="1113" y="1160" on="1"/>
        <pt x="595" y="593" on="1"/>
        <pt x="960" y="0" on="1"/>
        <pt x="893" y="0" on="1"/>
        <pt x="554" y="543" on="1"/>
        <pt x="53" y="0" on="1"/>
        <pt x="-8" y="0" on="1"/>
        <pt x="-10" y="5" on="1"/>
        <pt x="528" y="593" on="1"/>
        <pt x="177" y="1165" on="1"/>
        <pt x="244" y="1165" on="1"/>
      </contour>
    </TTGlyph>
    <TTGlyph name="Xi" xMin="32" yMin="0" xMax="1116" yMax="1456">
      <contour>
        <pt x="40" y="54" on="1"/>
        <pt x="945" y="54" on="1"/>
        <pt x="937" y="0" on="1"/>
        <pt x="32" y="0" on="1"/>
      </contour>
      <contour>
        <pt x="251" y="741" on="1"/>
        <pt x="932" y="741" on="1"/>
        <pt x="924" y="687" on="1"/>
        <pt x="243" y="687" on="1"/>
      </contour>
      <contour>
        <pt x="271" y="1456" on="1"/>
        <pt x="1116" y="1456" on="1"/>
        <pt x="1108" y="1403" on="1"/>
        <pt x="263" y="1403" on="1"/>
      </contour>
    </TTGlyph>
    <TTGlyph name="Y" xMin="174" yMin="0" xMax="1323" yMax="1456">
      <contour>
        <pt x="600" y="647" on="1"/>
        <pt x="619" y="597" on="1"/>
        <pt x="653" y="647" on="1"/>
        <pt x="1257" y="1456" on="1"/>
        <pt x="1323" y="1456" on="1"/>
        <pt x="641" y="554" on="1"/>
        <pt x="558" y="0" on="1"/>
        <pt x="503" y="0" on="1"/>
        <pt x="586" y="553" on="1"/>
        <pt x="174" y="1456" on="1"/>
        <pt x="240" y="1456" on="1"/>
      </contour>
    </TTGlyph>
    <TTGlyph name="Y.smcp" xMin="153" yMin="0" xMax="1123" yMax="1165">
      <contour>
        <pt x="524" y="522" on="1"/>
        <pt x="532" y="494" on="1"/>
        <pt x="540" y="494" on="1"/>
        <pt x="557" y="523" on="1"/>
        <pt x="1058" y="1165" on="1"/>
        <pt x="1123" y="1165" on="1"/>
        <pt x="554" y="434" on="1"/>
        <pt x="489" y="0" on="1"/>
        <pt x="435" y="0" on="1"/>
        <pt x="500" y="437" on="1"/>
        <pt x="153" y="1165" on="1"/>
        <pt x="217" y="1165" on="1"/>
      </contour>
    </TTGlyph>
    <TTGlyph name="Yacute" xMin="174" yMin="0" xMax="1323" yMax="1811">
      <component glyphName="Y" x="0" y="0" flags="0x204"/>
      <component glyphName="acute" x="492" y="333" flags="0x4"/>
    </TTGlyph>
    <TTGlyph name="Yacute.smcp" xMin="153" yMin="0" xMax="1123" yMax="1491">
      <component glyphName="Y.smcp" x="0" y="0" flags="0x204"/>
      <component glyphName="acute" x="371" y="13" flags="0x4"/>
    </TTGlyph>
    <TTGlyph name="Ycircumflex" xMin="174" yMin="0" xMax="1323" yMax="1813">
      <component glyphName="Y" x="0" y="0" flags="0x204"/>
      <component glyphName="circumflex" x="257" y="338" flags="0x4"/>
    </TTGlyph>
    <TTGlyph name="Ycircumflex.smcp" xMin="153" yMin="0" xMax="1123" yMax="1493">
      <component glyphName="Y.smcp" x="0" y="0" flags="0x204"/>
      <component glyphName="circumflex" x="136" y="18" flags="0x4"/>
    </TTGlyph>
    <TTGlyph name="Ydieresis" xMin="174" yMin="0" xMax="1323" yMax="1780">
      <component glyphName="Y" x="0" y="0" flags="0x204"/>
      <component glyphName="dieresis" x="207" y="324" flags="0x4"/>
    </TTGlyph>
    <TTGlyph name="Ydieresis.smcp" xMin="153" yMin="0" xMax="1123" yMax="1460">
      <component glyphName="Y.smcp" x="0" y="0" flags="0x204"/>
      <component glyphName="dieresis" x="86" y="4" flags="0x4"/>
    </TTGlyph>
    <TTGlyph name="Ygrave" xMin="174" yMin="0" xMax="1323" yMax="1817">
      <component glyphName="Y" x="0" y="0" flags="0x204"/>
      <component glyphName="grave" x="299" y="341" flags="0x4"/>
    </TTGlyph>
    <TTGlyph name="Z" xMin="7" yMin="0" xMax="1097" yMax="1456">
      <contour>
        <pt x="84" y="54" on="1"/>
        <pt x="981" y="54" on="1"/>
        <pt x="973" y="0" on="1"/>
        <pt x="7" y="0" on="1"/>
        <pt x="9" y="44" on="1"/>
        <pt x="1013" y="1403" on="1"/>
        <pt x="195" y="1403" on="1"/>
        <pt x="203" y="1456" on="1"/>
        <pt x="1097" y="1456" on="1"/>
        <pt x="1092" y="1418" on="1"/>
      </contour>
    </TTGlyph>
    <TTGlyph name="Z.smcp" xMin="-7" yMin="0" xMax="1054" yMax="1165">
      <contour>
        <pt x="84" y="59" on="1"/>
        <pt x="86" y="54" on="1"/>
        <pt x="914" y="54" on="1"/>
        <pt x="906" y="0" on="1"/>
        <pt x="-7" y="0" on="1"/>
        <pt x="0" y="46" on="1"/>
        <pt x="963" y="1107" on="1"/>
        <pt x="961" y="1112" on="1"/>
        <pt x="194" y="1112" on="1"/>
        <pt x="202" y="1165" on="1"/>
        <pt x="1054" y="1165" on="1"/>
        <pt x="1048" y="1124" on="1"/>
      </contour>
    </TTGlyph>
    <TTGlyph name="Zacute" xMin="7" yMin="0" xMax="1097" yMax="1822">
      <component glyphName="Z" x="0" y="0" flags="0x4"/>
      <component glyphName="acute" x="495" y="344" flags="0x4"/>
    </TTGlyph>
    <TTGlyph name="Zacute.smcp" xMin="-7" yMin="0" xMax="1054" yMax="1499">
      <component glyphName="Z.smcp" x="0" y="0" flags="0x204"/>
      <component glyphName="acute" x="352" y="21" flags="0x4"/>
    </TTGlyph>
    <TTGlyph name="Zcaron" xMin="7" yMin="0" xMax="1097" yMax="1827">
      <component glyphName="Z" x="0" y="0" flags="0x4"/>
      <component glyphName="caron" x="275" y="352" flags="0x4"/>
    </TTGlyph>
    <TTGlyph name="Zcaron.smcp" xMin="-7" yMin="0" xMax="1054" yMax="1504">
      <component glyphName="Z.smcp" x="0" y="0" flags="0x204"/>
      <component glyphName="caron" x="132" y="29" flags="0x4"/>
    </TTGlyph>
    <TTGlyph name="Zdotaccent" xMin="7" yMin="0" xMax="1097" yMax="1805">
      <component glyphName="Z" x="0" y="0" flags="0x4"/>
      <component glyphName="dotaccent" x="457" y="349" flags="0x4"/>
    </TTGlyph>
    <TTGlyph name="Zdotaccent.smcp" xMin="-7" yMin="0" xMax="1054" yMax="1482">
      <component glyphName="Z.smcp" x="0" y="0" flags="0x204"/>
      <component glyphName="dotaccent" x="315" y="26" flags="0x4"/>
    </TTGlyph>
    <TTGlyph name="Zeta" xMin="7" yMin="0" xMax="1097" yMax="1456">
      <component glyphName="Z" x="0" y="0" flags="0x4"/>
    </TTGlyph>
    <TTGlyph name="a" xMin="34" yMin="-21" xMax="963" yMax="1102">
      <contour>
        <pt x="800" y="199" on="1"/>
        <pt x="730" y="101" on="0"/>
        <pt x="490" y="-21" on="0"/>
        <pt x="332" y="-21" on="1"/>
        <pt x="187" y="-21" on="0"/>
        <pt x="34" y="146" on="0"/>
        <pt x="55" y="284" on="1"/>
        <pt x="75" y="425" on="0"/>
        <pt x="358" y="604" on="0"/>
        <pt x="553" y="604" on="1"/>
        <pt x="861" y="604" on="1"/>
        <pt x="885" y="762" on="1"/>
        <pt x="906" y="902" on="0"/>
        <pt x="757" y="1048" on="0"/>
        <pt x="598" y="1048" on="1"/>
        <pt x="457" y="1048" on="0"/>
        <pt x="251" y="905" on="0"/>
        <pt x="234" y="794" on="1"/>
        <pt x="189" y="796" on="1"/>
        <pt x="188" y="801" on="1"/>
        <pt x="202" y="931" on="0"/>
        <pt x="433" y="1102" on="0"/>
        <pt x="606" y="1102" on="1"/>
        <pt x="774" y="1102" on="0"/>
        <pt x="963" y="924" on="0"/>
        <pt x="939" y="760" on="1"/>
        <pt x="858" y="218" on="1"/>
        <pt x="849" y="159" on="0"/>
        <pt x="845" y="53" on="0"/>
        <pt x="853" y="0" on="1"/>
        <pt x="793" y="0" on="1"/>
        <pt x="791" y="84" on="0"/>
        <pt x="792" y="142" on="0"/>
        <pt x="798" y="183" on="1"/>
      </contour>
      <contour>
        <pt x="340" y="32" on="1"/>
        <pt x="495" y="32" on="0"/>
        <pt x="744" y="175" on="0"/>
        <pt x="816" y="305" on="1"/>
        <pt x="853" y="549" on="1"/>
        <pt x="547" y="549" on="1"/>
        <pt x="385" y="549" on="0"/>
        <pt x="124" y="393" on="0"/>
        <pt x="108" y="280" on="1"/>
        <pt x="91" y="167" on="0"/>
        <pt x="217" y="32" on="0"/>
      </contour>
    </TTGlyph>
    <TTGlyph name="aacute" xMin="34" yMin="-21" xMax="963" yMax="1502">
      <component glyphName="a" x="0" y="0" flags="0x204"/>
      <component glyphName="acute" x="372" y="24" flags="0x4"/>
    </TTGlyph>
    <TTGlyph name="abreve" xMin="34" yMin="-21" xMax="963" yMax="1519">
      <component glyphName="a" x="0" y="0" flags="0x204"/>
      <component glyphName="breve" x="116" y="63" flags="0x4"/>
    </TTGlyph>
    <TTGlyph name="acircumflex" xMin="34" yMin="-21" xMax="963" yMax="1504">
      <component glyphName="a" x="0" y="0" flags="0x204"/>
      <component glyphName="circumflex" x="136" y="29" flags="0x4"/>
    </TTGlyph>
    <TTGlyph name="acute" xMin="204" yMin="1212" xMax="540" yMax="1478">
      <contour>
        <pt x="461" y="1478" on="1"/>
        <pt x="538" y="1478" on="1"/>
        <pt x="540" y="1472" on="1"/>
        <pt x="273" y="1212" on="1"/>
        <pt x="207" y="1212" on="1"/>
        <pt x="204" y="1218" on="1"/>
      </contour>
    </TTGlyph>
    <TTGlyph name="acutecomb" xMin="-465" yMin="1220" xMax="-201" yMax="1511">
      <contour>
        <pt x="-268" y="1511" on="1"/>
        <pt x="-201" y="1511" on="1"/>
        <pt x="-404" y="1220" on="1"/>
        <pt x="-465" y="1220" on="1"/>
      </contour>
    </TTGlyph>
    <TTGlyph name="adieresis" xMin="34" yMin="-21" xMax="976" yMax="1471">
      <component glyphName="a" x="0" y="0" flags="0x204"/>
      <component glyphName="dieresis" x="86" y="15" flags="0x4"/>
    </TTGlyph>
    <TTGlyph name="ae" xMin="34" yMin="-21" xMax="1706" yMax="1102">
      <contour>
        <pt x="1185" y="-21" on="1"/>
        <pt x="1047" y="-21" on="0"/>
        <pt x="860" y="115" on="0"/>
        <pt x="824" y="236" on="1"/>
        <pt x="821" y="218" on="1"/>
        <pt x="822" y="218" on="1"/>
        <pt x="764" y="123" on="0"/>
        <pt x="524" y="-21" on="0"/>
        <pt x="365" y="-21" on="1"/>
        <pt x="202" y="-21" on="0"/>
        <pt x="34" y="145" on="0"/>
        <pt x="56" y="284" on="1"/>
        <pt x="80" y="447" on="0"/>
        <pt x="329" y="630" on="0"/>
        <pt x="538" y="630" on="1"/>
        <pt x="827" y="630" on="1"/>
        <pt x="841" y="720" on="1"/>
        <pt x="865" y="884" on="0"/>
        <pt x="745" y="1048" on="0"/>
        <pt x="598" y="1048" on="1"/>
        <pt x="442" y="1048" on="0"/>
        <pt x="227" y="891" on="0"/>
        <pt x="210" y="771" on="1"/>
        <pt x="166" y="777" on="1"/>
        <pt x="165" y="783" on="1"/>
        <pt x="181" y="926" on="0"/>
        <pt x="422" y="1102" on="0"/>
        <pt x="606" y="1102" on="1"/>
        <pt x="737" y="1102" on="0"/>
        <pt x="896" y="956" on="0"/>
        <pt x="902" y="819" on="1"/>
        <pt x="973" y="952" on="0"/>
        <pt x="1204" y="1102" on="0"/>
        <pt x="1338" y="1102" on="1"/>
        <pt x="1519" y="1102" on="0"/>
        <pt x="1706" y="863" on="0"/>
        <pt x="1676" y="660" on="1"/>
        <pt x="1664" y="577" on="1"/>
        <pt x="877" y="577" on="1"/>
        <pt x="877" y="574" on="0"/>
        <pt x="875" y="565" on="0"/>
        <pt x="875" y="564" on="1"/>
        <pt x="865" y="500" on="1"/>
        <pt x="832" y="285" on="0"/>
        <pt x="992" y="33" on="0"/>
        <pt x="1193" y="33" on="1"/>
        <pt x="1291" y="33" on="0"/>
        <pt x="1476" y="103" on="0"/>
        <pt x="1545" y="164" on="1"/>
        <pt x="1568" y="122" on="1"/>
        <pt x="1494" y="56" on="0"/>
        <pt x="1315" y="-21" on="0"/>
      </contour>
      <contour>
        <pt x="372" y="31" on="1"/>
        <pt x="496" y="31" on="0"/>
        <pt x="736" y="163" on="0"/>
        <pt x="766" y="225" on="1"/>
        <pt x="819" y="575" on="1"/>
        <pt x="531" y="575" on="1"/>
        <pt x="354" y="575" on="0"/>
        <pt x="128" y="404" on="0"/>
        <pt x="110" y="280" on="1"/>
        <pt x="92" y="158" on="0"/>
        <pt x="226" y="31" on="0"/>
      </contour>
      <contour>
        <pt x="1330" y="1048" on="1"/>
        <pt x="1177" y="1048" on="0"/>
        <pt x="934" y="813" on="0"/>
        <pt x="894" y="638" on="1"/>
        <pt x="896" y="632" on="1"/>
        <pt x="1618" y="632" on="1"/>
        <pt x="1623" y="664" on="1"/>
        <pt x="1649" y="839" on="0"/>
        <pt x="1499" y="1048" on="0"/>
      </contour>
    </TTGlyph>
    <TTGlyph name="aeacute" xMin="34" yMin="-21" xMax="1706" yMax="1501">
      <component glyphName="ae" x="0" y="0" flags="0x204"/>
      <component glyphName="acute" x="696" y="23" flags="0x4"/>
    </TTGlyph>
    <TTGlyph name="agrave" xMin="34" yMin="-21" xMax="963" yMax="1508">
      <component glyphName="a" x="0" y="0" flags="0x204"/>
      <component glyphName="grave" x="179" y="32" flags="0x4"/>
    </TTGlyph>
    <TTGlyph name="alpha" xMin="83" yMin="-21" xMax="1068" yMax="1102">
      <contour>
        <pt x="1032" y="1081" on="1"/>
        <pt x="982" y="751" on="1"/>
        <pt x="982" y="750" on="0"/>
        <pt x="983" y="746" on="0"/>
        <pt x="983" y="745" on="1"/>
        <pt x="917" y="304" on="1"/>
        <pt x="914" y="295" on="1"/>
        <pt x="905" y="235" on="1"/>
        <pt x="888" y="119" on="0"/>
        <pt x="938" y="32" on="0"/>
        <pt x="998" y="32" on="1"/>
        <pt x="1013" y="32" on="0"/>
        <pt x="1040" y="36" on="0"/>
        <pt x="1064" y="42" on="1"/>
        <pt x="1068" y="-7" on="1"/>
        <pt x="1050" y="-15" on="0"/>
        <pt x="1014" y="-21" on="0"/>
        <pt x="993" y="-21" on="1"/>
        <pt x="914" y="-21" on="0"/>
        <pt x="839" y="70" on="0"/>
        <pt x="844" y="171" on="1"/>
        <pt x="776" y="83" on="0"/>
        <pt x="572" y="-21" on="0"/>
        <pt x="445" y="-21" on="1"/>
        <pt x="262" y="-21" on="0"/>
        <pt x="83" y="274" on="0"/>
        <pt x="120" y="521" on="1"/>
        <pt x="123" y="542" on="1"/>
        <pt x="163" y="809" on="0"/>
        <pt x="421" y="1102" on="0"/>
        <pt x="615" y="1102" on="1"/>
        <pt x="738" y="1102" on="0"/>
        <pt x="909" y="984" on="0"/>
        <pt x="951" y="883" on="1"/>
        <pt x="997" y="1081" on="1"/>
      </contour>
      <contour>
        <pt x="176" y="521" on="1"/>
        <pt x="141" y="289" on="0"/>
        <pt x="278" y="33" on="0"/>
        <pt x="452" y="33" on="1"/>
        <pt x="587" y="33" on="0"/>
        <pt x="797" y="161" on="0"/>
        <pt x="856" y="267" on="1"/>
        <pt x="932" y="777" on="1"/>
        <pt x="910" y="892" on="0"/>
        <pt x="760" y="1048" on="0"/>
        <pt x="606" y="1048" on="1"/>
        <pt x="441" y="1048" on="0"/>
        <pt x="212" y="764" on="0"/>
        <pt x="179" y="542" on="1"/>
      </contour>
    </TTGlyph>
    <TTGlyph name="alphatonos" xMin="83" yMin="-21" xMax="1068" yMax="1486">
      <component glyphName="alpha" x="0" y="0" flags="0x204"/>
      <component glyphName="tonos" x="358" y="-82" flags="0x4"/>
    </TTGlyph>
    <TTGlyph name="amacron" xMin="34" yMin="-21" xMax="971" yMax="1466">
      <component glyphName="a" x="0" y="0" flags="0x204"/>
      <component glyphName="macron" x="123" y="10" flags="0x4"/>
    </TTGlyph>
    <TTGlyph name="ampersand" xMin="62" yMin="-21" xMax="1154" yMax="1477">
      <contour>
        <pt x="463" y="803" on="1"/>
        <pt x="396" y="905" on="0"/>
        <pt x="343" y="1076" on="0"/>
        <pt x="357" y="1167" on="1"/>
        <pt x="380" y="1322" on="0"/>
        <pt x="565" y="1477" on="0"/>
        <pt x="709" y="1477" on="1"/>
        <pt x="836" y="1477" on="0"/>
        <pt x="962" y="1332" on="0"/>
        <pt x="945" y="1215" on="1"/>
        <pt x="932" y="1128" on="0"/>
        <pt x="840" y="1016" on="0"/>
        <pt x="760" y="958" on="1"/>
        <pt x="534" y="797" on="1"/>
        <pt x="926" y="260" on="1"/>
        <pt x="993" y="337" on="0"/>
        <pt x="1083" y="525" on="0"/>
        <pt x="1099" y="632" on="1"/>
        <pt x="1154" y="632" on="1"/>
        <pt x="1133" y="501" on="0"/>
        <pt x="1036" y="301" on="0"/>
        <pt x="958" y="215" on="1"/>
        <pt x="1116" y="0" on="1"/>
        <pt x="1049" y="0" on="1"/>
        <pt x="919" y="177" on="1"/>
        <pt x="905" y="164" on="1"/>
        <pt x="801" y="75" on="0"/>
        <pt x="589" y="-21" on="0"/>
        <pt x="466" y="-21" on="1"/>
        <pt x="272" y="-21" on="0"/>
        <pt x="62" y="182" on="0"/>
        <pt x="88" y="352" on="1"/>
        <pt x="105" y="470" on="0"/>
        <pt x="265" y="657" on="0"/>
        <pt x="405" y="762" on="1"/>
      </contour>
      <contour>
        <pt x="474" y="33" on="1"/>
        <pt x="579" y="33" on="0"/>
        <pt x="797" y="130" on="0"/>
        <pt x="888" y="219" on="1"/>
        <pt x="517" y="725" on="1"/>
        <pt x="507" y="738" on="0"/>
        <pt x="494" y="755" on="0"/>
        <pt x="488" y="764" on="1"/>
        <pt x="430" y="723" on="1"/>
        <pt x="276" y="605" on="0"/>
        <pt x="153" y="430" on="0"/>
        <pt x="142" y="352" on="1"/>
        <pt x="121" y="213" on="0"/>
        <pt x="288" y="33" on="0"/>
      </contour>
      <contour>
        <pt x="412" y="1169" on="1"/>
        <pt x="399" y="1088" on="0"/>
        <pt x="445" y="923" on="0"/>
        <pt x="507" y="834" on="1"/>
        <pt x="741" y="1000" on="1"/>
        <pt x="809" y="1050" on="0"/>
        <pt x="880" y="1157" on="0"/>
        <pt x="889" y="1215" on="1"/>
        <pt x="903" y="1313" on="0"/>
        <pt x="808" y="1423" on="0"/>
        <pt x="700" y="1423" on="1"/>
        <pt x="585" y="1423" on="0"/>
        <pt x="428" y="1276" on="0"/>
      </contour>
    </TTGlyph>
    <TTGlyph name="anoteleia" xMin="185" yMin="624" xMax="325" yMax="776">
      <component glyphName="periodcentered" x="0" y="0" flags="0x204"/>
    </TTGlyph>
    <TTGlyph name="aogonek" xMin="34" yMin="-357" xMax="963" yMax="1102">
      <component glyphName="a" x="0" y="0" flags="0x204"/>
      <component glyphName="ogonek" x="610" y="0" flags="0x4"/>
    </TTGlyph>
    <TTGlyph name="approxequal" xMin="84" yMin="383" xMax="1103" yMax="987">
      <contour>
        <pt x="157" y="837" on="1"/>
        <pt x="214" y="905" on="0"/>
        <pt x="349" y="983" on="0"/>
        <pt x="414" y="983" on="1"/>
        <pt x="483" y="984" on="0"/>
        <pt x="545" y="960" on="0"/>
        <pt x="638" y="910" on="1"/>
        <pt x="725" y="861" on="0"/>
        <pt x="784" y="837" on="0"/>
        <pt x="849" y="837" on="1"/>
        <pt x="910" y="837" on="0"/>
        <pt x="1044" y="917" on="0"/>
        <pt x="1103" y="987" on="1"/>
        <pt x="1100" y="921" on="1"/>
        <pt x="1042" y="852" on="0"/>
        <pt x="906" y="775" on="0"/>
        <pt x="842" y="775" on="1"/>
        <pt x="779" y="775" on="0"/>
        <pt x="711" y="802" on="0"/>
        <pt x="635" y="844" on="1"/>
        <pt x="531" y="899" on="0"/>
        <pt x="477" y="922" on="0"/>
        <pt x="408" y="921" on="1"/>
        <pt x="346" y="921" on="0"/>
        <pt x="211" y="840" on="0"/>
        <pt x="154" y="771" on="1"/>
      </contour>
      <contour>
        <pt x="88" y="447" on="1"/>
        <pt x="146" y="515" on="0"/>
        <pt x="281" y="593" on="0"/>
        <pt x="346" y="593" on="1"/>
        <pt x="415" y="594" on="0"/>
        <pt x="475" y="570" on="0"/>
        <pt x="569" y="520" on="1"/>
        <pt x="656" y="471" on="0"/>
        <pt x="715" y="447" on="0"/>
        <pt x="780" y="447" on="1"/>
        <pt x="841" y="447" on="0"/>
        <pt x="976" y="527" on="0"/>
        <pt x="1035" y="597" on="1"/>
        <pt x="1031" y="533" on="1"/>
        <pt x="972" y="464" on="0"/>
        <pt x="837" y="387" on="0"/>
        <pt x="773" y="387" on="1"/>
        <pt x="710" y="387" on="0"/>
        <pt x="640" y="414" on="0"/>
        <pt x="565" y="456" on="1"/>
        <pt x="465" y="510" on="0"/>
        <pt x="407" y="534" on="0"/>
        <pt x="339" y="533" on="1"/>
        <pt x="277" y="533" on="0"/>
        <pt x="142" y="452" on="0"/>
        <pt x="84" y="383" on="1"/>
      </contour>
    </TTGlyph>
    <TTGlyph name="aring" xMin="34" yMin="-21" xMax="963" yMax="1545">
      <component glyphName="a" x="0" y="0" flags="0x204"/>
      <component glyphName="ring" x="202" y="68" flags="0x4"/>
    </TTGlyph>
    <TTGlyph name="aringacute" xMin="34" yMin="-21" xMax="963" yMax="1760">
      <component glyphName="a" x="0" y="0" flags="0x204"/>
      <component glyphName="ringacute" x="206" y="32" flags="0x4"/>
    </TTGlyph>
    <TTGlyph name="asciicircum" xMin="120" yMin="729" xMax="770" yMax="1456">
      <contour>
        <pt x="179" y="729" on="1"/>
        <pt x="120" y="729" on="1"/>
        <pt x="528" y="1456" on="1"/>
        <pt x="580" y="1456" on="1"/>
        <pt x="770" y="729" on="1"/>
        <pt x="709" y="729" on="1"/>
        <pt x="569" y="1272" on="1"/>
        <pt x="546" y="1385" on="1"/>
        <pt x="540" y="1386" on="1"/>
        <pt x="480" y="1272" on="1"/>
      </contour>
    </TTGlyph>
    <TTGlyph name="asciitilde" xMin="147" yMin="443" xMax="1280" yMax="774">
      <contour>
        <pt x="1280" y="740" on="1"/>
        <pt x="1262" y="614" on="0"/>
        <pt x="1088" y="443" on="0"/>
        <pt x="974" y="443" on="1"/>
        <pt x="890" y="443" on="0"/>
        <pt x="753" y="521" on="0"/>
        <pt x="675" y="602" on="1"/>
        <pt x="616" y="661" on="0"/>
        <pt x="505" y="720" on="0"/>
        <pt x="444" y="720" on="1"/>
        <pt x="359" y="720" on="0"/>
        <pt x="221" y="583" on="0"/>
        <pt x="205" y="462" on="1"/>
        <pt x="147" y="474" on="1"/>
        <pt x="165" y="606" on="0"/>
        <pt x="334" y="774" on="0"/>
        <pt x="451" y="774" on="1"/>
        <pt x="533" y="774" on="0"/>
        <pt x="673" y="693" on="0"/>
        <pt x="752" y="614" on="1"/>
        <pt x="811" y="552" on="0"/>
        <pt x="918" y="496" on="0"/>
        <pt x="981" y="496" on="1"/>
        <pt x="1063" y="496" on="0"/>
        <pt x="1204" y="639" on="0"/>
        <pt x="1220" y="753" on="1"/>
      </contour>
    </TTGlyph>
    <TTGlyph name="asterisk" xMin="121" yMin="661" xMax="925" yMax="1456">
      <contour>
        <pt x="466" y="1017" on="1"/>
        <pt x="121" y="1141" on="1"/>
        <pt x="147" y="1195" on="1"/>
        <pt x="489" y="1062" on="1"/>
        <pt x="549" y="1456" on="1"/>
        <pt x="605" y="1456" on="1"/>
        <pt x="539" y="1061" on="1"/>
        <pt x="913" y="1204" on="1"/>
        <pt x="925" y="1151" on="1"/>
        <pt x="544" y="1014" on="1"/>
        <pt x="746" y="697" on="1"/>
        <pt x="694" y="664" on="1"/>
        <pt x="500" y="986" on="1"/>
        <pt x="223" y="661" on="1"/>
        <pt x="183" y="693" on="1"/>
      </contour>
    </TTGlyph>
    <TTGlyph name="at" xMin="39" yMin="-453" xMax="1844" yMax="1411">
      <contour>
        <pt x="1765" y="523" on="1"/>
        <pt x="1723" y="304" on="0"/>
        <pt x="1466" y="-21" on="0"/>
        <pt x="1274" y="-21" on="1"/>
        <pt x="1194" y="-21" on="0"/>
        <pt x="1107" y="102" on="0"/>
        <pt x="1113" y="210" on="1"/>
        <pt x="1040" y="95" on="0"/>
        <pt x="855" y="-21" on="0"/>
        <pt x="746" y="-21" on="1"/>
        <pt x="615" y="-21" on="0"/>
        <pt x="512" y="219" on="0"/>
        <pt x="560" y="416" on="1"/>
        <pt x="620" y="666" on="0"/>
        <pt x="908" y="968" on="0"/>
        <pt x="1080" y="968" on="1"/>
        <pt x="1160" y="968" on="0"/>
        <pt x="1260" y="912" on="0"/>
        <pt x="1314" y="858" on="1"/>
        <pt x="1180" y="293" on="1"/>
        <pt x="1146" y="141" on="0"/>
        <pt x="1225" y="34" on="0"/>
        <pt x="1285" y="34" on="1"/>
        <pt x="1437" y="34" on="0"/>
        <pt x="1664" y="306" on="0"/>
        <pt x="1708" y="523" on="1"/>
        <pt x="1788" y="919" on="0"/>
        <pt x="1505" y="1354" on="0"/>
        <pt x="1120" y="1354" on="1"/>
        <pt x="796" y="1354" on="0"/>
        <pt x="255" y="871" on="0"/>
        <pt x="176" y="478" on="1"/>
        <pt x="98" y="96" on="0"/>
        <pt x="413" y="-398" on="0"/>
        <pt x="770" y="-398" on="1"/>
        <pt x="854" y="-398" on="0"/>
        <pt x="1045" y="-353" on="0"/>
        <pt x="1112" y="-318" on="1"/>
        <pt x="1129" y="-364" on="1"/>
        <pt x="1062" y="-404" on="0"/>
        <pt x="850" y="-453" on="0"/>
        <pt x="758" y="-453" on="1"/>
        <pt x="392" y="-453" on="0"/>
        <pt x="39" y="51" on="0"/>
        <pt x="121" y="478" on="1"/>
        <pt x="203" y="905" on="0"/>
        <pt x="754" y="1411" on="0"/>
        <pt x="1133" y="1411" on="1"/>
        <pt x="1519" y="1411" on="0"/>
        <pt x="1844" y="937" on="0"/>
      </contour>
      <contour>
        <pt x="614" y="416" on="1"/>
        <pt x="570" y="249" on="0"/>
        <pt x="639" y="33" on="0"/>
        <pt x="752" y="33" on="1"/>
        <pt x="856" y="33" on="0"/>
        <pt x="1053" y="166" on="0"/>
        <pt x="1137" y="343" on="1"/>
        <pt x="1253" y="831" on="1"/>
        <pt x="1224" y="870" on="0"/>
        <pt x="1133" y="913" on="0"/>
        <pt x="1069" y="913" on="1"/>
        <pt x="933" y="913" on="0"/>
        <pt x="676" y="658" on="0"/>
      </contour>
    </TTGlyph>
    <TTGlyph name="atilde" xMin="34" yMin="-21" xMax="963" yMax="1491">
      <component glyphName="a" x="0" y="0" flags="0x204"/>
      <component glyphName="tilde" x="118" y="9" flags="0x4"/>
    </TTGlyph>
    <TTGlyph name="b" xMin="90" yMin="-21" xMax="1038" yMax="1560">
      <contour>
        <pt x="997" y="521" on="1"/>
        <pt x="958" y="262" on="0"/>
        <pt x="702" y="-21" on="0"/>
        <pt x="510" y="-21" on="1"/>
        <pt x="387" y="-21" on="0"/>
        <pt x="211" y="84" on="0"/>
        <pt x="169" y="173" on="1"/>
        <pt x="135" y="0" on="1"/>
        <pt x="90" y="0" on="1"/>
        <pt x="324" y="1560" on="1"/>
        <pt x="378" y="1560" on="1"/>
        <pt x="277" y="889" on="1"/>
        <pt x="346" y="988" on="0"/>
        <pt x="549" y="1102" on="0"/>
        <pt x="676" y="1102" on="1"/>
        <pt x="859" y="1102" on="0"/>
        <pt x="1038" y="796" on="0"/>
        <pt x="1000" y="542" on="1"/>
      </contour>
      <contour>
        <pt x="944" y="542" on="1"/>
        <pt x="978" y="775" on="0"/>
        <pt x="842" y="1048" on="0"/>
        <pt x="669" y="1048" on="1"/>
        <pt x="520" y="1048" on="0"/>
        <pt x="318" y="889" on="0"/>
        <pt x="260" y="775" on="1"/>
        <pt x="184" y="267" on="1"/>
        <pt x="209" y="160" on="0"/>
        <pt x="377" y="33" on="0"/>
        <pt x="519" y="33" on="1"/>
        <pt x="683" y="33" on="0"/>
        <pt x="908" y="300" on="0"/>
        <pt x="941" y="521" on="1"/>
      </contour>
    </TTGlyph>
    <TTGlyph name="backslash" xMin="195" yMin="-125" xMax="624" yMax="1456">
      <contour>
        <pt x="195" y="1456" on="1"/>
        <pt x="253" y="1456" on="1"/>
        <pt x="624" y="-125" on="1"/>
        <pt x="566" y="-125" on="1"/>
      </contour>
    </TTGlyph>
    <TTGlyph name="bar" xMin="61" yMin="-270" xMax="373" yMax="1456">
      <contour>
        <pt x="115" y="-270" on="1"/>
        <pt x="61" y="-270" on="1"/>
        <pt x="319" y="1456" on="1"/>
        <pt x="373" y="1456" on="1"/>
      </contour>
    </TTGlyph>
    <TTGlyph name="beta" xMin="53" yMin="-413" xMax="1083" yMax="1477">
      <contour>
        <pt x="725" y="1477" on="1"/>
        <pt x="894" y="1477" on="0"/>
        <pt x="1083" y="1266" on="0"/>
        <pt x="1059" y="1103" on="1"/>
        <pt x="1041" y="986" on="0"/>
        <pt x="905" y="810" on="0"/>
        <pt x="796" y="769" on="1"/>
        <pt x="942" y="735" on="0"/>
        <pt x="1077" y="527" on="0"/>
        <pt x="1057" y="385" on="1"/>
        <pt x="1027" y="187" on="0"/>
        <pt x="755" y="-21" on="0"/>
        <pt x="551" y="-21" on="1"/>
        <pt x="446" y="-21" on="0"/>
        <pt x="239" y="68" on="0"/>
        <pt x="191" y="150" on="1"/>
        <pt x="107" y="-413" on="1"/>
        <pt x="53" y="-413" on="1"/>
        <pt x="158" y="289" on="1"/>
        <pt x="158" y="290" on="0"/>
        <pt x="159" y="312" on="0"/>
        <pt x="161" y="318" on="1"/>
        <pt x="163" y="319" on="1"/>
        <pt x="273" y="1054" on="1"/>
        <pt x="301" y="1243" on="0"/>
        <pt x="561" y="1477" on="0"/>
      </contour>
      <contour>
        <pt x="515" y="791" on="1"/>
        <pt x="618" y="791" on="1"/>
        <pt x="786" y="791" on="0"/>
        <pt x="983" y="958" on="0"/>
        <pt x="1006" y="1108" on="1"/>
        <pt x="1026" y="1241" on="0"/>
        <pt x="881" y="1423" on="0"/>
        <pt x="716" y="1423" on="1"/>
        <pt x="580" y="1423" on="0"/>
        <pt x="350" y="1211" on="0"/>
        <pt x="327" y="1054" on="1"/>
        <pt x="205" y="242" on="1"/>
        <pt x="229" y="145" on="0"/>
        <pt x="425" y="33" on="0"/>
        <pt x="559" y="33" on="1"/>
        <pt x="741" y="33" on="0"/>
        <pt x="977" y="218" on="0"/>
        <pt x="1001" y="381" on="1"/>
        <pt x="1027" y="553" on="0"/>
        <pt x="846" y="735" on="0"/>
        <pt x="649" y="735" on="1"/>
        <pt x="506" y="735" on="1"/>
        <pt x="513" y="779" on="1"/>
        <pt x="514" y="784" on="1"/>
      </contour>
    </TTGlyph>
    <TTGlyph name="braceleft" xMin="74" yMin="-441" xMax="799" yMax="1592">
      <contour>
        <pt x="505" y="-441" on="1"/>
        <pt x="339" y="-386" on="0"/>
        <pt x="226" y="-150" on="0"/>
        <pt x="251" y="20" on="1"/>
        <pt x="285" y="265" on="1"/>
        <pt x="304" y="401" on="0"/>
        <pt x="203" y="543" on="0"/>
        <pt x="74" y="543" on="1"/>
        <pt x="77" y="566" on="1"/>
        <pt x="80" y="586" on="1"/>
        <pt x="83" y="609" on="1"/>
        <pt x="206" y="609" on="0"/>
        <pt x="353" y="755" on="0"/>
        <pt x="372" y="885" on="1"/>
        <pt x="406" y="1132" on="1"/>
        <pt x="430" y="1309" on="0"/>
        <pt x="607" y="1540" on="0"/>
        <pt x="786" y="1592" on="1"/>
        <pt x="792" y="1590" on="1"/>
        <pt x="799" y="1552" on="1"/>
        <pt x="649" y="1506" on="0"/>
        <pt x="481" y="1287" on="0"/>
        <pt x="460" y="1132" on="1"/>
        <pt x="426" y="885" on="1"/>
        <pt x="408" y="760" on="0"/>
        <pt x="283" y="598" on="0"/>
        <pt x="171" y="575" on="1"/>
        <pt x="271" y="548" on="0"/>
        <pt x="355" y="381" on="0"/>
        <pt x="339" y="265" on="1"/>
        <pt x="305" y="20" on="1"/>
        <pt x="282" y="-139" on="0"/>
        <pt x="393" y="-345" on="0"/>
        <pt x="532" y="-395" on="1"/>
      </contour>
    </TTGlyph>
    <TTGlyph name="braceright" xMin="-130" yMin="-441" xMax="598" yMax="1597">
      <contour>
        <pt x="-130" y="-395" on="1"/>
        <pt x="20" y="-346" on="0"/>
        <pt x="190" y="-134" on="0"/>
        <pt x="212" y="20" on="1"/>
        <pt x="246" y="265" on="1"/>
        <pt x="263" y="389" on="0"/>
        <pt x="388" y="552" on="0"/>
        <pt x="501" y="577" on="1"/>
        <pt x="400" y="603" on="0"/>
        <pt x="316" y="768" on="0"/>
        <pt x="333" y="885" on="1"/>
        <pt x="367" y="1132" on="1"/>
        <pt x="390" y="1293" on="0"/>
        <pt x="284" y="1505" on="0"/>
        <pt x="147" y="1552" on="1"/>
        <pt x="168" y="1597" on="1"/>
        <pt x="333" y="1542" on="0"/>
        <pt x="445" y="1303" on="0"/>
        <pt x="421" y="1132" on="1"/>
        <pt x="387" y="885" on="1"/>
        <pt x="367" y="749" on="0"/>
        <pt x="469" y="609" on="0"/>
        <pt x="598" y="609" on="1"/>
        <pt x="595" y="586" on="1"/>
        <pt x="592" y="566" on="1"/>
        <pt x="589" y="543" on="1"/>
        <pt x="466" y="543" on="0"/>
        <pt x="318" y="394" on="0"/>
        <pt x="300" y="265" on="1"/>
        <pt x="266" y="20" on="1"/>
        <pt x="241" y="-157" on="0"/>
        <pt x="64" y="-386" on="0"/>
        <pt x="-118" y="-441" on="1"/>
      </contour>
    </TTGlyph>
    <TTGlyph name="bracketleft" xMin="62" yMin="-312" xMax="622" yMax="1664">
      <contour>
        <pt x="614" y="1610" on="1"/>
        <pt x="385" y="1610" on="1"/>
        <pt x="124" y="-258" on="1"/>
        <pt x="353" y="-258" on="1"/>
        <pt x="345" y="-312" on="1"/>
        <pt x="62" y="-312" on="1"/>
        <pt x="339" y="1664" on="1"/>
        <pt x="622" y="1664" on="1"/>
      </contour>
    </TTGlyph>
    <TTGlyph name="bracketright" xMin="-127" yMin="-312" xMax="433" yMax="1664">
      <contour>
        <pt x="150" y="1664" on="1"/>
        <pt x="433" y="1664" on="1"/>
        <pt x="156" y="-312" on="1"/>
        <pt x="-127" y="-312" on="1"/>
        <pt x="-119" y="-258" on="1"/>
        <pt x="109" y="-258" on="1"/>
        <pt x="370" y="1610" on="1"/>
        <pt x="142" y="1610" on="1"/>
      </contour>
    </TTGlyph>
    <TTGlyph name="breve" xMin="261" yMin="1208" xMax="826" yMax="1456">
      <contour>
        <pt x="824" y="1456" on="1"/>
        <pt x="826" y="1450" on="1"/>
        <pt x="814" y="1339" on="0"/>
        <pt x="649" y="1208" on="0"/>
        <pt x="520" y="1208" on="1"/>
        <pt x="396" y="1208" on="0"/>
        <pt x="261" y="1344" on="0"/>
        <pt x="281" y="1450" on="1"/>
        <pt x="284" y="1456" on="1"/>
        <pt x="330" y="1456" on="1"/>
        <pt x="317" y="1367" on="0"/>
        <pt x="410" y="1264" on="0"/>
        <pt x="528" y="1264" on="1"/>
        <pt x="635" y="1264" on="0"/>
        <pt x="767" y="1373" on="0"/>
        <pt x="779" y="1456" on="1"/>
      </contour>
    </TTGlyph>
    <TTGlyph name="breveacutecomb" xMin="273" yMin="1248" xMax="839" yMax="1637">
      <contour>
        <pt x="838" y="1456" on="1"/>
        <pt x="839" y="1450" on="1"/>
        <pt x="831" y="1357" on="0"/>
        <pt x="667" y="1248" on="0"/>
        <pt x="536" y="1248" on="1"/>
        <pt x="410" y="1248" on="0"/>
        <pt x="273" y="1362" on="0"/>
        <pt x="292" y="1450" on="1"/>
        <pt x="294" y="1456" on="1"/>
        <pt x="339" y="1456" on="1"/>
        <pt x="328" y="1381" on="0"/>
        <pt x="424" y="1294" on="0"/>
        <pt x="543" y="1294" on="1"/>
        <pt x="652" y="1294" on="0"/>
        <pt x="783" y="1387" on="0"/>
        <pt x="793" y="1456" on="1"/>
      </contour>
      <contour>
        <pt x="697" y="1637" on="1"/>
        <pt x="754" y="1637" on="1"/>
        <pt x="757" y="1631" on="1"/>
        <pt x="554" y="1424" on="1"/>
        <pt x="507" y="1424" on="1"/>
        <pt x="504" y="1430" on="1"/>
      </contour>
    </TTGlyph>
    <TTGlyph name="brevegravecomb" xMin="251" yMin="1230" xMax="854" yMax="1663">
      <contour>
        <pt x="852" y="1456" on="1"/>
        <pt x="854" y="1450" on="1"/>
        <pt x="844" y="1349" on="0"/>
        <pt x="670" y="1230" on="0"/>
        <pt x="531" y="1230" on="1"/>
        <pt x="398" y="1230" on="0"/>
        <pt x="251" y="1355" on="0"/>
        <pt x="271" y="1450" on="1"/>
        <pt x="273" y="1456" on="1"/>
        <pt x="319" y="1456" on="1"/>
        <pt x="307" y="1376" on="0"/>
        <pt x="410" y="1285" on="0"/>
        <pt x="539" y="1285" on="1"/>
        <pt x="656" y="1285" on="0"/>
        <pt x="797" y="1383" on="0"/>
        <pt x="808" y="1456" on="1"/>
      </contour>
      <contour>
        <pt x="630" y="1437" on="1"/>
        <pt x="547" y="1437" on="1"/>
        <pt x="404" y="1663" on="1"/>
        <pt x="498" y="1663" on="1"/>
      </contour>
    </TTGlyph>
    <TTGlyph name="brevehookcomb" xMin="273" yMin="1252" xMax="823" yMax="1767">
      <contour>
        <pt x="777" y="1456" on="1"/>
        <pt x="767" y="1388" on="0"/>
        <pt x="640" y="1298" on="0"/>
        <pt x="536" y="1298" on="1"/>
        <pt x="420" y="1298" on="0"/>
        <pt x="327" y="1383" on="0"/>
        <pt x="338" y="1456" on="1"/>
        <pt x="294" y="1456" on="1"/>
        <pt x="292" y="1450" on="1"/>
        <pt x="273" y="1364" on="0"/>
        <pt x="407" y="1252" on="0"/>
        <pt x="529" y="1252" on="1"/>
        <pt x="656" y="1252" on="0"/>
        <pt x="816" y="1359" on="0"/>
        <pt x="823" y="1450" on="1"/>
        <pt x="822" y="1456" on="1"/>
      </contour>
      <contour>
        <pt x="536" y="1439" on="1"/>
        <pt x="549" y="1528" on="1"/>
        <pt x="648" y="1534" on="0"/>
        <pt x="737" y="1576" on="0"/>
        <pt x="740" y="1625" on="1"/>
        <pt x="740" y="1631" on="1"/>
        <pt x="751" y="1678" on="0"/>
        <pt x="622" y="1724" on="0"/>
        <pt x="534" y="1724" on="1"/>
        <pt x="547" y="1767" on="1"/>
        <pt x="671" y="1767" on="0"/>
        <pt x="810" y="1695" on="0"/>
        <pt x="800" y="1628" on="1"/>
        <pt x="790" y="1560" on="0"/>
        <pt x="676" y="1492" on="0"/>
        <pt x="589" y="1486" on="1"/>
        <pt x="582" y="1439" on="1"/>
      </contour>
    </TTGlyph>
    <TTGlyph name="brevetildecomb" xMin="273" yMin="1244" xMax="887" yMax="1716">
      <contour>
        <pt x="840" y="1457" on="1"/>
        <pt x="842" y="1451" on="1"/>
        <pt x="832" y="1356" on="0"/>
        <pt x="666" y="1244" on="0"/>
        <pt x="536" y="1244" on="1"/>
        <pt x="410" y="1244" on="0"/>
        <pt x="273" y="1361" on="0"/>
        <pt x="293" y="1451" on="1"/>
        <pt x="295" y="1457" on="1"/>
        <pt x="340" y="1457" on="1"/>
        <pt x="327" y="1381" on="0"/>
        <pt x="424" y="1292" on="0"/>
        <pt x="543" y="1292" on="1"/>
        <pt x="652" y="1292" on="0"/>
        <pt x="782" y="1386" on="0"/>
        <pt x="794" y="1457" on="1"/>
      </contour>
      <contour>
        <pt x="887" y="1706" on="1"/>
        <pt x="875" y="1630" on="0"/>
        <pt x="774" y="1542" on="0"/>
        <pt x="707" y="1542" on="1"/>
        <pt x="644" y="1542" on="0"/>
        <pt x="521" y="1651" on="0"/>
        <pt x="473" y="1651" on="1"/>
        <pt x="428" y="1651" on="0"/>
        <pt x="355" y="1587" on="0"/>
        <pt x="348" y="1534" on="1"/>
        <pt x="301" y="1543" on="1"/>
        <pt x="312" y="1616" on="0"/>
        <pt x="412" y="1701" on="0"/>
        <pt x="480" y="1701" on="1"/>
        <pt x="539" y="1701" on="0"/>
        <pt x="667" y="1590" on="0"/>
        <pt x="715" y="1590" on="1"/>
        <pt x="757" y="1590" on="0"/>
        <pt x="831" y="1661" on="0"/>
        <pt x="840" y="1716" on="1"/>
      </contour>
    </TTGlyph>
    <TTGlyph name="brokenbar" xMin="52" yMin="-270" xMax="364" yMax="1456">
      <contour>
        <pt x="52" y="-270" on="1"/>
        <pt x="164" y="482" on="1"/>
        <pt x="218" y="482" on="1"/>
        <pt x="106" y="-270" on="1"/>
      </contour>
      <contour>
        <pt x="251" y="698" on="1"/>
        <pt x="197" y="698" on="1"/>
        <pt x="310" y="1456" on="1"/>
        <pt x="364" y="1456" on="1"/>
      </contour>
    </TTGlyph>
    <TTGlyph name="bullet" xMin="170" yMin="545" xMax="535" yMax="933">
      <contour>
        <pt x="191" y="773" on="1"/>
        <pt x="202" y="846" on="0"/>
        <pt x="304" y="933" on="0"/>
        <pt x="381" y="933" on="1"/>
        <pt x="454" y="933" on="0"/>
        <pt x="535" y="841" on="0"/>
        <pt x="525" y="773" on="1"/>
        <pt x="514" y="703" on="1"/>
        <pt x="503" y="630" on="0"/>
        <pt x="400" y="545" on="0"/>
        <pt x="324" y="545" on="1"/>
        <pt x="250" y="545" on="0"/>
        <pt x="170" y="634" on="0"/>
        <pt x="180" y="703" on="1"/>
      </contour>
    </TTGlyph>
    <TTGlyph name="c" xMin="58" yMin="-21" xMax="994" yMax="1102">
      <contour>
        <pt x="464" y="33" on="1"/>
        <pt x="597" y="33" on="0"/>
        <pt x="833" y="183" on="0"/>
        <pt x="856" y="333" on="1"/>
        <pt x="901" y="333" on="1"/>
        <pt x="903" y="327" on="1"/>
        <pt x="882" y="161" on="0"/>
        <pt x="617" y="-21" on="0"/>
        <pt x="456" y="-21" on="1"/>
        <pt x="257" y="-21" on="0"/>
        <pt x="58" y="280" on="0"/>
        <pt x="95" y="520" on="1"/>
        <pt x="101" y="562" on="1"/>
        <pt x="138" y="813" on="0"/>
        <pt x="414" y="1102" on="0"/>
        <pt x="622" y="1102" on="1"/>
        <pt x="785" y="1102" on="0"/>
        <pt x="994" y="903" on="0"/>
        <pt x="963" y="725" on="1"/>
        <pt x="961" y="720" on="1"/>
        <pt x="914" y="720" on="1"/>
        <pt x="938" y="885" on="0"/>
        <pt x="761" y="1048" on="0"/>
        <pt x="614" y="1048" on="1"/>
        <pt x="431" y="1048" on="0"/>
        <pt x="187" y="772" on="0"/>
        <pt x="155" y="562" on="1"/>
        <pt x="149" y="520" on="1"/>
        <pt x="115" y="296" on="0"/>
        <pt x="270" y="33" on="0"/>
      </contour>
    </TTGlyph>
    <TTGlyph name="cacute" xMin="58" yMin="-21" xMax="994" yMax="1500">
      <component glyphName="c" x="0" y="0" flags="0x204"/>
      <component glyphName="acute" x="384" y="22" flags="0x4"/>
    </TTGlyph>
    <TTGlyph name="caron" xMin="271" yMin="1252" xMax="778" yMax="1475">
      <contour>
        <pt x="499" y="1288" on="1"/>
        <pt x="711" y="1475" on="1"/>
        <pt x="778" y="1475" on="1"/>
        <pt x="776" y="1459" on="1"/>
        <pt x="533" y="1252" on="1"/>
        <pt x="454" y="1252" on="1"/>
        <pt x="271" y="1461" on="1"/>
        <pt x="273" y="1475" on="1"/>
        <pt x="344" y="1475" on="1"/>
      </contour>
    </TTGlyph>
    <TTGlyph name="ccaron" xMin="58" yMin="-21" xMax="994" yMax="1505">
      <component glyphName="c" x="0" y="0" flags="0x204"/>
      <component glyphName="caron" x="165" y="30" flags="0x4"/>
    </TTGlyph>
    <TTGlyph name="ccedilla" xMin="58" yMin="-444" xMax="994" yMax="1102">
      <component glyphName="c" x="0" y="0" flags="0x204"/>
      <component glyphName="cedilla" x="340" y="-9" flags="0x4"/>
    </TTGlyph>
    <TTGlyph name="ccircumflex" xMin="58" yMin="-21" xMax="994" yMax="1502">
      <component glyphName="c" x="0" y="0" flags="0x204"/>
      <component glyphName="circumflex" x="149" y="27" flags="0x4"/>
    </TTGlyph>
    <TTGlyph name="cedilla" xMin="-57" yMin="-435" xMax="288" yMax="0">
      <contour>
        <pt x="127" y="0" on="1"/>
        <pt x="105" y="-76" on="1"/>
        <pt x="195" y="-83" on="0"/>
        <pt x="288" y="-160" on="0"/>
        <pt x="276" y="-245" on="1"/>
        <pt x="262" y="-336" on="0"/>
        <pt x="92" y="-435" on="0"/>
        <pt x="-57" y="-435" on="1"/>
        <pt x="-57" y="-386" on="1"/>
        <pt x="44" y="-386" on="0"/>
        <pt x="210" y="-313" on="0"/>
        <pt x="221" y="-245" on="1"/>
        <pt x="231" y="-178" on="0"/>
        <pt x="149" y="-131" on="0"/>
        <pt x="31" y="-121" on="1"/>
        <pt x="74" y="0" on="1"/>
      </contour>
    </TTGlyph>
    <TTGlyph name="cent" xMin="96" yMin="-245" xMax="1029" yMax="1318">
      <contour>
        <pt x="501" y="33" on="1"/>
        <pt x="634" y="33" on="0"/>
        <pt x="870" y="183" on="0"/>
        <pt x="893" y="333" on="1"/>
        <pt x="938" y="333" on="1"/>
        <pt x="940" y="327" on="1"/>
        <pt x="920" y="169" on="0"/>
        <pt x="675" y="-11" on="0"/>
        <pt x="520" y="-20" on="1"/>
        <pt x="487" y="-245" on="1"/>
        <pt x="432" y="-245" on="1"/>
        <pt x="465" y="-20" on="1"/>
        <pt x="278" y="-8" on="0"/>
        <pt x="96" y="289" on="0"/>
        <pt x="132" y="520" on="1"/>
        <pt x="138" y="562" on="1"/>
        <pt x="174" y="805" on="0"/>
        <pt x="435" y="1092" on="0"/>
        <pt x="634" y="1101" on="1"/>
        <pt x="667" y="1318" on="1"/>
        <pt x="722" y="1318" on="1"/>
        <pt x="689" y="1101" on="1"/>
        <pt x="841" y="1091" on="0"/>
        <pt x="1029" y="894" on="0"/>
        <pt x="1000" y="725" on="1"/>
        <pt x="998" y="720" on="1"/>
        <pt x="951" y="720" on="1"/>
        <pt x="975" y="885" on="0"/>
        <pt x="798" y="1048" on="0"/>
        <pt x="651" y="1048" on="1"/>
        <pt x="468" y="1048" on="0"/>
        <pt x="224" y="772" on="0"/>
        <pt x="192" y="562" on="1"/>
        <pt x="186" y="520" on="1"/>
        <pt x="152" y="296" on="0"/>
        <pt x="307" y="33" on="0"/>
      </contour>
    </TTGlyph>
    <TTGlyph name="chi" xMin="-46" yMin="-419" xMax="1061" yMax="1090">
      <contour>
        <pt x="198" y="1090" on="1"/>
        <pt x="288" y="1090" on="0"/>
        <pt x="366" y="966" on="0"/>
        <pt x="409" y="848" on="1"/>
        <pt x="537" y="422" on="1"/>
        <pt x="998" y="1082" on="1"/>
        <pt x="1061" y="1082" on="1"/>
        <pt x="556" y="361" on="1"/>
        <pt x="706" y="-136" on="1"/>
        <pt x="761" y="-295" on="0"/>
        <pt x="794" y="-366" on="0"/>
        <pt x="847" y="-366" on="1"/>
        <pt x="858" y="-366" on="0"/>
        <pt x="905" y="-361" on="0"/>
        <pt x="917" y="-359" on="1"/>
        <pt x="919" y="-409" on="1"/>
        <pt x="906" y="-413" on="0"/>
        <pt x="857" y="-419" on="0"/>
        <pt x="839" y="-419" on="1"/>
        <pt x="770" y="-419" on="0"/>
        <pt x="701" y="-310" on="0"/>
        <pt x="652" y="-162" on="1"/>
        <pt x="514" y="301" on="1"/>
        <pt x="13" y="-414" on="1"/>
        <pt x="-46" y="-414" on="1"/>
        <pt x="495" y="362" on="1"/>
        <pt x="353" y="838" on="1"/>
        <pt x="309" y="961" on="0"/>
        <pt x="263" y="1036" on="0"/>
        <pt x="190" y="1036" on="1"/>
        <pt x="178" y="1036" on="0"/>
        <pt x="132" y="1031" on="0"/>
        <pt x="121" y="1028" on="1"/>
        <pt x="120" y="1080" on="1"/>
        <pt x="131" y="1084" on="0"/>
        <pt x="180" y="1090" on="0"/>
      </contour>
    </TTGlyph>
    <TTGlyph name="circumflex" xMin="260" yMin="1252" xMax="766" yMax="1475">
      <contour>
        <pt x="766" y="1265" on="1"/>
        <pt x="764" y="1252" on="1"/>
        <pt x="694" y="1252" on="1"/>
        <pt x="537" y="1438" on="1"/>
        <pt x="326" y="1252" on="1"/>
        <pt x="260" y="1252" on="1"/>
        <pt x="262" y="1269" on="1"/>
        <pt x="503" y="1475" on="1"/>
        <pt x="583" y="1475" on="1"/>
      </contour>
    </TTGlyph>
    <TTGlyph name="circumflexacutecomb" xMin="190" yMin="1252" xMax="979" yMax="1584">
      <contour>
        <pt x="464" y="1475" on="1"/>
        <pt x="544" y="1475" on="1"/>
        <pt x="754" y="1258" on="1"/>
        <pt x="751" y="1252" on="1"/>
        <pt x="675" y="1252" on="1"/>
        <pt x="499" y="1438" on="1"/>
        <pt x="267" y="1252" on="1"/>
        <pt x="192" y="1252" on="1"/>
        <pt x="190" y="1258" on="1"/>
      </contour>
      <contour>
        <pt x="911" y="1584" on="1"/>
        <pt x="976" y="1584" on="1"/>
        <pt x="979" y="1578" on="1"/>
        <pt x="790" y="1380" on="1"/>
        <pt x="734" y="1380" on="1"/>
        <pt x="732" y="1385" on="1"/>
      </contour>
    </TTGlyph>
    <TTGlyph name="circumflexgravecomb" xMin="97" yMin="1252" xMax="793" yMax="1584">
      <contour>
        <pt x="793" y="1258" on="1"/>
        <pt x="790" y="1252" on="1"/>
        <pt x="714" y="1252" on="1"/>
        <pt x="538" y="1438" on="1"/>
        <pt x="306" y="1252" on="1"/>
        <pt x="231" y="1252" on="1"/>
        <pt x="229" y="1258" on="1"/>
        <pt x="503" y="1475" on="1"/>
        <pt x="583" y="1475" on="1"/>
      </contour>
      <contour>
        <pt x="292" y="1380" on="1"/>
        <pt x="229" y="1380" on="1"/>
        <pt x="97" y="1584" on="1"/>
        <pt x="170" y="1584" on="1"/>
      </contour>
    </TTGlyph>
    <TTGlyph name="circumflexhookcomb" xMin="229" yMin="1252" xMax="1057" yMax="1684">
      <contour>
        <pt x="583" y="1475" on="1"/>
        <pt x="503" y="1475" on="1"/>
        <pt x="229" y="1258" on="1"/>
        <pt x="231" y="1252" on="1"/>
        <pt x="306" y="1252" on="1"/>
        <pt x="537" y="1438" on="1"/>
        <pt x="714" y="1252" on="1"/>
        <pt x="790" y="1252" on="1"/>
        <pt x="793" y="1258" on="1"/>
      </contour>
      <contour>
        <pt x="810" y="1368" on="1"/>
        <pt x="824" y="1461" on="1"/>
        <pt x="912" y="1467" on="0"/>
        <pt x="978" y="1498" on="0"/>
        <pt x="985" y="1542" on="1"/>
        <pt x="992" y="1589" on="0"/>
        <pt x="889" y="1629" on="0"/>
        <pt x="812" y="1629" on="1"/>
        <pt x="826" y="1684" on="1"/>
        <pt x="934" y="1684" on="0"/>
        <pt x="1057" y="1613" on="0"/>
        <pt x="1047" y="1549" on="1"/>
        <pt x="1037" y="1484" on="0"/>
        <pt x="939" y="1418" on="0"/>
        <pt x="863" y="1412" on="1"/>
        <pt x="856" y="1368" on="1"/>
      </contour>
    </TTGlyph>
    <TTGlyph name="circumflextildecomb" xMin="229" yMin="1252" xMax="831" yMax="1681">
      <contour>
        <pt x="792" y="1258" on="1"/>
        <pt x="790" y="1252" on="1"/>
        <pt x="714" y="1252" on="1"/>
        <pt x="537" y="1438" on="1"/>
        <pt x="306" y="1252" on="1"/>
        <pt x="231" y="1252" on="1"/>
        <pt x="229" y="1258" on="1"/>
        <pt x="513" y="1475" on="1"/>
        <pt x="573" y="1475" on="1"/>
      </contour>
      <contour>
        <pt x="831" y="1664" on="1"/>
        <pt x="820" y="1599" on="0"/>
        <pt x="736" y="1524" on="0"/>
        <pt x="680" y="1524" on="1"/>
        <pt x="627" y="1524" on="0"/>
        <pt x="523" y="1629" on="0"/>
        <pt x="482" y="1629" on="1"/>
        <pt x="447" y="1629" on="0"/>
        <pt x="394" y="1564" on="0"/>
        <pt x="387" y="1516" on="1"/>
        <pt x="338" y="1524" on="1"/>
        <pt x="347" y="1589" on="0"/>
        <pt x="436" y="1681" on="0"/>
        <pt x="490" y="1681" on="1"/>
        <pt x="541" y="1681" on="0"/>
        <pt x="647" y="1575" on="0"/>
        <pt x="687" y="1575" on="1"/>
        <pt x="723" y="1575" on="0"/>
        <pt x="773" y="1625" on="0"/>
        <pt x="781" y="1672" on="1"/>
      </contour>
    </TTGlyph>
    <TTGlyph name="colon" xMin="66" yMin="0" xMax="313" yMax="1079">
      <component glyphName="period" x="-27" y="0" flags="0x4"/>
      <component glyphName="period" x="114" y="949" flags="0x4"/>
    </TTGlyph>
    <TTGlyph name="comma" xMin="-5" yMin="-258" xMax="179" yMax="159">
      <contour>
        <pt x="154" y="-8" on="1"/>
        <pt x="46" y="-258" on="1"/>
        <pt x="-5" y="-258" on="1"/>
        <pt x="99" y="-12" on="1"/>
        <pt x="125" y="159" on="1"/>
        <pt x="179" y="159" on="1"/>
      </contour>
    </TTGlyph>
    <TTGlyph name="commaaccent" xMin="69" yMin="-175" xMax="211" yMax="116">
      <contour>
        <pt x="196" y="11" on="1"/>
        <pt x="119" y="-175" on="1"/>
        <pt x="69" y="-175" on="1"/>
        <pt x="141" y="7" on="1"/>
        <pt x="157" y="116" on="1"/>
        <pt x="211" y="116" on="1"/>
      </contour>
    </TTGlyph>
    <TTGlyph name="commaaccentrotate" xMin="250" yMin="1244" xMax="406" yMax="1560">
      <contour>
        <pt x="269" y="1372" on="1"/>
        <pt x="356" y="1560" on="1"/>
        <pt x="406" y="1560" on="1"/>
        <pt x="323" y="1376" on="1"/>
        <pt x="304" y="1244" on="1"/>
        <pt x="250" y="1244" on="1"/>
      </contour>
    </TTGlyph>
    <TTGlyph name="copyright" xMin="105" yMin="-21" xMax="1619" yMax="1476">
      <contour>
        <pt x="1125" y="596" on="1"/>
        <pt x="1127" y="590" on="1"/>
        <pt x="1107" y="434" on="0"/>
        <pt x="929" y="282" on="0"/>
        <pt x="788" y="282" on="1"/>
        <pt x="650" y="282" on="0"/>
        <pt x="500" y="498" on="0"/>
        <pt x="526" y="669" on="1"/>
        <pt x="544" y="788" on="1"/>
        <pt x="570" y="966" on="0"/>
        <pt x="777" y="1175" on="0"/>
        <pt x="922" y="1175" on="1"/>
        <pt x="1056" y="1175" on="0"/>
        <pt x="1196" y="1014" on="0"/>
        <pt x="1170" y="867" on="1"/>
        <pt x="1167" y="862" on="1"/>
        <pt x="1122" y="862" on="1"/>
        <pt x="1142" y="996" on="0"/>
        <pt x="1035" y="1122" on="0"/>
        <pt x="914" y="1122" on="1"/>
        <pt x="795" y="1122" on="0"/>
        <pt x="620" y="930" on="0"/>
        <pt x="599" y="789" on="1"/>
        <pt x="581" y="669" on="1"/>
        <pt x="558" y="519" on="0"/>
        <pt x="672" y="337" on="0"/>
        <pt x="797" y="337" on="1"/>
        <pt x="913" y="337" on="0"/>
        <pt x="1062" y="465" on="0"/>
        <pt x="1081" y="596" on="1"/>
      </contour>
      <contour>
        <pt x="208" y="729" on="1"/>
        <pt x="162" y="428" on="0"/>
        <pt x="484" y="34" on="0"/>
        <pt x="758" y="34" on="1"/>
        <pt x="1017" y="34" on="0"/>
        <pt x="1473" y="442" on="0"/>
        <pt x="1516" y="729" on="1"/>
        <pt x="1561" y="1029" on="0"/>
        <pt x="1239" y="1421" on="0"/>
        <pt x="966" y="1421" on="1"/>
        <pt x="705" y="1421" on="0"/>
        <pt x="251" y="1015" on="0"/>
      </contour>
      <contour>
        <pt x="152" y="729" on="1"/>
        <pt x="201" y="1056" on="0"/>
        <pt x="675" y="1476" on="0"/>
        <pt x="974" y="1476" on="1"/>
        <pt x="1258" y="1476" on="0"/>
        <pt x="1619" y="1040" on="0"/>
        <pt x="1572" y="729" on="1"/>
        <pt x="1523" y="401" on="0"/>
        <pt x="1049" y="-21" on="0"/>
        <pt x="750" y="-21" on="1"/>
        <pt x="466" y="-21" on="0"/>
        <pt x="105" y="416" on="0"/>
      </contour>
    </TTGlyph>
    <TTGlyph name="crossbar" xMin="136" yMin="721" xMax="731" yMax="775">
      <contour>
        <pt x="723" y="721" on="1"/>
        <pt x="136" y="721" on="1"/>
        <pt x="144" y="775" on="1"/>
        <pt x="731" y="775" on="1"/>
      </contour>
    </TTGlyph>
    <TTGlyph name="currency" xMin="36" yMin="-27" xMax="1484" yMax="1265">
      <contour>
        <pt x="1106" y="152" on="1"/>
        <pt x="1012" y="69" on="0"/>
        <pt x="783" y="-20" on="0"/>
        <pt x="662" y="-20" on="1"/>
        <pt x="547" y="-20" on="0"/>
        <pt x="347" y="73" on="0"/>
        <pt x="277" y="157" on="1"/>
        <pt x="70" y="-26" on="1"/>
        <pt x="36" y="13" on="1"/>
        <pt x="246" y="198" on="1"/>
        <pt x="188" y="281" on="0"/>
        <pt x="142" y="491" on="0"/>
        <pt x="160" y="608" on="1"/>
        <pt x="179" y="734" on="0"/>
        <pt x="290" y="952" on="0"/>
        <pt x="375" y="1035" on="1"/>
        <pt x="218" y="1225" on="1"/>
        <pt x="264" y="1264" on="1"/>
        <pt x="420" y="1076" on="1"/>
        <pt x="511" y="1151" on="0"/>
        <pt x="733" y="1234" on="0"/>
        <pt x="850" y="1234" on="1"/>
        <pt x="960" y="1234" on="0"/>
        <pt x="1155" y="1146" on="0"/>
        <pt x="1225" y="1067" on="1"/>
        <pt x="1449" y="1265" on="1"/>
        <pt x="1484" y="1225" on="1"/>
        <pt x="1258" y="1025" on="1"/>
        <pt x="1318" y="940" on="0"/>
        <pt x="1367" y="727" on="0"/>
        <pt x="1350" y="608" on="1"/>
        <pt x="1331" y="487" on="0"/>
        <pt x="1228" y="276" on="0"/>
        <pt x="1150" y="195" on="1"/>
        <pt x="1302" y="13" on="1"/>
        <pt x="1255" y="-27" on="1"/>
      </contour>
      <contour>
        <pt x="215" y="608" on="1"/>
        <pt x="178" y="360" on="0"/>
        <pt x="444" y="33" on="0"/>
        <pt x="670" y="33" on="1"/>
        <pt x="883" y="33" on="0"/>
        <pt x="1261" y="372" on="0"/>
        <pt x="1296" y="608" on="1"/>
        <pt x="1332" y="854" on="0"/>
        <pt x="1066" y="1181" on="0"/>
        <pt x="842" y="1181" on="1"/>
        <pt x="628" y="1181" on="0"/>
        <pt x="250" y="842" on="0"/>
      </contour>
    </TTGlyph>
    <TTGlyph name="cyrillicbreve" xMin="261" yMin="1208" xMax="826" yMax="1456">
      <component glyphName="breve" x="0" y="0" flags="0x204"/>
    </TTGlyph>
    <TTGlyph name="cyrillichook" xMin="-300" yMin="-437" xMax="178" yMax="118">
      <contour>
        <pt x="178" y="118" on="1"/>
        <pt x="147" y="-89" on="1"/>
        <pt x="120" y="-262" on="0"/>
        <pt x="-54" y="-437" on="0"/>
        <pt x="-191" y="-437" on="1"/>
        <pt x="-219" y="-437" on="0"/>
        <pt x="-271" y="-427" on="0"/>
        <pt x="-300" y="-417" on="1"/>
        <pt x="-279" y="-365" on="1"/>
        <pt x="-260" y="-372" on="0"/>
        <pt x="-208" y="-384" on="0"/>
        <pt x="-183" y="-384" on="1"/>
        <pt x="-76" y="-384" on="0"/>
        <pt x="71" y="-228" on="0"/>
        <pt x="93" y="-89" on="1"/>
        <pt x="124" y="118" on="1"/>
      </contour>
    </TTGlyph>
    <TTGlyph name="cyrillichookleft" xMin="-16" yMin="-357" xMax="271" yMax="20">
      <contour>
        <pt x="168" y="20" on="1"/>
        <pt x="216" y="-37" on="0"/>
        <pt x="271" y="-162" on="0"/>
        <pt x="262" y="-223" on="1"/>
        <pt x="251" y="-288" on="0"/>
        <pt x="164" y="-357" on="0"/>
        <pt x="103" y="-357" on="1"/>
        <pt x="63" y="-357" on="0"/>
        <pt x="4" y="-331" on="0"/>
        <pt x="-16" y="-313" on="1"/>
        <pt x="7" y="-265" on="1"/>
        <pt x="30" y="-282" on="0"/>
        <pt x="77" y="-303" on="0"/>
        <pt x="112" y="-303" on="1"/>
        <pt x="160" y="-303" on="0"/>
        <pt x="202" y="-246" on="0"/>
        <pt x="208" y="-223" on="1"/>
        <pt x="216" y="-161" on="0"/>
        <pt x="169" y="-70" on="0"/>
        <pt x="113" y="0" on="1"/>
      </contour>
    </TTGlyph>
    <TTGlyph name="cyrillictic" xMin="49" yMin="-352" xMax="170" yMax="95">
      <contour>
        <pt x="103" y="-352" on="1"/>
        <pt x="49" y="-352" on="1"/>
        <pt x="116" y="95" on="1"/>
        <pt x="170" y="95" on="1"/>
      </contour>
    </TTGlyph>
    <TTGlyph name="d" xMin="83" yMin="-21" xMax="1105" yMax="1560">
      <contour>
        <pt x="123" y="542" on="1"/>
        <pt x="163" y="809" on="0"/>
        <pt x="421" y="1102" on="0"/>
        <pt x="615" y="1102" on="1"/>
        <pt x="737" y="1102" on="0"/>
        <pt x="908" y="986" on="0"/>
        <pt x="950" y="886" on="1"/>
        <pt x="1051" y="1560" on="1"/>
        <pt x="1105" y="1560" on="1"/>
        <pt x="871" y="0" on="1"/>
        <pt x="819" y="0" on="1"/>
        <pt x="843" y="169" on="1"/>
        <pt x="775" y="82" on="0"/>
        <pt x="571" y="-21" on="0"/>
        <pt x="445" y="-21" on="1"/>
        <pt x="262" y="-21" on="0"/>
        <pt x="83" y="274" on="0"/>
        <pt x="120" y="521" on="1"/>
      </contour>
      <contour>
        <pt x="176" y="521" on="1"/>
        <pt x="141" y="289" on="0"/>
        <pt x="278" y="33" on="0"/>
        <pt x="452" y="33" on="1"/>
        <pt x="589" y="33" on="0"/>
        <pt x="801" y="164" on="0"/>
        <pt x="858" y="272" on="1"/>
        <pt x="933" y="773" on="1"/>
        <pt x="912" y="889" on="0"/>
        <pt x="762" y="1048" on="0"/>
        <pt x="606" y="1048" on="1"/>
        <pt x="441" y="1048" on="0"/>
        <pt x="212" y="764" on="0"/>
        <pt x="179" y="542" on="1"/>
      </contour>
    </TTGlyph>
    <TTGlyph name="dagger" xMin="133" yMin="0" xMax="1131" yMax="1456">
      <contour>
        <pt x="1123" y="1024" on="1"/>
        <pt x="662" y="1024" on="1"/>
        <pt x="519" y="0" on="1"/>
        <pt x="465" y="0" on="1"/>
        <pt x="608" y="1024" on="1"/>
        <pt x="133" y="1024" on="1"/>
        <pt x="141" y="1082" on="1"/>
        <pt x="616" y="1082" on="1"/>
        <pt x="669" y="1456" on="1"/>
        <pt x="723" y="1456" on="1"/>
        <pt x="670" y="1082" on="1"/>
        <pt x="1131" y="1082" on="1"/>
      </contour>
    </TTGlyph>
    <TTGlyph name="daggerdbl" xMin="7" yMin="-416" xMax="1147" yMax="1456">
      <contour>
        <pt x="996" y="0" on="1"/>
        <pt x="515" y="0" on="1"/>
        <pt x="457" y="-416" on="1"/>
        <pt x="402" y="-416" on="1"/>
        <pt x="460" y="0" on="1"/>
        <pt x="7" y="0" on="1"/>
        <pt x="15" y="54" on="1"/>
        <pt x="467" y="54" on="1"/>
        <pt x="604" y="1027" on="1"/>
        <pt x="151" y="1027" on="1"/>
        <pt x="158" y="1082" on="1"/>
        <pt x="611" y="1082" on="1"/>
        <pt x="664" y="1456" on="1"/>
        <pt x="719" y="1456" on="1"/>
        <pt x="666" y="1082" on="1"/>
        <pt x="1147" y="1082" on="1"/>
        <pt x="1140" y="1027" on="1"/>
        <pt x="659" y="1027" on="1"/>
        <pt x="523" y="54" on="1"/>
        <pt x="1004" y="54" on="1"/>
      </contour>
    </TTGlyph>
    <TTGlyph name="dasiaoxia" xMin="235" yMin="1135" xMax="730" yMax="1477">
      <contour>
        <pt x="452" y="1164" on="1"/>
        <pt x="601" y="1477" on="1"/>
        <pt x="730" y="1477" on="1"/>
        <pt x="726" y="1456" on="1"/>
        <pt x="490" y="1137" on="1"/>
        <pt x="448" y="1137" on="1"/>
      </contour>
      <contour>
        <pt x="235" y="1135" on="1"/>
        <pt x="333" y="1135" on="1"/>
        <pt x="354" y="1272" on="1"/>
        <pt x="466" y="1476" on="1"/>
        <pt x="388" y="1476" on="1"/>
        <pt x="257" y="1278" on="1"/>
      </contour>
    </TTGlyph>
    <TTGlyph name="dcaron" xMin="83" yMin="-21" xMax="1372" yMax="1560">
      <component glyphName="d" x="0" y="0" flags="0x4"/>
      <component glyphName="commaaccent" x="1161" y="1442" flags="0x4"/>
    </TTGlyph>
    <TTGlyph name="dcroat" xMin="0" yMin="-21" xMax="1231" yMax="1560">
      <contour>
        <pt x="1223" y="1281" on="1"/>
        <pt x="1063" y="1281" on="1"/>
        <pt x="983" y="745" on="1"/>
        <pt x="917" y="304" on="1"/>
        <pt x="917" y="303" on="0"/>
        <pt x="0" y="0" on="0"/>
        <pt x="916" y="302" on="1"/>
        <pt x="871" y="0" on="1"/>
        <pt x="819" y="0" on="1"/>
        <pt x="843" y="169" on="1"/>
        <pt x="775" y="82" on="0"/>
        <pt x="571" y="-21" on="0"/>
        <pt x="445" y="-21" on="1"/>
        <pt x="262" y="-21" on="0"/>
        <pt x="83" y="274" on="0"/>
        <pt x="120" y="521" on="1"/>
        <pt x="123" y="542" on="1"/>
        <pt x="163" y="809" on="0"/>
        <pt x="421" y="1102" on="0"/>
        <pt x="615" y="1102" on="1"/>
        <pt x="737" y="1102" on="0"/>
        <pt x="908" y="985" on="0"/>
        <pt x="950" y="885" on="1"/>
        <pt x="1009" y="1281" on="1"/>
        <pt x="636" y="1281" on="1"/>
        <pt x="644" y="1335" on="1"/>
        <pt x="1017" y="1335" on="1"/>
        <pt x="1051" y="1560" on="1"/>
        <pt x="1105" y="1560" on="1"/>
        <pt x="1071" y="1335" on="1"/>
        <pt x="1231" y="1335" on="1"/>
      </contour>
      <contour>
        <pt x="176" y="521" on="1"/>
        <pt x="141" y="289" on="0"/>
        <pt x="278" y="33" on="0"/>
        <pt x="452" y="33" on="1"/>
        <pt x="589" y="33" on="0"/>
        <pt x="801" y="164" on="0"/>
        <pt x="858" y="272" on="1"/>
        <pt x="933" y="773" on="1"/>
        <pt x="912" y="889" on="0"/>
        <pt x="762" y="1048" on="0"/>
        <pt x="606" y="1048" on="1"/>
        <pt x="441" y="1048" on="0"/>
        <pt x="212" y="764" on="0"/>
        <pt x="179" y="542" on="1"/>
      </contour>
    </TTGlyph>
    <TTGlyph name="degree" xMin="247" yMin="1000" xMax="744" yMax="1477">
      <contour>
        <pt x="262" y="1237" on="1"/>
        <pt x="276" y="1339" on="0"/>
        <pt x="435" y="1477" on="0"/>
        <pt x="534" y="1477" on="1"/>
        <pt x="625" y="1477" on="0"/>
        <pt x="744" y="1334" on="0"/>
        <pt x="730" y="1237" on="1"/>
        <pt x="714" y="1133" on="0"/>
        <pt x="559" y="1000" on="0"/>
        <pt x="462" y="1000" on="1"/>
        <pt x="368" y="1000" on="0"/>
        <pt x="247" y="1138" on="0"/>
      </contour>
      <contour>
        <pt x="317" y="1237" on="1"/>
        <pt x="304" y="1155" on="0"/>
        <pt x="391" y="1056" on="0"/>
        <pt x="470" y="1056" on="1"/>
        <pt x="543" y="1056" on="0"/>
        <pt x="662" y="1159" on="0"/>
        <pt x="674" y="1237" on="1"/>
        <pt x="685" y="1320" on="0"/>
        <pt x="602" y="1422" on="0"/>
        <pt x="525" y="1422" on="1"/>
        <pt x="450" y="1422" on="0"/>
        <pt x="328" y="1316" on="0"/>
      </contour>
    </TTGlyph>
    <TTGlyph name="delta" xMin="49" yMin="-21" xMax="1086" yMax="1456">
      <contour>
        <pt x="1086" y="1456" on="1"/>
        <pt x="1078" y="1403" on="1"/>
        <pt x="411" y="1403" on="1"/>
        <pt x="409" y="1397" on="1"/>
        <pt x="903" y="1023" on="1"/>
        <pt x="985" y="960" on="0"/>
        <pt x="1059" y="704" on="0"/>
        <pt x="1038" y="562" on="1"/>
        <pt x="1032" y="520" on="1"/>
        <pt x="994" y="272" on="0"/>
        <pt x="691" y="-21" on="0"/>
        <pt x="479" y="-21" on="1"/>
        <pt x="276" y="-21" on="0"/>
        <pt x="49" y="284" on="0"/>
        <pt x="85" y="520" on="1"/>
        <pt x="91" y="562" on="1"/>
        <pt x="128" y="809" on="0"/>
        <pt x="432" y="1102" on="0"/>
        <pt x="645" y="1102" on="1"/>
        <pt x="660" y="1102" on="0"/>
        <pt x="688" y="1100" on="0"/>
        <pt x="696" y="1099" on="1"/>
        <pt x="698" y="1104" on="1"/>
        <pt x="315" y="1402" on="1"/>
        <pt x="323" y="1456" on="1"/>
      </contour>
      <contour>
        <pt x="637" y="1048" on="1"/>
        <pt x="454" y="1048" on="0"/>
        <pt x="174" y="758" on="0"/>
        <pt x="145" y="562" on="1"/>
        <pt x="139" y="520" on="1"/>
        <pt x="107" y="309" on="0"/>
        <pt x="292" y="33" on="0"/>
        <pt x="487" y="33" on="1"/>
        <pt x="669" y="33" on="0"/>
        <pt x="947" y="319" on="0"/>
        <pt x="978" y="520" on="1"/>
        <pt x="984" y="562" on="1"/>
        <pt x="1015" y="768" on="0"/>
        <pt x="829" y="1048" on="0"/>
      </contour>
    </TTGlyph>
    <TTGlyph name="dieresis" xMin="267" yMin="1338" xMax="890" yMax="1456">
      <contour>
        <pt x="873" y="1338" on="1"/>
        <pt x="737" y="1338" on="1"/>
        <pt x="754" y="1456" on="1"/>
        <pt x="890" y="1456" on="1"/>
      </contour>
      <contour>
        <pt x="404" y="1338" on="1"/>
        <pt x="267" y="1338" on="1"/>
        <pt x="284" y="1456" on="1"/>
        <pt x="421" y="1456" on="1"/>
      </contour>
    </TTGlyph>
    <TTGlyph name="dieresistonos" xMin="287" yMin="1348" xMax="909" yMax="1657">
      <contour>
        <pt x="893" y="1348" on="1"/>
        <pt x="767" y="1348" on="1"/>
        <pt x="783" y="1456" on="1"/>
        <pt x="909" y="1456" on="1"/>
      </contour>
      <contour>
        <pt x="414" y="1348" on="1"/>
        <pt x="287" y="1348" on="1"/>
        <pt x="303" y="1456" on="1"/>
        <pt x="430" y="1456" on="1"/>
      </contour>
      <contour>
        <pt x="635" y="1657" on="1"/>
        <pt x="765" y="1657" on="1"/>
        <pt x="768" y="1652" on="1"/>
        <pt x="627" y="1477" on="1"/>
        <pt x="585" y="1477" on="1"/>
      </contour>
    </TTGlyph>
    <TTGlyph name="divide" xMin="96" yMin="241" xMax="1102" yMax="1142">
      <contour>
        <pt x="1094" y="686" on="1"/>
        <pt x="96" y="686" on="1"/>
        <pt x="104" y="738" on="1"/>
        <pt x="1102" y="738" on="1"/>
      </contour>
      <contour>
        <pt x="704" y="1020" on="1"/>
        <pt x="608" y="1020" on="1"/>
        <pt x="626" y="1142" on="1"/>
        <pt x="722" y="1142" on="1"/>
      </contour>
      <contour>
        <pt x="587" y="241" on="1"/>
        <pt x="491" y="241" on="1"/>
        <pt x="509" y="363" on="1"/>
        <pt x="605" y="363" on="1"/>
      </contour>
    </TTGlyph>
    <TTGlyph name="dollar" xMin="74" yMin="-208" xMax="1091" yMax="1663">
      <contour>
        <pt x="920" y="344" on="1"/>
        <pt x="939" y="479" on="0"/>
        <pt x="805" y="624" on="0"/>
        <pt x="599" y="702" on="1"/>
        <pt x="395" y="773" on="0"/>
        <pt x="225" y="943" on="0"/>
        <pt x="248" y="1110" on="1"/>
        <pt x="271" y="1276" on="0"/>
        <pt x="506" y="1469" on="0"/>
        <pt x="685" y="1476" on="1"/>
        <pt x="712" y="1663" on="1"/>
        <pt x="767" y="1663" on="1"/>
        <pt x="740" y="1476" on="1"/>
        <pt x="913" y="1466" on="0"/>
        <pt x="1091" y="1241" on="0"/>
        <pt x="1065" y="1047" on="1"/>
        <pt x="1011" y="1047" on="1"/>
        <pt x="1034" y="1220" on="0"/>
        <pt x="875" y="1424" on="0"/>
        <pt x="703" y="1424" on="1"/>
        <pt x="537" y="1424" on="0"/>
        <pt x="320" y="1239" on="0"/>
        <pt x="303" y="1112" on="1"/>
        <pt x="284" y="977" on="0"/>
        <pt x="408" y="828" on="0"/>
        <pt x="624" y="754" on="1"/>
        <pt x="824" y="681" on="0"/>
        <pt x="997" y="511" on="0"/>
        <pt x="974" y="346" on="1"/>
        <pt x="950" y="179" on="0"/>
        <pt x="718" y="-10" on="0"/>
        <pt x="542" y="-20" on="1"/>
        <pt x="516" y="-208" on="1"/>
        <pt x="461" y="-208" on="1"/>
        <pt x="487" y="-20" on="1"/>
        <pt x="304" y="-14" on="0"/>
        <pt x="74" y="191" on="0"/>
        <pt x="108" y="404" on="1"/>
        <pt x="110" y="409" on="1"/>
        <pt x="157" y="409" on="1"/>
        <pt x="128" y="202" on="0"/>
        <pt x="343" y="32" on="0"/>
        <pt x="515" y="32" on="1"/>
        <pt x="672" y="32" on="0"/>
        <pt x="902" y="218" on="0"/>
      </contour>
    </TTGlyph>
    <TTGlyph name="dotaccent" xMin="273" yMin="1318" xMax="388" yMax="1456">
      <contour>
        <pt x="368" y="1318" on="1"/>
        <pt x="273" y="1318" on="1"/>
        <pt x="293" y="1456" on="1"/>
        <pt x="388" y="1456" on="1"/>
      </contour>
    </TTGlyph>
    <TTGlyph name="dotbelow" xMin="-750" yMin="-295" xMax="-635" yMax="-157">
      <contour>
        <pt x="-655" y="-295" on="1"/>
        <pt x="-750" y="-295" on="1"/>
        <pt x="-730" y="-157" on="1"/>
        <pt x="-635" y="-157" on="1"/>
      </contour>
    </TTGlyph>
    <TTGlyph name="dotlessi" xMin="101" yMin="0" xMax="317" yMax="1082">
      <contour>
        <pt x="155" y="0" on="1"/>
        <pt x="101" y="0" on="1"/>
        <pt x="263" y="1082" on="1"/>
        <pt x="317" y="1082" on="1"/>
      </contour>
    </TTGlyph>
    <TTGlyph name="e" xMin="49" yMin="-21" xMax="1000" yMax="1102">
      <contour>
        <pt x="458" y="-21" on="1"/>
        <pt x="280" y="-21" on="0"/>
        <pt x="49" y="280" on="0"/>
        <pt x="82" y="500" on="1"/>
        <pt x="92" y="564" on="1"/>
        <pt x="127" y="807" on="0"/>
        <pt x="430" y="1102" on="0"/>
        <pt x="623" y="1102" on="1"/>
        <pt x="799" y="1102" on="0"/>
        <pt x="1000" y="860" on="0"/>
        <pt x="971" y="660" on="1"/>
        <pt x="959" y="577" on="1"/>
        <pt x="148" y="577" on="1"/>
        <pt x="148" y="574" on="0"/>
        <pt x="146" y="565" on="0"/>
        <pt x="146" y="564" on="1"/>
        <pt x="136" y="500" on="1"/>
        <pt x="105" y="297" on="0"/>
        <pt x="294" y="33" on="0"/>
        <pt x="466" y="33" on="1"/>
        <pt x="583" y="33" on="0"/>
        <pt x="761" y="100" on="0"/>
        <pt x="828" y="165" on="1"/>
        <pt x="850" y="123" on="1"/>
        <pt x="776" y="52" on="0"/>
        <pt x="582" y="-21" on="0"/>
      </contour>
      <contour>
        <pt x="615" y="1048" on="1"/>
        <pt x="460" y="1048" on="0"/>
        <pt x="206" y="811" on="0"/>
        <pt x="165" y="637" on="1"/>
        <pt x="167" y="631" on="1"/>
        <pt x="913" y="631" on="1"/>
        <pt x="918" y="664" on="1"/>
        <pt x="943" y="835" on="0"/>
        <pt x="777" y="1048" on="0"/>
      </contour>
    </TTGlyph>
    <TTGlyph name="eacute" xMin="49" yMin="-21" xMax="1000" yMax="1501">
      <component glyphName="e" x="0" y="0" flags="0x204"/>
      <component glyphName="acute" x="404" y="23" flags="0x4"/>
    </TTGlyph>
    <TTGlyph name="ebreve" xMin="49" yMin="-21" xMax="1000" yMax="1518">
      <component glyphName="e" x="0" y="0" flags="0x204"/>
      <component glyphName="breve" x="149" y="62" flags="0x4"/>
    </TTGlyph>
    <TTGlyph name="ecaron" xMin="49" yMin="-21" xMax="1000" yMax="1506">
      <component glyphName="e" x="0" y="0" flags="0x204"/>
      <component glyphName="caron" x="185" y="31" flags="0x4"/>
    </TTGlyph>
    <TTGlyph name="ecircumflex" xMin="49" yMin="-21" xMax="1000" yMax="1503">
      <component glyphName="e" x="0" y="0" flags="0x204"/>
      <component glyphName="circumflex" x="169" y="28" flags="0x4"/>
    </TTGlyph>
    <TTGlyph name="edieresis" xMin="49" yMin="-21" xMax="1009" yMax="1470">
      <component glyphName="e" x="0" y="0" flags="0x204"/>
      <component glyphName="dieresis" x="119" y="14" flags="0x4"/>
    </TTGlyph>
    <TTGlyph name="edotaccent" xMin="49" yMin="-21" xMax="1000" yMax="1484">
      <component glyphName="e" x="0" y="0" flags="0x204"/>
      <component glyphName="dotaccent" x="367" y="28" flags="0x4"/>
    </TTGlyph>
    <TTGlyph name="egrave" xMin="49" yMin="-21" xMax="1000" yMax="1507">
      <component glyphName="e" x="0" y="0" flags="0x204"/>
      <component glyphName="grave" x="212" y="31" flags="0x4"/>
    </TTGlyph>
    <TTGlyph name="eight" xMin="46" yMin="-21" xMax="1094" yMax="1477">
      <contour>
        <pt x="1067" y="1086" on="1"/>
        <pt x="1047" y="958" on="0"/>
        <pt x="873" y="779" on="0"/>
        <pt x="745" y="744" on="1"/>
        <pt x="876" y="705" on="0"/>
        <pt x="1021" y="509" on="0"/>
        <pt x="1003" y="379" on="1"/>
        <pt x="972" y="180" on="0"/>
        <pt x="685" y="-21" on="0"/>
        <pt x="480" y="-21" on="1"/>
        <pt x="281" y="-21" on="0"/>
        <pt x="46" y="188" on="0"/>
        <pt x="75" y="379" on="1"/>
        <pt x="95" y="518" on="0"/>
        <pt x="293" y="711" on="0"/>
        <pt x="440" y="747" on="1"/>
        <pt x="325" y="785" on="0"/>
        <pt x="203" y="966" on="0"/>
        <pt x="222" y="1086" on="1"/>
        <pt x="250" y="1277" on="0"/>
        <pt x="515" y="1477" on="0"/>
        <pt x="703" y="1477" on="1"/>
        <pt x="879" y="1477" on="0"/>
        <pt x="1094" y="1267" on="0"/>
      </contour>
      <contour>
        <pt x="947" y="374" on="1"/>
        <pt x="970" y="534" on="0"/>
        <pt x="765" y="718" on="0"/>
        <pt x="589" y="718" on="1"/>
        <pt x="419" y="718" on="0"/>
        <pt x="151" y="527" on="0"/>
        <pt x="128" y="374" on="1"/>
        <pt x="102" y="207" on="0"/>
        <pt x="304" y="33" on="0"/>
        <pt x="488" y="33" on="1"/>
        <pt x="658" y="33" on="0"/>
        <pt x="923" y="215" on="0"/>
      </contour>
      <contour>
        <pt x="1014" y="1091" on="1"/>
        <pt x="1036" y="1240" on="0"/>
        <pt x="851" y="1423" on="0"/>
        <pt x="694" y="1423" on="1"/>
        <pt x="539" y="1423" on="0"/>
        <pt x="299" y="1241" on="0"/>
        <pt x="277" y="1091" on="1"/>
        <pt x="254" y="940" on="0"/>
        <pt x="435" y="772" on="0"/>
        <pt x="599" y="772" on="1"/>
        <pt x="750" y="772" on="0"/>
        <pt x="992" y="947" on="0"/>
      </contour>
    </TTGlyph>
    <TTGlyph name="eight.lnum" xMin="83" yMin="-21" xMax="1131" yMax="1477">
      <contour>
        <pt x="1104" y="1086" on="1"/>
        <pt x="1084" y="958" on="0"/>
        <pt x="910" y="779" on="0"/>
        <pt x="782" y="744" on="1"/>
        <pt x="913" y="705" on="0"/>
        <pt x="1058" y="509" on="0"/>
        <pt x="1040" y="379" on="1"/>
        <pt x="1009" y="180" on="0"/>
        <pt x="722" y="-21" on="0"/>
        <pt x="517" y="-21" on="1"/>
        <pt x="318" y="-21" on="0"/>
        <pt x="83" y="188" on="0"/>
        <pt x="112" y="379" on="1"/>
        <pt x="132" y="518" on="0"/>
        <pt x="330" y="711" on="0"/>
        <pt x="477" y="747" on="1"/>
        <pt x="362" y="785" on="0"/>
        <pt x="240" y="966" on="0"/>
        <pt x="259" y="1086" on="1"/>
        <pt x="287" y="1277" on="0"/>
        <pt x="552" y="1477" on="0"/>
        <pt x="740" y="1477" on="1"/>
        <pt x="916" y="1477" on="0"/>
        <pt x="1131" y="1267" on="0"/>
      </contour>
      <contour>
        <pt x="984" y="374" on="1"/>
        <pt x="1007" y="534" on="0"/>
        <pt x="802" y="718" on="0"/>
        <pt x="626" y="718" on="1"/>
        <pt x="456" y="718" on="0"/>
        <pt x="188" y="527" on="0"/>
        <pt x="165" y="374" on="1"/>
        <pt x="139" y="207" on="0"/>
        <pt x="341" y="33" on="0"/>
        <pt x="525" y="33" on="1"/>
        <pt x="695" y="33" on="0"/>
        <pt x="960" y="215" on="0"/>
      </contour>
      <contour>
        <pt x="1051" y="1091" on="1"/>
        <pt x="1073" y="1240" on="0"/>
        <pt x="888" y="1423" on="0"/>
        <pt x="731" y="1423" on="1"/>
        <pt x="576" y="1423" on="0"/>
        <pt x="336" y="1241" on="0"/>
        <pt x="314" y="1091" on="1"/>
        <pt x="291" y="940" on="0"/>
        <pt x="472" y="772" on="0"/>
        <pt x="636" y="772" on="1"/>
        <pt x="787" y="772" on="0"/>
        <pt x="1029" y="947" on="0"/>
      </contour>
    </TTGlyph>
    <TTGlyph name="eight.smcp" xMin="75" yMin="-17" xMax="961" yMax="1181">
      <contour>
        <pt x="939" y="876" on="1"/>
        <pt x="923" y="775" on="0"/>
        <pt x="783" y="632" on="0"/>
        <pt x="680" y="602" on="1"/>
        <pt x="785" y="569" on="0"/>
        <pt x="904" y="414" on="0"/>
        <pt x="890" y="313" on="1"/>
        <pt x="865" y="152" on="0"/>
        <pt x="621" y="-17" on="0"/>
        <pt x="454" y="-17" on="1"/>
        <pt x="284" y="-17" on="0"/>
        <pt x="75" y="159" on="0"/>
        <pt x="99" y="313" on="1"/>
        <pt x="115" y="421" on="0"/>
        <pt x="280" y="574" on="0"/>
        <pt x="404" y="605" on="1"/>
        <pt x="306" y="637" on="0"/>
        <pt x="202" y="781" on="0"/>
        <pt x="217" y="876" on="1"/>
        <pt x="239" y="1027" on="0"/>
        <pt x="468" y="1181" on="0"/>
        <pt x="631" y="1181" on="1"/>
        <pt x="777" y="1181" on="0"/>
        <pt x="961" y="1019" on="0"/>
      </contour>
      <contour>
        <pt x="835" y="309" on="1"/>
        <pt x="853" y="432" on="0"/>
        <pt x="682" y="577" on="0"/>
        <pt x="541" y="577" on="1"/>
        <pt x="399" y="577" on="0"/>
        <pt x="170" y="427" on="0"/>
        <pt x="152" y="309" on="1"/>
        <pt x="132" y="179" on="0"/>
        <pt x="310" y="38" on="0"/>
        <pt x="463" y="38" on="1"/>
        <pt x="598" y="38" on="0"/>
        <pt x="817" y="186" on="0"/>
      </contour>
      <contour>
        <pt x="886" y="879" on="1"/>
        <pt x="902" y="992" on="0"/>
        <pt x="749" y="1127" on="0"/>
        <pt x="623" y="1127" on="1"/>
        <pt x="492" y="1127" on="0"/>
        <pt x="289" y="993" on="0"/>
        <pt x="272" y="879" on="1"/>
        <pt x="254" y="762" on="0"/>
        <pt x="414" y="631" on="0"/>
        <pt x="552" y="631" on="1"/>
        <pt x="672" y="631" on="0"/>
        <pt x="869" y="768" on="0"/>
      </contour>
    </TTGlyph>
    <TTGlyph name="eight.sup" xMin="77" yMin="-11" xMax="725" yMax="812">
      <contour>
        <pt x="711" y="598" on="1"/>
        <pt x="700" y="532" on="0"/>
        <pt x="608" y="437" on="0"/>
        <pt x="539" y="414" on="1"/>
        <pt x="609" y="389" on="0"/>
        <pt x="687" y="285" on="0"/>
        <pt x="678" y="218" on="1"/>
        <pt x="660" y="106" on="0"/>
        <pt x="481" y="-11" on="0"/>
        <pt x="358" y="-11" on="1"/>
        <pt x="232" y="-11" on="0"/>
        <pt x="77" y="111" on="0"/>
        <pt x="93" y="218" on="1"/>
        <pt x="103" y="289" on="0"/>
        <pt x="212" y="392" on="0"/>
        <pt x="297" y="417" on="1"/>
        <pt x="232" y="441" on="0"/>
        <pt x="165" y="536" on="0"/>
        <pt x="175" y="598" on="1"/>
        <pt x="190" y="704" on="0"/>
        <pt x="359" y="812" on="0"/>
        <pt x="481" y="812" on="1"/>
        <pt x="588" y="812" on="0"/>
        <pt x="725" y="698" on="0"/>
      </contour>
      <contour>
        <pt x="622" y="215" on="1"/>
        <pt x="634" y="294" on="0"/>
        <pt x="514" y="388" on="0"/>
        <pt x="417" y="388" on="1"/>
        <pt x="316" y="388" on="0"/>
        <pt x="157" y="291" on="0"/>
        <pt x="146" y="215" on="1"/>
        <pt x="133" y="133" on="0"/>
        <pt x="259" y="44" on="0"/>
        <pt x="367" y="44" on="1"/>
        <pt x="461" y="44" on="0"/>
        <pt x="610" y="137" on="0"/>
      </contour>
      <contour>
        <pt x="655" y="601" on="1"/>
        <pt x="665" y="673" on="0"/>
        <pt x="560" y="757" on="0"/>
        <pt x="473" y="757" on="1"/>
        <pt x="381" y="757" on="0"/>
        <pt x="239" y="673" on="0"/>
        <pt x="229" y="601" on="1"/>
        <pt x="218" y="526" on="0"/>
        <pt x="330" y="442" on="0"/>
        <pt x="426" y="442" on="1"/>
        <pt x="509" y="442" on="0"/>
        <pt x="644" y="530" on="0"/>
      </contour>
    </TTGlyph>
    <TTGlyph name="ellipsis" xMin="131" yMin="0" xMax="990" yMax="130">
      <component glyphName="period" x="38" y="0" flags="0x4"/>
      <component glyphName="period" x="422" y="0" flags="0x4"/>
      <component glyphName="period" x="791" y="0" flags="0x4"/>
    </TTGlyph>
    <TTGlyph name="emacron" xMin="49" yMin="-21" xMax="1003" yMax="1465">
      <component glyphName="e" x="0" y="0" flags="0x204"/>
      <component glyphName="macron" x="155" y="9" flags="0x4"/>
    </TTGlyph>
    <TTGlyph name="emdash" xMin="225" yMin="721" xMax="1573" yMax="775">
      <component glyphName="minus" x="-81" y="0" scalex="1.59997558594" scaley="1.0" flags="0x4"/>
    </TTGlyph>
    <TTGlyph name="endash" xMin="209" yMin="721" xMax="1305" yMax="775">
      <component glyphName="minus" x="-39" y="0" scalex="1.29998779297" scaley="1.0" flags="0x4"/>
    </TTGlyph>
    <TTGlyph name="eng" xMin="90" yMin="-437" xMax="1005" yMax="1102">
      <contour>
        <pt x="274" y="866" on="1"/>
        <pt x="339" y="980" on="0"/>
        <pt x="545" y="1102" on="0"/>
        <pt x="685" y="1102" on="1"/>
        <pt x="855" y="1102" on="0"/>
        <pt x="1005" y="876" on="0"/>
        <pt x="970" y="637" on="1"/>
        <pt x="861" y="-89" on="1"/>
        <pt x="834" y="-262" on="0"/>
        <pt x="659" y="-437" on="0"/>
        <pt x="523" y="-437" on="1"/>
        <pt x="488" y="-437" on="0"/>
        <pt x="427" y="-427" on="0"/>
        <pt x="393" y="-417" on="1"/>
        <pt x="414" y="-365" on="1"/>
        <pt x="434" y="-372" on="0"/>
        <pt x="500" y="-384" on="0"/>
        <pt x="531" y="-384" on="1"/>
        <pt x="637" y="-384" on="0"/>
        <pt x="785" y="-228" on="0"/>
        <pt x="807" y="-89" on="1"/>
        <pt x="916" y="639" on="1"/>
        <pt x="951" y="874" on="0"/>
        <pt x="820" y="1048" on="0"/>
        <pt x="678" y="1048" on="1"/>
        <pt x="511" y="1048" on="0"/>
        <pt x="295" y="836" on="0"/>
        <pt x="245" y="674" on="1"/>
        <pt x="144" y="0" on="1"/>
        <pt x="90" y="0" on="1"/>
        <pt x="173" y="554" on="1"/>
        <pt x="252" y="1082" on="1"/>
        <pt x="300" y="1082" on="1"/>
      </contour>
    </TTGlyph>
    <TTGlyph name="eogonek" xMin="49" yMin="-299" xMax="1000" yMax="1102">
      <component glyphName="e" x="0" y="0" flags="0x204"/>
      <component glyphName="ogonek" x="518" y="58" flags="0x4"/>
    </TTGlyph>
    <TTGlyph name="epsilon" xMin="58" yMin="-17" xMax="1037" yMax="1098">
      <contour>
        <pt x="717" y="525" on="1"/>
        <pt x="552" y="525" on="1"/>
        <pt x="368" y="525" on="0"/>
        <pt x="151" y="409" on="0"/>
        <pt x="133" y="287" on="1"/>
        <pt x="115" y="165" on="0"/>
        <pt x="292" y="38" on="0"/>
        <pt x="476" y="38" on="1"/>
        <pt x="643" y="38" on="0"/>
        <pt x="889" y="187" on="0"/>
        <pt x="907" y="301" on="1"/>
        <pt x="951" y="301" on="1"/>
        <pt x="953" y="295" on="1"/>
        <pt x="935" y="139" on="0"/>
        <pt x="651" y="-17" on="0"/>
        <pt x="467" y="-17" on="1"/>
        <pt x="281" y="-17" on="0"/>
        <pt x="58" y="148" on="0"/>
        <pt x="80" y="290" on="1"/>
        <pt x="95" y="397" on="0"/>
        <pt x="239" y="530" on="0"/>
        <pt x="369" y="556" on="1"/>
        <pt x="266" y="588" on="0"/>
        <pt x="162" y="719" on="0"/>
        <pt x="175" y="802" on="1"/>
        <pt x="197" y="950" on="0"/>
        <pt x="439" y="1098" on="0"/>
        <pt x="635" y="1098" on="1"/>
        <pt x="808" y="1098" on="0"/>
        <pt x="1037" y="934" on="0"/>
        <pt x="1012" y="805" on="1"/>
        <pt x="1010" y="799" on="1"/>
        <pt x="965" y="799" on="1"/>
        <pt x="982" y="914" on="0"/>
        <pt x="789" y="1044" on="0"/>
        <pt x="627" y="1044" on="1"/>
        <pt x="454" y="1044" on="0"/>
        <pt x="247" y="911" on="0"/>
        <pt x="232" y="805" on="1"/>
        <pt x="215" y="693" on="0"/>
        <pt x="371" y="580" on="0"/>
        <pt x="560" y="580" on="1"/>
        <pt x="725" y="580" on="1"/>
        <pt x="724" y="572" on="1"/>
        <pt x="718" y="531" on="1"/>
      </contour>
    </TTGlyph>
    <TTGlyph name="epsilontonos" xMin="58" yMin="-17" xMax="1037" yMax="1485">
      <component glyphName="epsilon" x="0" y="0" flags="0x204"/>
      <component glyphName="tonos" x="283" y="-83" flags="0x4"/>
    </TTGlyph>
    <TTGlyph name="equal" xMin="132" yMin="436" xMax="1036" yMax="897">
      <contour>
        <pt x="1027" y="843" on="1"/>
        <pt x="193" y="843" on="1"/>
        <pt x="202" y="897" on="1"/>
        <pt x="1036" y="897" on="1"/>
      </contour>
      <contour>
        <pt x="966" y="436" on="1"/>
        <pt x="132" y="436" on="1"/>
        <pt x="141" y="490" on="1"/>
        <pt x="975" y="490" on="1"/>
      </contour>
    </TTGlyph>
    <TTGlyph name="estimated" xMin="113" yMin="-20" xMax="1204" yMax="1102">
      <contour>
        <pt x="975" y="94" on="1"/>
        <pt x="880" y="39" on="0"/>
        <pt x="683" y="-20" on="0"/>
        <pt x="588" y="-20" on="1"/>
        <pt x="379" y="-20" on="0"/>
        <pt x="113" y="312" on="0"/>
        <pt x="148" y="541" on="1"/>
        <pt x="183" y="776" on="0"/>
        <pt x="552" y="1102" on="0"/>
        <pt x="756" y="1102" on="1"/>
        <pt x="955" y="1102" on="0"/>
        <pt x="1204" y="789" on="0"/>
        <pt x="1170" y="561" on="1"/>
        <pt x="1170" y="559" on="0"/>
        <pt x="1165" y="531" on="0"/>
        <pt x="1163" y="514" on="1"/>
        <pt x="395" y="514" on="1"/>
        <pt x="346" y="186" on="1"/>
        <pt x="394" y="133" on="0"/>
        <pt x="525" y="76" on="0"/>
        <pt x="602" y="76" on="1"/>
        <pt x="693" y="76" on="0"/>
        <pt x="893" y="136" on="0"/>
        <pt x="989" y="198" on="1"/>
      </contour>
      <contour>
        <pt x="742" y="1008" on="1"/>
        <pt x="671" y="1008" on="0"/>
        <pt x="516" y="942" on="0"/>
        <pt x="451" y="886" on="1"/>
        <pt x="409" y="609" on="1"/>
        <pt x="949" y="609" on="1"/>
        <pt x="992" y="895" on="1"/>
        <pt x="946" y="947" on="0"/>
        <pt x="816" y="1008" on="0"/>
      </contour>
    </TTGlyph>
    <TTGlyph name="eta" xMin="92" yMin="-416" xMax="1005" yMax="1102">
      <contour>
        <pt x="276" y="870" on="1"/>
        <pt x="341" y="982" on="0"/>
        <pt x="546" y="1102" on="0"/>
        <pt x="685" y="1102" on="1"/>
        <pt x="855" y="1102" on="0"/>
        <pt x="1005" y="876" on="0"/>
        <pt x="970" y="637" on="1"/>
        <pt x="812" y="-416" on="1"/>
        <pt x="758" y="-416" on="1"/>
        <pt x="916" y="639" on="1"/>
        <pt x="951" y="874" on="0"/>
        <pt x="820" y="1048" on="0"/>
        <pt x="678" y="1048" on="1"/>
        <pt x="514" y="1048" on="0"/>
        <pt x="300" y="844" on="0"/>
        <pt x="249" y="687" on="1"/>
        <pt x="146" y="0" on="1"/>
        <pt x="92" y="0" on="1"/>
        <pt x="175" y="554" on="1"/>
        <pt x="173" y="554" on="1"/>
        <pt x="175" y="569" on="0"/>
        <pt x="180" y="600" on="0"/>
        <pt x="184" y="619" on="1"/>
        <pt x="254" y="1082" on="1"/>
        <pt x="300" y="1082" on="1"/>
      </contour>
    </TTGlyph>
    <TTGlyph name="etatonos" xMin="92" yMin="-416" xMax="1005" yMax="1486">
      <component glyphName="eta" x="0" y="0" flags="0x204"/>
      <component glyphName="tonos" x="311" y="-82" flags="0x4"/>
    </TTGlyph>
    <TTGlyph name="eth" xMin="80" yMin="-21" xMax="1210" yMax="1517">
      <contour>
        <pt x="945" y="1324" on="1"/>
        <pt x="1039" y="1223" on="0"/>
        <pt x="1102" y="945" on="0"/>
        <pt x="1074" y="755" on="1"/>
        <pt x="1041" y="535" on="1"/>
        <pt x="1003" y="281" on="0"/>
        <pt x="698" y="-21" on="0"/>
        <pt x="496" y="-21" on="1"/>
        <pt x="304" y="-21" on="0"/>
        <pt x="80" y="250" on="0"/>
        <pt x="110" y="446" on="1"/>
        <pt x="147" y="696" on="0"/>
        <pt x="420" y="953" on="0"/>
        <pt x="634" y="953" on="1"/>
        <pt x="766" y="953" on="0"/>
        <pt x="975" y="847" on="0"/>
        <pt x="1020" y="754" on="1"/>
        <pt x="1021" y="757" on="1"/>
        <pt x="1049" y="949" on="0"/>
        <pt x="981" y="1210" on="0"/>
        <pt x="895" y="1297" on="1"/>
        <pt x="500" y="1089" on="1"/>
        <pt x="480" y="1137" on="1"/>
        <pt x="854" y="1334" on="1"/>
        <pt x="806" y="1372" on="0"/>
        <pt x="690" y="1436" on="0"/>
        <pt x="618" y="1467" on="1"/>
        <pt x="646" y="1517" on="1"/>
        <pt x="726" y="1483" on="0"/>
        <pt x="856" y="1406" on="0"/>
        <pt x="906" y="1362" on="1"/>
        <pt x="1189" y="1511" on="1"/>
        <pt x="1210" y="1463" on="1"/>
      </contour>
      <contour>
        <pt x="509" y="37" on="1"/>
        <pt x="681" y="37" on="0"/>
        <pt x="954" y="319" on="0"/>
        <pt x="987" y="535" on="1"/>
        <pt x="1007" y="666" on="1"/>
        <pt x="979" y="761" on="0"/>
        <pt x="783" y="895" on="0"/>
        <pt x="625" y="895" on="1"/>
        <pt x="435" y="895" on="0"/>
        <pt x="194" y="643" on="0"/>
        <pt x="165" y="446" on="1"/>
        <pt x="139" y="276" on="0"/>
        <pt x="321" y="37" on="0"/>
      </contour>
    </TTGlyph>
    <TTGlyph name="exclam" xMin="67" yMin="0" xMax="359" yMax="1456">
      <contour>
        <pt x="213" y="478" on="1"/>
        <pt x="159" y="478" on="1"/>
        <pt x="305" y="1456" on="1"/>
        <pt x="359" y="1456" on="1"/>
      </contour>
      <contour>
        <pt x="162" y="0" on="1"/>
        <pt x="67" y="0" on="1"/>
        <pt x="87" y="134" on="1"/>
        <pt x="182" y="134" on="1"/>
      </contour>
    </TTGlyph>
    <TTGlyph name="exclamdbl" xMin="67" yMin="0" xMax="756" yMax="1456">
      <component glyphName="exclam" x="0" y="0" flags="0x4"/>
      <component glyphName="exclam" x="397" y="0" flags="0x4"/>
    </TTGlyph>
    <TTGlyph name="exclamdown" xMin="31" yMin="-374" xMax="324" yMax="1082">
      <contour>
        <pt x="85" y="-374" on="1"/>
        <pt x="31" y="-374" on="1"/>
        <pt x="178" y="604" on="1"/>
        <pt x="232" y="604" on="1"/>
      </contour>
      <contour>
        <pt x="300" y="918" on="1"/>
        <pt x="205" y="918" on="1"/>
        <pt x="229" y="1082" on="1"/>
        <pt x="324" y="1082" on="1"/>
      </contour>
    </TTGlyph>
    <TTGlyph name="f" xMin="140" yMin="0" xMax="820" yMax="1581">
      <contour>
        <pt x="174" y="0" on="1"/>
        <pt x="328" y="1027" on="1"/>
        <pt x="140" y="1027" on="1"/>
        <pt x="148" y="1082" on="1"/>
        <pt x="336" y="1082" on="1"/>
        <pt x="363" y="1260" on="1"/>
        <pt x="387" y="1419" on="0"/>
        <pt x="559" y="1581" on="0"/>
        <pt x="694" y="1581" on="1"/>
        <pt x="726" y="1581" on="0"/>
        <pt x="792" y="1573" on="0"/>
        <pt x="820" y="1564" on="1"/>
        <pt x="804" y="1512" on="1"/>
        <pt x="773" y="1520" on="0"/>
        <pt x="725" y="1527" on="0"/>
        <pt x="687" y="1527" on="1"/>
        <pt x="583" y="1527" on="0"/>
        <pt x="435" y="1384" on="0"/>
        <pt x="417" y="1260" on="1"/>
        <pt x="390" y="1082" on="1"/>
        <pt x="676" y="1082" on="1"/>
        <pt x="668" y="1027" on="1"/>
        <pt x="382" y="1027" on="1"/>
        <pt x="228" y="0" on="1"/>
      </contour>
    </TTGlyph>
    <TTGlyph name="fi" xMin="140" yMin="0" xMax="994" yMax="1581">
      <contour>
        <pt x="174" y="0" on="1"/>
        <pt x="328" y="1027" on="1"/>
        <pt x="140" y="1027" on="1"/>
        <pt x="148" y="1082" on="1"/>
        <pt x="336" y="1082" on="1"/>
        <pt x="360" y="1240" on="1"/>
        <pt x="385" y="1409" on="0"/>
        <pt x="580" y="1581" on="0"/>
        <pt x="734" y="1581" on="1"/>
        <pt x="799" y="1581" on="0"/>
        <pt x="934" y="1554" on="0"/>
        <pt x="994" y="1524" on="1"/>
        <pt x="978" y="1472" on="1"/>
        <pt x="916" y="1501" on="0"/>
        <pt x="809" y="1527" on="0"/>
        <pt x="727" y="1527" on="1"/>
        <pt x="606" y="1527" on="0"/>
        <pt x="433" y="1373" on="0"/>
        <pt x="414" y="1240" on="1"/>
        <pt x="390" y="1082" on="1"/>
        <pt x="676" y="1082" on="1"/>
        <pt x="668" y="1027" on="1"/>
        <pt x="382" y="1027" on="1"/>
        <pt x="228" y="0" on="1"/>
      </contour>
      <contour>
        <pt x="804" y="0" on="1"/>
        <pt x="750" y="0" on="1"/>
        <pt x="912" y="1082" on="1"/>
        <pt x="966" y="1082" on="1"/>
      </contour>
    </TTGlyph>
    <TTGlyph name="five" xMin="130" yMin="-21" xMax="1107" yMax="1456">
      <contour>
        <pt x="220" y="662" on="1"/>
        <pt x="417" y="1456" on="1"/>
        <pt x="1107" y="1456" on="1"/>
        <pt x="1099" y="1403" on="1"/>
        <pt x="458" y="1403" on="1"/>
        <pt x="305" y="785" on="1"/>
        <pt x="376" y="848" on="0"/>
        <pt x="536" y="912" on="0"/>
        <pt x="681" y="916" on="1"/>
        <pt x="856" y="921" on="0"/>
        <pt x="1045" y="673" on="0"/>
        <pt x="1014" y="464" on="1"/>
        <pt x="979" y="233" on="0"/>
        <pt x="733" y="-21" on="0"/>
        <pt x="511" y="-21" on="1"/>
        <pt x="340" y="-21" on="0"/>
        <pt x="130" y="182" on="0"/>
        <pt x="164" y="378" on="1"/>
        <pt x="166" y="383" on="1"/>
        <pt x="214" y="383" on="1"/>
        <pt x="187" y="204" on="0"/>
        <pt x="352" y="33" on="0"/>
        <pt x="519" y="33" on="1"/>
        <pt x="706" y="33" on="0"/>
        <pt x="926" y="250" on="0"/>
        <pt x="958" y="462" on="1"/>
        <pt x="987" y="653" on="0"/>
        <pt x="839" y="858" on="0"/>
        <pt x="674" y="858" on="1"/>
        <pt x="520" y="858" on="0"/>
        <pt x="313" y="750" on="0"/>
        <pt x="259" y="646" on="1"/>
      </contour>
    </TTGlyph>
</ttFont>
